<?xml version="1.0" encoding="UTF-8"?>
<svg version="1.1" xmlns="http://www.w3.org/2000/svg" width="618" height="618">
<path d="M0 0 C1.74042829 -0.00899797 3.48085593 -0.0181202 5.22128296 -0.02735901 C8.86401223 -0.04377904 12.50665048 -0.05153464 16.14941406 -0.05444336 C19.83232763 -0.05872403 23.51453276 -0.07939832 27.19726562 -0.1159668 C47.15568789 -0.31071238 66.23982262 -0.35452338 85.68916321 4.74411011 C88.09189989 5.37265348 90.50220056 5.93767679 92.92431641 6.48632812 C119.38663853 12.54171967 144.54448304 23.02336662 168.0859375 36.37109375 C169.2301416 37.0067627 169.2301416 37.0067627 170.39746094 37.65527344 C180.4787607 43.27302385 189.77203788 49.95554993 199.02001953 56.83691406 C200.8444051 58.1917284 202.67965212 59.5296556 204.51953125 60.86328125 C214.0759924 67.95009513 222.55999379 76.09646747 231.0859375 84.37109375 C231.67358887 84.93683105 232.26124023 85.50256836 232.86669922 86.08544922 C239.80808295 92.7807573 246.12427288 99.77792366 252.0859375 107.37109375 C252.95552749 108.44002717 253.82668718 109.50768508 254.69921875 110.57421875 C261.38073734 118.80999434 267.23889602 127.42832739 272.85742188 136.41796875 C273.92988256 138.12299368 275.02914316 139.81110239 276.1328125 141.49609375 C286.69941189 157.91362008 294.7861376 175.821528 301.29711914 194.1875 C302.00619685 196.15035702 302.77673953 198.09074987 303.5546875 200.02734375 C305.91260183 206.3068009 307.40918156 212.86971657 309.0234375 219.37109375 C309.19924347 220.07806396 309.37504944 220.78503418 309.55618286 221.51342773 C314.72902727 242.44401885 317.79333619 262.7786178 318.0859375 284.37109375 C318.10108398 285.23154297 318.11623047 286.09199219 318.13183594 286.97851562 C318.22466154 292.7789838 318.18803608 298.57102543 318.0859375 304.37109375 C318.07336914 305.29857422 318.06080078 306.22605469 318.04785156 307.18164062 C317.509432 340.08017456 310.98259925 375.82252151 297.203125 405.92626953 C295.93326006 408.70520911 294.71365489 411.50415206 293.4921875 414.3046875 C274.86490683 456.51042766 244.99982859 497.51729381 207.71826172 525.14453125 C206.12037017 526.34522032 204.5576078 527.59221179 202.99609375 528.83984375 C194.53019037 535.58694455 185.54959769 541.3331303 176.32421875 546.98535156 C174.38110618 548.18835189 172.46436305 549.42075666 170.5546875 550.67578125 C157.86563244 558.76950095 143.91584802 564.53209895 130.0859375 570.37109375 C129.12800293 570.77779297 128.17006836 571.18449219 127.18310547 571.60351562 C109.84432276 578.82077187 91.43743965 582.65668279 73.0859375 586.37109375 C71.91580109 586.62139343 70.74566467 586.87169312 69.54006958 587.12957764 C60.19107467 589.06739818 51.19798024 589.86092647 41.625 589.91015625 C40.19252588 589.92500896 38.7600562 589.94029423 37.32759094 589.95597839 C32.78862302 589.99726599 28.25005727 589.99873123 23.7109375 589.99609375 C22.93980244 589.99718014 22.16866737 589.99826653 21.37416458 589.99938583 C-0.58653513 590.02883588 -21.62913584 589.47667651 -42.85595703 583.25097656 C-45.70552934 582.43109323 -48.54124049 581.75726468 -51.44140625 581.14453125 C-78.26539687 575.40076284 -106.05628246 563.44159733 -129.08496094 548.54980469 C-131.08058127 547.26378561 -133.09394203 546.00862554 -135.109375 544.75390625 C-143.87260243 539.25059156 -152.13020861 533.3530991 -160.13964844 526.80566406 C-161.96467866 525.33017183 -163.81458499 523.89164737 -165.671875 522.45703125 C-180.58599081 510.82020924 -194.47216199 497.46775741 -205.9140625 482.37109375 C-206.91136406 481.10046528 -207.91018899 479.83103167 -208.91015625 478.5625 C-229.67246806 452.054058 -246.50436885 423.0231822 -257.05078125 390.97460938 C-257.90949673 388.38486338 -258.80035011 385.80788226 -259.6953125 383.23046875 C-267.305427 360.85743887 -272.05477414 337.84118133 -272.1171875 314.19921875 C-272.12001488 313.47027153 -272.12284225 312.74132431 -272.12575531 311.99028778 C-272.1406938 308.1222651 -272.1499534 304.2542791 -272.15429688 300.38623047 C-272.15865839 297.2308379 -272.17246638 294.07572232 -272.1953125 290.92041016 C-272.43777255 256.70115889 -272.43777255 256.70115889 -268.9140625 240.37109375 C-268.76868042 239.67649048 -268.62329834 238.98188721 -268.47351074 238.26623535 C-267.48295096 233.60533924 -266.35522238 228.98468141 -265.1640625 224.37109375 C-264.99076416 223.68931061 -264.81746582 223.00752747 -264.63891602 222.30508423 C-261.69432609 210.75146266 -258.2839562 199.47076853 -253.9140625 188.37109375 C-253.62096191 187.61183594 -253.32786133 186.85257813 -253.02587891 186.0703125 C-243.48820476 161.56986514 -230.66869239 137.9672163 -214.28515625 117.36328125 C-211.8707844 114.31647922 -209.57978937 111.19904324 -207.2890625 108.05859375 C-204.07721979 103.75540308 -200.70075534 99.94917378 -196.82421875 96.2421875 C-194.26929047 93.73950724 -191.96481042 91.05373708 -189.65234375 88.328125 C-187.50002355 85.90495102 -185.22411814 83.6449003 -182.9140625 81.37109375 C-182.38820557 80.85023193 -181.86234863 80.32937012 -181.32055664 79.79272461 C-170.90854886 69.54853373 -159.87681218 60.73231604 -147.9140625 52.37109375 C-146.83632568 51.60418213 -146.83632568 51.60418213 -145.73681641 50.82177734 C-125.72374047 36.61909825 -103.66965112 24.99561173 -80.5390625 16.80859375 C-79.42909912 16.41438232 -78.31913574 16.0201709 -77.17553711 15.61401367 C-74.09122609 14.52467285 -71.00366693 13.44531375 -67.9140625 12.37109375 C-66.72683594 11.95601562 -65.53960937 11.5409375 -64.31640625 11.11328125 C-52.80290178 7.34407346 -40.76621762 4.84008178 -28.9140625 2.37109375 C-28.18395966 2.20042892 -27.45385681 2.0297641 -26.70162964 1.85392761 C-17.8486502 -0.02964128 -9.0039637 0.02437779 0 0 Z " fill="#229ACE" transform="translate(286.9140625,14.62890625)"/>
<path d="M0 0 C1.48850464 0.23529419 1.48850464 0.23529419 3.00708008 0.4753418 C8.76316576 1.39001116 14.32665678 2.48763152 19.9375 4.0625 C23.94567594 5.17939445 27.90670021 6.24658429 32 7 C32 7.66 32 8.32 32 9 C32.62003906 9.07476562 33.24007813 9.14953125 33.87890625 9.2265625 C43.83860181 10.70529459 52.46333407 14.61279292 61.66015625 18.578125 C64.32125826 19.71103861 66.98681638 20.78030155 69.6875 21.8125 C75.64281018 24.17076613 81.31072492 27.06738398 87 30 C87 30.66 87 31.32 87 32 C87.84175781 32.24234375 88.68351562 32.4846875 89.55078125 32.734375 C93.41113253 34.15085724 96.73561859 36.05651277 100.1875 38.25 C100.87239502 38.68256104 101.55729004 39.11512207 102.26293945 39.56079102 C130.68950094 57.81289668 156.14808927 80.46994569 176.69042969 107.29199219 C177.92409261 108.90099775 179.16872983 110.50157199 180.4140625 112.1015625 C185.79863646 119.11446123 190.51834383 126.38207549 195 134 C195.65871094 135.11246094 196.31742188 136.22492188 196.99609375 137.37109375 C200.62951438 143.61094477 204.06059735 149.92775608 207.3125 156.375 C207.80073242 157.33756714 207.80073242 157.33756714 208.29882812 158.31958008 C214 169.7974851 214 169.7974851 214 175 C214.66 175 215.32 175 216 175 C216.25394531 175.85722656 216.50789063 176.71445313 216.76953125 177.59765625 C217.11371094 178.74105469 217.45789063 179.88445312 217.8125 181.0625 C218.14894531 182.18785156 218.48539063 183.31320313 218.83203125 184.47265625 C219.94362684 188.02217669 219.94362684 188.02217669 221.5078125 191.3984375 C223.17188544 195.41486486 224.14764854 199.32707658 225.0625 203.5625 C226.32711543 209.32562285 226.32711543 209.32562285 227.99609375 214.98046875 C229.28412302 218.85458013 230.15024796 222.76014862 231 226.75 C231.165 227.47832031 231.33 228.20664062 231.5 228.95703125 C235.02755422 245.46488266 235.36863609 262.0642618 235.3125 278.875 C235.31134186 279.94872864 235.31018372 281.02245728 235.30899048 282.12872314 C235.26721943 301.73339116 235.16132775 321.53664287 229.70239258 340.51318359 C228.80566584 343.68803885 228.14240047 346.89005479 227.5 350.125 C226.35163704 355.59311169 224.93206991 360.76381055 223 366 C222.70222656 366.83660156 222.40445312 367.67320312 222.09765625 368.53515625 C208.76394294 405.75174561 190.37763425 439.07486716 164.54296875 469.03125 C162.97535268 470.86133942 161.43076238 472.71181503 159.92578125 474.59375 C159.33152344 475.3259375 158.73726562 476.058125 158.125 476.8125 C157.63257813 477.43769531 157.14015625 478.06289063 156.6328125 478.70703125 C154.32458414 480.53483887 152.88851974 480.29783383 150 480 C148.11172706 478.74997956 148.11172706 478.74997956 146.2981081 476.95524693 C145.59967393 476.27601848 144.90123976 475.59679004 144.18164092 474.89697891 C143.04992195 473.75876132 143.04992195 473.75876132 141.89533997 472.59754944 C141.08393561 471.80100069 140.27253125 471.00445194 139.43653888 470.18376535 C136.70838558 467.49912845 133.99853321 464.7967425 131.28833008 462.09399414 C129.34242266 460.16853039 127.39291034 458.24672991 125.44371033 456.32460022 C120.14084418 451.08966182 114.85693067 445.83586587 109.57693315 440.57787633 C106.2777744 437.29253511 102.97494853 434.01089767 99.67145348 430.72991753 C90.52038225 421.63982479 81.37407264 412.54499982 72.24498463 403.43282413 C71.66057633 402.84951367 71.07616803 402.2662032 70.47405038 401.66521665 C69.8882621 401.08051976 69.30247382 400.49582286 68.69893438 399.89340788 C67.5119438 398.70863462 66.32494548 397.52386911 65.13793945 396.33911133 C64.54914986 395.75142888 63.96036026 395.16374643 63.35372856 394.55825543 C53.8250328 385.04927442 44.26308226 375.57450813 34.68615726 366.11412675 C24.84693547 356.39367578 15.03628033 346.64513868 5.25335044 336.86802953 C-0.23716058 331.3820926 -5.73901405 325.90874692 -11.27257347 320.46620369 C-15.98776295 315.828299 -20.67607522 311.16515112 -25.33218189 306.46790475 C-27.70635176 304.07428818 -30.09345396 301.69954149 -32.50854874 299.34682465 C-49.86841936 282.40920353 -49.86841936 282.40920353 -50.07136077 270.50345331 C-50.0596213 269.85848963 -50.04788184 269.21352594 -50.03578663 268.54901791 C-49.95195335 260.23513548 -54.76837976 252.24921228 -60 246 C-62.51747666 243.7347656 -65.1639771 241.84311761 -68 240 C-68.78375 239.4225 -69.5675 238.845 -70.375 238.25 C-76.70403061 235.2361759 -83.40096796 234.96734377 -90.3125 234.75 C-96.43125 234.37916667 -96.43125 234.37916667 -98.828125 232.78125 C-100.0625 231.25 -100.0625 231.25 -102 228 C-103.63833969 226.30547983 -105.30825077 224.64120081 -107 223 C-108.56302528 221.4263028 -110.12551643 219.85207492 -111.6875 218.27734375 C-113.45826532 216.49732817 -115.22910062 214.7173822 -117 212.9375 C-117.88945312 212.03966797 -118.77890625 211.14183594 -119.6953125 210.21679688 C-120.55898437 209.34990234 -121.42265625 208.48300781 -122.3125 207.58984375 C-123.09238281 206.80472412 -123.87226563 206.01960449 -124.67578125 205.21069336 C-127.00376297 202.92154248 -127.00376297 202.92154248 -129.79296875 200.83813477 C-130.52128906 200.23155029 -131.24960938 199.62496582 -132 199 C-132 198.34 -132 197.68 -132 197 C-132.66 197 -133.32 197 -134 197 C-136.125 195.125 -136.125 195.125 -138 193 C-138 192.34 -138 191.68 -138 191 C-138.59683594 190.7421875 -139.19367188 190.484375 -139.80859375 190.21875 C-142.18085817 188.89941578 -143.38413125 187.6125068 -145.0625 185.5 C-147.00872186 183.06335088 -148.33393182 181.77737879 -151 180 C-151 179.34 -151 178.68 -151 178 C-151.66 178 -152.32 178 -153 178 C-153 177.34 -153 176.68 -153 176 C-153.8353125 175.6596875 -153.8353125 175.6596875 -154.6875 175.3125 C-158.68438886 173.04399551 -161.53966649 170.38100054 -163 166 C-163.639375 165.690625 -164.27875 165.38125 -164.9375 165.0625 C-167.50051718 163.74215782 -167.7407337 162.5185326 -169 160 C-170.93330603 158.90833725 -170.93330603 158.90833725 -173 158 C-174.75 156.5 -174.75 156.5 -176 155 C-176 154.34 -176 153.68 -176 153 C-176.59526867 152.72977083 -177.19053734 152.45954166 -177.80384445 152.18112373 C-179.98595927 151.0075513 -181.39835502 149.84841349 -183.13848877 148.10202026 C-183.73297821 147.51028015 -184.32746765 146.91854004 -184.93997192 146.30886841 C-185.58014252 145.66150726 -186.22031311 145.01414612 -186.87988281 144.34716797 C-187.56321686 143.66412598 -188.2465509 142.98108398 -188.95059204 142.27734375 C-191.20620976 140.02033362 -193.45466222 137.7563237 -195.703125 135.4921875 C-197.26638892 133.92519314 -198.83009523 132.35864001 -200.39422607 130.79251099 C-204.50858445 126.67051858 -208.6169012 122.54255516 -212.72399902 118.41333008 C-216.91654166 114.20032416 -221.11475588 109.99297842 -225.3125 105.78515625 C-233.54723528 97.5289751 -241.77560065 89.26647643 -250 81 C-249.37920311 80.27765167 -249.37920311 80.27765167 -248.74586487 79.54071045 C-248.20397018 78.9094928 -247.6620755 78.27827515 -247.10375977 77.62792969 C-246.56614517 77.00198914 -246.02853058 76.37604858 -245.47462463 75.73114014 C-244.41349499 74.48542372 -243.37064952 73.22404788 -242.33984375 71.953125 C-219.21981382 43.87420285 -179.30576582 23.9780838 -145.64453125 12.2734375 C-143.60457643 11.56065586 -141.56894885 10.83379762 -139.55273438 10.05639648 C-132.75131568 7.46436264 -126.00465108 5.74118652 -118.875 4.3125 C-116.83007048 3.89514156 -114.78575842 3.47474197 -112.7421875 3.05078125 C-111.8538623 2.87200439 -110.96553711 2.69322754 -110.05029297 2.5090332 C-108.02020756 2.19217059 -108.02020756 2.19217059 -107 1 C-72.99376974 -6.24108007 -34.11760354 -5.98700737 0 0 Z " fill="#1E87B5" transform="translate(359,28)"/>
<path d="M0 0 C1.74042829 -0.00899797 3.48085593 -0.0181202 5.22128296 -0.02735901 C8.86401223 -0.04377904 12.50665048 -0.05153464 16.14941406 -0.05444336 C19.83232763 -0.05872403 23.51453276 -0.07939832 27.19726562 -0.1159668 C47.15568789 -0.31071238 66.23982262 -0.35452338 85.68916321 4.74411011 C88.09189989 5.37265348 90.50220056 5.93767679 92.92431641 6.48632812 C119.38663853 12.54171967 144.54448304 23.02336662 168.0859375 36.37109375 C169.2301416 37.0067627 169.2301416 37.0067627 170.39746094 37.65527344 C180.4787607 43.27302385 189.77203788 49.95554993 199.02001953 56.83691406 C200.8444051 58.1917284 202.67965212 59.5296556 204.51953125 60.86328125 C214.0759924 67.95009513 222.55999379 76.09646747 231.0859375 84.37109375 C231.67358887 84.93683105 232.26124023 85.50256836 232.86669922 86.08544922 C239.80808295 92.7807573 246.12427288 99.77792366 252.0859375 107.37109375 C252.95552749 108.44002717 253.82668718 109.50768508 254.69921875 110.57421875 C261.38073734 118.80999434 267.23889602 127.42832739 272.85742188 136.41796875 C273.92988256 138.12299368 275.02914316 139.81110239 276.1328125 141.49609375 C286.69941189 157.91362008 294.7861376 175.821528 301.29711914 194.1875 C302.00619685 196.15035702 302.77673953 198.09074987 303.5546875 200.02734375 C305.91260183 206.3068009 307.40918156 212.86971657 309.0234375 219.37109375 C309.19924347 220.07806396 309.37504944 220.78503418 309.55618286 221.51342773 C314.72902727 242.44401885 317.79333619 262.7786178 318.0859375 284.37109375 C318.10108398 285.23154297 318.11623047 286.09199219 318.13183594 286.97851562 C318.22466154 292.7789838 318.18803608 298.57102543 318.0859375 304.37109375 C318.07336914 305.29857422 318.06080078 306.22605469 318.04785156 307.18164062 C317.509432 340.08017456 310.98259925 375.82252151 297.203125 405.92626953 C295.93326006 408.70520911 294.71365489 411.50415206 293.4921875 414.3046875 C274.86490683 456.51042766 244.99982859 497.51729381 207.71826172 525.14453125 C206.12037017 526.34522032 204.5576078 527.59221179 202.99609375 528.83984375 C194.53019037 535.58694455 185.54959769 541.3331303 176.32421875 546.98535156 C174.38110618 548.18835189 172.46436305 549.42075666 170.5546875 550.67578125 C157.86563244 558.76950095 143.91584802 564.53209895 130.0859375 570.37109375 C129.12800293 570.77779297 128.17006836 571.18449219 127.18310547 571.60351562 C109.84432276 578.82077187 91.43743965 582.65668279 73.0859375 586.37109375 C71.91580109 586.62139343 70.74566467 586.87169312 69.54006958 587.12957764 C60.19107467 589.06739818 51.19798024 589.86092647 41.625 589.91015625 C40.19252588 589.92500896 38.7600562 589.94029423 37.32759094 589.95597839 C32.78862302 589.99726599 28.25005727 589.99873123 23.7109375 589.99609375 C22.93980244 589.99718014 22.16866737 589.99826653 21.37416458 589.99938583 C-0.58653513 590.02883588 -21.62913584 589.47667651 -42.85595703 583.25097656 C-45.70552934 582.43109323 -48.54124049 581.75726468 -51.44140625 581.14453125 C-78.26539687 575.40076284 -106.05628246 563.44159733 -129.08496094 548.54980469 C-131.08058127 547.26378561 -133.09394203 546.00862554 -135.109375 544.75390625 C-143.87260243 539.25059156 -152.13020861 533.3530991 -160.13964844 526.80566406 C-161.96467866 525.33017183 -163.81458499 523.89164737 -165.671875 522.45703125 C-180.58599081 510.82020924 -194.47216199 497.46775741 -205.9140625 482.37109375 C-206.91136406 481.10046528 -207.91018899 479.83103167 -208.91015625 478.5625 C-229.67246806 452.054058 -246.50436885 423.0231822 -257.05078125 390.97460938 C-257.90949673 388.38486338 -258.80035011 385.80788226 -259.6953125 383.23046875 C-267.305427 360.85743887 -272.05477414 337.84118133 -272.1171875 314.19921875 C-272.12001488 313.47027153 -272.12284225 312.74132431 -272.12575531 311.99028778 C-272.1406938 308.1222651 -272.1499534 304.2542791 -272.15429688 300.38623047 C-272.15865839 297.2308379 -272.17246638 294.07572232 -272.1953125 290.92041016 C-272.43777255 256.70115889 -272.43777255 256.70115889 -268.9140625 240.37109375 C-268.76868042 239.67649048 -268.62329834 238.98188721 -268.47351074 238.26623535 C-267.48295096 233.60533924 -266.35522238 228.98468141 -265.1640625 224.37109375 C-264.99076416 223.68931061 -264.81746582 223.00752747 -264.63891602 222.30508423 C-261.69432609 210.75146266 -258.2839562 199.47076853 -253.9140625 188.37109375 C-253.62096191 187.61183594 -253.32786133 186.85257813 -253.02587891 186.0703125 C-243.48820476 161.56986514 -230.66869239 137.9672163 -214.28515625 117.36328125 C-211.8707844 114.31647922 -209.57978937 111.19904324 -207.2890625 108.05859375 C-204.07721979 103.75540308 -200.70075534 99.94917378 -196.82421875 96.2421875 C-194.26929047 93.73950724 -191.96481042 91.05373708 -189.65234375 88.328125 C-187.50002355 85.90495102 -185.22411814 83.6449003 -182.9140625 81.37109375 C-182.38820557 80.85023193 -181.86234863 80.32937012 -181.32055664 79.79272461 C-170.90854886 69.54853373 -159.87681218 60.73231604 -147.9140625 52.37109375 C-146.83632568 51.60418213 -146.83632568 51.60418213 -145.73681641 50.82177734 C-125.72374047 36.61909825 -103.66965112 24.99561173 -80.5390625 16.80859375 C-79.42909912 16.41438232 -78.31913574 16.0201709 -77.17553711 15.61401367 C-74.09122609 14.52467285 -71.00366693 13.44531375 -67.9140625 12.37109375 C-66.72683594 11.95601562 -65.53960937 11.5409375 -64.31640625 11.11328125 C-52.80290178 7.34407346 -40.76621762 4.84008178 -28.9140625 2.37109375 C-28.18395966 2.20042892 -27.45385681 2.0297641 -26.70162964 1.85392761 C-17.8486502 -0.02964128 -9.0039637 0.02437779 0 0 Z M-40.9140625 16.37109375 C-42.54090375 16.7895661 -44.17388093 17.18501318 -45.8125 17.5546875 C-47.15054688 17.8630957 -47.15054688 17.8630957 -48.515625 18.17773438 C-50.35631146 18.59642573 -52.1974554 19.01311119 -54.0390625 19.42773438 C-59.5306802 20.69776988 -64.68740416 22.27294658 -69.9140625 24.37109375 C-71.25647058 24.88115004 -72.60023822 25.38764186 -73.9453125 25.890625 C-74.93724609 26.2630835 -74.93724609 26.2630835 -75.94921875 26.64306641 C-77.83798614 27.34290542 -79.73527511 28.01961379 -81.6328125 28.6953125 C-91.45931205 32.21159469 -100.71153457 36.45608013 -109.9140625 41.37109375 C-111.02910156 41.9640625 -112.14414063 42.55703125 -113.29296875 43.16796875 C-133.15167256 54.1406646 -151.69182521 67.35532502 -168.23046875 82.875 C-170.51691223 85.00169197 -172.84393334 87.04181936 -175.2265625 89.05859375 C-178.39899638 91.81666892 -181.12019398 94.77016139 -183.828125 97.98046875 C-185.43098171 99.81745059 -187.05539369 101.5751628 -188.75 103.32421875 C-205.25957462 120.43911039 -217.91700293 140.12376279 -229.3515625 160.87109375 C-229.86025879 161.79124268 -230.36895508 162.7113916 -230.89306641 163.65942383 C-233.03724693 167.61057487 -235.04548753 171.48234877 -236.57421875 175.71484375 C-237.9140625 179.37109375 -237.9140625 179.37109375 -239.359375 181.69140625 C-241.83159445 185.95256841 -243.21727057 190.59086786 -244.7890625 195.24609375 C-245.50128943 197.34635846 -246.21352898 199.44661888 -246.92578125 201.546875 C-247.43890869 203.06595459 -247.43890869 203.06595459 -247.96240234 204.61572266 C-248.72362939 206.81972688 -249.5200052 208.99393921 -250.37109375 211.1640625 C-254.88223189 223.15080098 -256.37132471 235.87924595 -258.27978516 248.48461914 C-258.70989311 251.12006505 -259.17388253 253.7076948 -259.71630859 256.31811523 C-262.12534417 268.13399232 -262.38449393 279.64982621 -262.2890625 291.68359375 C-262.2854068 292.68912292 -262.2817511 293.6946521 -262.27798462 294.73065186 C-262.17902146 317.97845939 -260.42908756 339.95325163 -253.9140625 362.37109375 C-253.45531472 364.04995933 -252.99989041 365.72973481 -252.546875 367.41015625 C-248.28977383 385.5182819 -248.28977383 385.5182819 -240.9140625 402.37109375 C-239.59396268 405.65926922 -238.39745588 408.97963454 -237.1953125 412.3125 C-236.01230547 415.13656862 -234.73269412 416.95398386 -232.9140625 419.37109375 C-232.20986982 421.01489836 -231.50837566 422.65999529 -230.82958984 424.31445312 C-228.93365866 428.57347293 -226.54376534 432.58082408 -224.2265625 436.62109375 C-223.6912793 437.55550293 -223.15599609 438.48991211 -222.60449219 439.45263672 C-218.74474795 446.11028936 -214.62550603 452.28382953 -209.9140625 458.37109375 C-208.57644246 460.22217031 -207.24319545 462.07641379 -205.9140625 463.93359375 C-191.34421261 483.896547 -173.69956629 503.46871302 -153.9140625 518.37109375 C-153.23118164 518.89268066 -152.54830078 519.41426758 -151.84472656 519.95166016 C-141.57415025 527.78008286 -131.2031269 535.09051625 -119.9140625 541.37109375 C-119.23730469 541.75056152 -118.56054688 542.1300293 -117.86328125 542.52099609 C-115.8029892 543.67011538 -113.73590866 544.80545497 -111.6640625 545.93359375 C-111.03145508 546.28083496 -110.39884766 546.62807617 -109.74707031 546.98583984 C-106.91916108 548.49256349 -105.16951537 549.37109375 -101.9140625 549.37109375 C-101.9140625 550.03109375 -101.9140625 550.69109375 -101.9140625 551.37109375 C-100.95886719 551.74621094 -100.00367188 552.12132812 -99.01953125 552.5078125 C-97.71348397 553.0245938 -96.40749773 553.54152937 -95.1015625 554.05859375 C-94.16666992 554.42500977 -94.16666992 554.42500977 -93.21289062 554.79882812 C-89.30214181 556.35133645 -85.49897491 558.03928054 -81.69921875 559.84765625 C-75.6862259 562.60341643 -69.54591728 564.36882641 -63.1640625 566.05859375 C-62.07996094 566.35314453 -60.99585938 566.64769531 -59.87890625 566.95117188 C-57.79970158 567.51603517 -55.71950792 568.07727499 -53.63818359 568.63427734 C-51.40691222 569.23778846 -49.18662484 569.86521654 -46.96875 570.515625 C-43.45168521 571.50058304 -39.9353679 572.16600397 -36.34375 572.80859375 C-33.9140625 573.37109375 -33.9140625 573.37109375 -31.65527344 574.35522461 C-28.59197931 575.490455 -25.87356444 575.86187227 -22.625 576.1875 C-20.84222656 576.3740918 -20.84222656 576.3740918 -19.0234375 576.56445312 C-17.79109375 576.68626953 -16.55875 576.80808594 -15.2890625 576.93359375 C-12.83824515 577.1819874 -10.38770717 577.43315784 -7.9375 577.6875 C-6.85388184 577.79521729 -5.77026367 577.90293457 -4.65380859 578.01391602 C-1.9140625 578.37109375 -1.9140625 578.37109375 1.0859375 579.37109375 C3.9352447 579.49284325 6.75921065 579.55889434 9.609375 579.57421875 C10.88411179 579.58453629 10.88411179 579.58453629 12.18460083 579.59506226 C14.94342279 579.61230509 17.70206437 579.61852841 20.4609375 579.62109375 C21.39333252 579.6227655 22.32572754 579.62443726 23.28637695 579.62615967 C37.48398978 579.62769342 51.26448294 579.10816348 65.1484375 575.89355469 C69.51573665 574.88282558 73.84951588 574.0910603 78.2890625 573.45703125 C85.26663921 572.41587452 92.01732891 570.78761945 98.8359375 568.99609375 C99.98964844 568.70476563 101.14335937 568.4134375 102.33203125 568.11328125 C108.20095582 566.5874947 113.71549502 564.89215354 119.18017578 562.24682617 C121.15889347 561.33756914 123.12643834 560.68269685 125.2109375 560.05859375 C132.11572865 557.81217197 138.58680278 554.57423872 145.0859375 551.37109375 C145.94058594 550.95182617 146.79523438 550.53255859 147.67578125 550.10058594 C174.62804727 536.76781605 200.69500938 519.600159 221.6484375 497.80859375 C223.0859375 496.37109375 223.0859375 496.37109375 226.0859375 493.93359375 C229.8493669 490.7189978 232.8966923 487.14411215 236.0859375 483.37109375 C236.88902344 482.45585937 237.69210937 481.540625 238.51953125 480.59765625 C250.18413457 467.22661661 260.35631276 452.81173587 269.0859375 437.37109375 C269.50504395 436.63294434 269.92415039 435.89479492 270.35595703 435.13427734 C279.31414497 419.31001229 286.94289164 403.85929473 292.1875 386.36328125 C293.64806916 381.49895092 295.17560645 376.65793344 297.0546875 371.9375 C299.79631175 364.94843515 301.2262803 358.04897537 302.47265625 350.6796875 C303.0859375 347.37109375 303.0859375 347.37109375 304.0859375 345.37109375 C307.426004 328.02497311 307.41122889 310.14590133 307.4609375 292.55859375 C307.46852081 291.53426239 307.47610413 290.50993103 307.48391724 289.45455933 C307.62029391 266.66736028 306.21597654 241.8142485 297.80859375 220.36010742 C296.37308173 216.40905457 295.54546256 212.29059084 294.625 208.1953125 C293.6083602 203.887093 292.12508943 200.28450662 290.0859375 196.37109375 C289.25696397 193.72015166 288.69457058 191.08653363 288.0859375 188.37109375 C287.4259375 188.37109375 286.7659375 188.37109375 286.0859375 188.37109375 C285.9209375 187.21609375 285.7559375 186.06109375 285.5859375 184.87109375 C283.87451909 177.15150433 279.74841246 170.3076254 276.0859375 163.37109375 C275.22935547 161.70820313 275.22935547 161.70820313 274.35546875 160.01171875 C263.70041472 139.66334954 250.33543006 121.49254492 235.0859375 104.37109375 C234.59625488 103.81824707 234.10657227 103.26540039 233.60205078 102.69580078 C214.91282077 81.68967315 192.84289732 63.93164006 168.6484375 49.62109375 C167.92027832 49.19038574 167.19211914 48.75967773 166.44189453 48.31591797 C162.98996795 46.12900532 162.98996795 46.12900532 159.0859375 45.37109375 C159.0859375 44.71109375 159.0859375 44.05109375 159.0859375 43.37109375 C157.9515625 42.84 156.8171875 42.30890625 155.6484375 41.76171875 C154.12757944 41.04822978 152.60674751 40.33468513 151.0859375 39.62109375 C149.97025391 39.09902344 149.97025391 39.09902344 148.83203125 38.56640625 C145.18686891 36.8547648 141.57076445 35.11273062 137.9921875 33.265625 C134.26793985 31.39151721 130.56028777 30.07353927 126.5859375 28.80859375 C122.54386243 27.50978286 118.52928674 26.19997382 114.5859375 24.62109375 C110.97204423 23.33041758 107.88129039 22.76644301 104.0859375 22.37109375 C104.0859375 21.71109375 104.0859375 21.05109375 104.0859375 20.37109375 C102.879375 20.10554688 101.6728125 19.84 100.4296875 19.56640625 C98.81509141 19.20969316 97.20050879 18.85291907 95.5859375 18.49609375 C94.79445313 18.32207031 94.00296875 18.14804687 93.1875 17.96875 C89.48674888 17.14973131 85.80495659 16.30552612 82.140625 15.3359375 C77.3840892 14.13199122 72.56739897 13.47371782 67.7109375 12.80859375 C66.82921875 12.68291016 65.9475 12.55722656 65.0390625 12.42773438 C55.44573652 11.08438741 45.98796091 10.21068276 36.296875 10.1328125 C34.78164749 10.11839363 34.78164749 10.11839363 33.23580933 10.10368347 C29.97748404 10.07905803 26.71934493 10.06643077 23.4609375 10.05859375 C22.35165894 10.05531067 21.24238037 10.05202759 20.0994873 10.04864502 C-10.83974759 9.91245207 -10.83974759 9.91245207 -40.9140625 16.37109375 Z " fill="#FAFCFD" transform="translate(286.9140625,14.62890625)"/>
<path d="M0 0 C0.70938721 0.00161133 1.41877441 0.00322266 2.1496582 0.00488281 C8.00301935 0.14139655 12.34313594 1.24249304 17.25 4.375 C18.136875 4.91125 19.02375 5.4475 19.9375 6 C28.45922201 14.75203882 30.68435441 25.0103926 30.68823242 36.78662109 C30.46548149 45.82422486 27.37763954 54.77050607 21.7734375 61.9453125 C13.99185055 69.24803256 4.79126801 69.90625251 -5.34375 69.7109375 C-10.63331014 69.4438103 -13.9989929 68.16269176 -17.75 64.375 C-18.68005859 63.46814453 -18.68005859 63.46814453 -19.62890625 62.54296875 C-28.49878055 53.15460493 -30.15569955 44.18791202 -29.9609375 31.6484375 C-29.64243924 22.64791261 -26.60283853 15.23830617 -20.75 8.375 C-14.39533137 2.55611716 -8.6860489 -0.02041615 0 0 Z " fill="#239ACE" transform="translate(269.75,271.625)"/>
<path d="M0 0 C31.16727941 0 31.16727941 0 40.8984375 9.453125 C44.0616582 13.28661923 45.69365212 17.24292186 47 22 C47.28617188 22.95712891 47.28617188 22.95712891 47.578125 23.93359375 C49.90482905 35.33013487 47.06932607 46.31836726 41 56 C35.90021752 62.41315112 28.65956875 64.79300561 21 67 C14.07 67 7.14 67 0 67 C0 44.89 0 22.78 0 0 Z " fill="#239ACE" transform="translate(160,273)"/>
<path d="M0 0 C3.63 0 7.26 0 11 0 C13.81693325 5.40267111 16.11383634 10.73279595 18.0625 16.5 C18.55258564 17.92735819 19.0434686 19.35444287 19.53515625 20.78125 C19.77580811 21.47976074 20.01645996 22.17827148 20.2644043 22.89794922 C22.16166807 28.3196024 24.22973331 33.62453409 26.5625 38.875 C29.62044264 45.95129441 32.41797496 53.1188892 35.1875 60.3125 C35.61554932 61.42157715 36.04359863 62.5306543 36.48461914 63.67333984 C43 80.68253126 43 80.68253126 43 85 C39.37 85 35.74 85 32 85 C30.66278583 81.3763884 29.33006834 77.75123363 28 74.125 C27.6184375 73.09246094 27.236875 72.05992187 26.84375 70.99609375 C26.30234375 69.51689453 26.30234375 69.51689453 25.75 68.0078125 C25.41484375 67.09660645 25.0796875 66.18540039 24.734375 65.24658203 C24 63 24 63 24 61 C11.79 61 -0.42 61 -13 61 C-13.99 65.95 -13.99 65.95 -15 71 C-16.03515625 74.0234375 -16.03515625 74.0234375 -17.0625 76.375 C-18.33230433 79.31711267 -19.21333234 81.85332938 -20 85 C-23.96 85 -27.92 85 -32 85 C-28.9855772 74.28205227 -25.30332102 63.68098498 -20.5 53.625 C-17.98331343 48.26301492 -16.19677881 42.74299255 -14.37329102 37.11914062 C-10.24878531 24.49775972 -5.17129925 12.22307094 0 0 Z " fill="#F7FBFD" transform="translate(93,264)"/>
<path d="M0 0 C3.3 0 6.6 0 10 0 C10 28.71 10 57.42 10 87 C5.38 87 0.76 87 -4 87 C-4.55816406 85.83984375 -5.11632812 84.6796875 -5.69140625 83.484375 C-7.83375877 79.20530526 -10.29989165 75.23748572 -12.9375 71.25 C-13.41276123 70.52321045 -13.88802246 69.7964209 -14.37768555 69.04760742 C-15.39368323 67.49402913 -16.41138451 65.9415638 -17.43066406 64.39013672 C-20.06919738 60.37158644 -22.69108408 56.3422298 -25.3125 52.3125 C-25.84520508 51.49434814 -26.37791016 50.67619629 -26.92675781 49.83325195 C-32.91903738 40.61429184 -38.80983398 31.33087614 -44.6940918 22.04272461 C-45.77670361 20.34928414 -46.88509553 18.67235671 -48 17 C-48.33 39.77 -48.66 62.54 -49 86 C-52.3 86 -55.6 86 -59 86 C-59 57.95 -59 29.9 -59 1 C-54.71 1 -50.42 1 -46 1 C-42.8261631 4.44280613 -41.15738855 6.96406904 -39 11 C-37.86145457 12.86836903 -36.69159765 14.71473191 -35.51879883 16.56176758 C-34.21947646 18.61063169 -32.94058166 20.67123886 -31.6640625 22.734375 C-29.03626917 26.96127436 -26.33905571 31.14062535 -23.625 35.3125 C-15.94819401 47.12297076 -8.46551193 59.05518091 -1 71 C-0.67 47.57 -0.34 24.14 0 0 Z " fill="#F6F9FB" transform="translate(413,263)"/>
<path d="M0 0 C44.64705882 0 44.64705882 0 57 10 C57.87398437 10.70189453 57.87398437 10.70189453 58.765625 11.41796875 C64.08887888 16.12614078 66.01249905 21.28951292 68 28 C68.495 29.485 68.495 29.485 69 31 C69.25583527 34.34950383 69.2314076 37.70424791 69.25 41.0625 C69.270625 41.96677734 69.29125 42.87105469 69.3125 43.80273438 C69.37759794 55.18673674 65.92828571 65.58075895 58.11328125 74.04296875 C41.76759606 89.10412072 21.71566862 87 0 87 C0 58.29 0 29.58 0 0 Z M11 10 C11 32.11 11 54.22 11 77 C32.49873048 77.71983102 32.49873048 77.71983102 50.50390625 67.93359375 C57.97918011 58.27233902 59.84063693 47.91903069 59 36 C57.29116178 27.02859933 53.36426489 20.35405668 46.28515625 14.546875 C35.91914611 7.52988352 22.94273466 10 11 10 Z " fill="#F2F8FB" transform="translate(149,263)"/>
<path d="M0 0 C4.95886373 4.60072357 8.48401171 9.72791544 11 16 C11.35578125 16.82113281 11.7115625 17.64226562 12.078125 18.48828125 C15.50851057 31.5557246 14.75282509 48.18701047 8 60 C7.54238281 60.84433594 7.08476562 61.68867188 6.61328125 62.55859375 C1.1074053 71.74511007 -7.70458068 77.33249885 -18 80 C-30.03215361 81.55833966 -41.20503785 80.26082717 -51.3125 73.1875 C-59.81690394 66.19306166 -63.53694684 58.38915947 -67 48 C-68.27723151 31.91334995 -68.52844476 17.39847625 -57.75 4.5625 C-41.86907348 -11.71544968 -18.14003155 -14.16146635 0 0 Z M-50.53125 11.81640625 C-57.30191949 21.88237498 -58.09148344 33.18362863 -57 45 C-56.11811169 48.65549557 -54.83903702 51.73060085 -53 55 C-52.4225 56.051875 -51.845 57.10375 -51.25 58.1875 C-47.29523971 63.13095036 -41.77637644 69.44235836 -35.14306641 70.21679688 C-24.54058329 70.80302073 -15.74885934 70.70361218 -7.25 63.75 C2.08431131 52.34139729 4.21216983 41.46306204 3 27 C1.66099292 18.41919632 -2.4934496 10.36391646 -9.5 5.0625 C-22.66034597 -3.93685423 -40.97023263 -0.11231589 -50.53125 11.81640625 Z " fill="#F7FAFC" transform="translate(297,271)"/>
<path d="M0 0 C14.19 0 28.38 0 43 0 C43 2.97 43 5.94 43 9 C32.11 9 21.22 9 10 9 C10 18.24 10 27.48 10 37 C20.23 37 30.46 37 41 37 C41 39.97 41 42.94 41 46 C30.77 46 20.54 46 10 46 C10 55.9 10 65.8 10 76 C21.88 76 33.76 76 46 76 C46 78.97 46 81.94 46 85 C30.82 85 15.64 85 0 85 C0 56.95 0 28.9 0 0 Z " fill="#F9FBFC" transform="translate(445,264)"/>
<path d="M0 0 C19.47 0 38.94 0 59 0 C59 2.97 59 5.94 59 9 C51.08 9 43.16 9 35 9 C35 34.41 35 59.82 35 86 C31.7 86 28.4 86 25 86 C25 60.59 25 35.18 25 9 C16.75 9 8.5 9 0 9 C0 6.03 0 3.06 0 0 Z " fill="#F7FAFC" transform="translate(498,264)"/>
<path d="M0 0 C2.6103501 3.14167702 4.0009261 6.19293921 5.41015625 10.015625 C5.84263672 11.18480469 6.27511719 12.35398437 6.72070312 13.55859375 C7.16349609 14.77675781 7.60628906 15.99492187 8.0625 17.25 C8.50916016 18.45269531 8.95582031 19.65539062 9.41601562 20.89453125 C11.63642874 26.94175502 13.42815073 32.71260291 15 39 C5.76 39 -3.48 39 -13 39 C-11.87488516 31.12419611 -11.87488516 31.12419611 -10.6953125 27.87890625 C-10.44136719 27.17056641 -10.18742187 26.46222656 -9.92578125 25.73242188 C-9.66152344 25.01634766 -9.39726563 24.30027344 -9.125 23.5625 C-8.86847656 22.85029297 -8.61195312 22.13808594 -8.34765625 21.40429688 C-7.57464438 19.26588966 -6.78985429 17.13223922 -6 15 C-5.73437256 14.28183105 -5.46874512 13.56366211 -5.19506836 12.82373047 C-3.58101416 8.48712078 -1.85381202 4.23728461 0 0 Z " fill="#289CCF" transform="translate(98,277)"/>
<path d="M0 0 C2.375 1.625 2.375 1.625 4 4 C4.61195145 7.6717087 4.48706506 9.28813568 2.375 12.375 C-0.69371124 14.47464453 -2.35392711 14.62060815 -6 14 C-8.83268842 11.63942631 -8.98743809 10.11933812 -9.375 6.4375 C-9 3 -9 3 -7.875 1.0625 C-5.06487736 -0.52990283 -3.17235276 -0.45319325 0 0 Z " fill="#F1F8FB" transform="translate(332,337)"/>
<path d="M0 0 C7.29411944 0.03376907 11.75779291 1.92308773 17 7 C21.09606148 11.89529299 21.09606148 11.89529299 20.75 15.875 C20.5025 16.57625 20.255 17.2775 20 18 C20.66 18 21.32 18 22 18 C22 18.99 22 19.98 22 21 C18.54883098 19.5155686 16.31140759 17.55666933 13.671875 14.90234375 C12.87265625 14.10119141 12.0734375 13.30003906 11.25 12.47460938 C10.425 11.63736328 9.6 10.80011719 8.75 9.9375 C7.90953125 9.09638672 7.0690625 8.25527344 6.203125 7.38867188 C0 1.14023184 0 1.14023184 0 0 Z " fill="#2088B5" transform="translate(275,273)"/>
</svg>
