<?xml version="1.0" encoding="UTF-8"?>
<svg version="1.1" xmlns="http://www.w3.org/2000/svg" width="512" height="512">
<path d="M0 0 C4.24652551 1.87158046 8.19819634 4.13606804 12.1875 6.5 C13.29287109 7.1391333 14.39824219 7.7782666 15.53710938 8.43676758 C18.70181731 10.27407705 21.8518251 12.13455061 25 14 C26.49564993 14.86925367 27.99167361 15.73786502 29.48828125 16.60546875 C37.84652498 21.53957495 37.84652498 21.53957495 39 25 C39.09534919 26.3750717 39.13804066 27.75421374 39.14526367 29.13256836 C39.15483345 30.37416969 39.15483345 30.37416969 39.16459656 31.64085388 C39.16626579 32.97685387 39.16626579 32.97685387 39.16796875 34.33984375 C39.17129715 35.2583461 39.17462555 36.17684845 39.17805481 37.1231842 C39.18311728 39.06576029 39.18546334 41.00834506 39.18530273 42.95092773 C39.18748897 45.92250898 39.20565116 48.89371883 39.22460938 51.86523438 C39.22754348 53.7526029 39.22952816 55.63997318 39.23046875 57.52734375 C39.23765427 58.41598618 39.24483978 59.3046286 39.25224304 60.22019958 C39.24916641 61.05108597 39.24608978 61.88197235 39.24291992 62.73803711 C39.24434494 63.46623154 39.24576996 64.19442596 39.24723816 64.94468689 C38.95577002 67.36768778 38.28639747 68.93173203 37 71 C34.40551758 72.76757813 34.40551758 72.76757813 31.14453125 74.53125 C30.56466965 74.84904419 29.98480804 75.16683838 29.38737488 75.4942627 C27.53460071 76.506729 25.67395189 77.50359418 23.8125 78.5 C22.57951364 79.16953443 21.34708526 79.84009749 20.11523438 80.51171875 C19.516772 80.83654236 18.91830963 81.16136597 18.30171204 81.49603271 C16.55347871 82.45022142 14.81313907 83.41882739 13.07299805 84.38769531 C10 86 10 86 7.60864258 86.82324219 C5.37018933 87.49367187 5.37018933 87.49367187 3 90 C1.99160545 95.08463715 2.01937827 100.0942945 2.0625 105.25 C2.04938789 106.67711591 2.03314643 108.10420673 2.01367188 109.53125 C1.97286089 113.02127461 1.9749792 116.50975607 2 120 C2.96784424 119.98259766 3.93568848 119.96519531 4.93286133 119.94726562 C6.1989624 119.93373047 7.46506348 119.92019531 8.76953125 119.90625 C10.65442261 119.88014648 10.65442261 119.88014648 12.57739258 119.85351562 C16.95008872 120.0406629 19.01265311 120.77043579 22 124 C25.85790786 131.71581571 28 141.40558312 28 150 C31.33893199 152.19040501 33.98800593 153.0702216 38 153 C43.57921301 150.56353276 48.50761426 146.78903242 53.37109375 143.17089844 C56.93044729 140.61234635 60.02510066 140.5 64.328125 140.5 C68.38199663 141.25861925 70.46153344 143.52045288 73.2109375 146.46875 C75.11400278 148.43349652 75.11400278 148.43349652 79 148 C82.45465069 145.58671467 85.36282927 142.56268119 88.375 139.625 C89.23222656 138.85027344 90.08945312 138.07554687 90.97265625 137.27734375 C95.40005987 133.14828421 95.40005987 133.14828421 97.21826172 127.61523438 C96.71916516 124.94692528 95.92677261 122.55129047 95 120 C94.41524084 117.92445562 93.84016486 115.84616528 93.2734375 113.765625 C92.32295269 110.48249206 91.36110015 107.20306043 90.390625 103.92578125 C90.08382813 102.86230469 89.77703125 101.79882812 89.4609375 100.703125 C89.18040527 99.75083008 88.89987305 98.79853516 88.61083984 97.81738281 C87.7810561 93.99016282 87.07058816 90.58036255 89.12695312 87.08374023 C89.67287109 86.51856689 90.21878906 85.95339355 90.78125 85.37109375 C91.42191406 84.6941748 92.06257813 84.01725586 92.72265625 83.31982422 C93.47417969 82.55428223 94.22570312 81.78874023 95 81 C95.86496094 80.0836377 96.72992188 79.16727539 97.62109375 78.22314453 C100.0418829 75.66133598 102.49767764 73.13658378 104.97021484 70.62475586 C105.99635485 69.57683536 107.01617071 68.52268726 108.02978516 67.46264648 C109.51588134 65.90952092 111.02086783 64.37713033 112.53125 62.84765625 C113.41361328 61.94023682 114.29597656 61.03281738 115.20507812 60.09790039 C118.6868081 57.48447397 120.65580001 57.07434991 125 57 C128.08692566 57.47730581 131.03912396 58.27136188 134.0390625 59.1328125 C135.30488663 59.48338211 135.30488663 59.48338211 136.59628296 59.84103394 C138.37146057 60.33702404 140.1446951 60.84001607 141.91601562 61.34960938 C144.61790087 62.12296802 147.32736813 62.86343909 150.0390625 63.6015625 C151.76878289 64.08918589 153.49796989 64.57870618 155.2265625 65.0703125 C156.43452988 65.3972258 156.43452988 65.3972258 157.66690063 65.73074341 C162.63707924 67.19377282 165.80354328 68.70978773 169 73 C170.27055739 75.85372713 171.11464142 78.76178557 171.9296875 81.7734375 C172.16914093 82.6154068 172.40859436 83.4573761 172.65530396 84.32485962 C173.15556404 86.09940547 173.64759629 87.87628915 174.13183594 89.65527344 C174.87244946 92.36566589 175.64504902 95.06541722 176.421875 97.765625 C176.90558599 99.49685492 177.38742008 101.22861057 177.8671875 102.9609375 C178.21231888 104.16283218 178.21231888 104.16283218 178.56442261 105.38900757 C179.8592023 110.23505891 180.50615359 114.07621457 179 119 C177.14435275 121.62192096 174.94675982 123.77789301 172.62890625 125.9921875 C171.99137924 126.6235965 171.35385223 127.25500549 170.69700623 127.9055481 C168.6658447 129.90986019 166.61450719 131.89205884 164.5625 133.875 C163.18553246 135.23043472 161.80986605 136.58719259 160.43554688 137.9453125 C150.42656924 147.78671538 150.42656924 147.78671538 148 149 C139.0690544 148.56618427 130.7225528 145.80400712 122.19750977 143.28759766 C120.27340958 142.72251056 118.34572531 142.16967243 116.41796875 141.6171875 C115.28125732 141.28315918 114.1445459 140.94913086 112.97338867 140.60498047 C110.01323246 140.00269234 108.71119402 139.76248882 106 141 C103.80842133 142.77855313 103.80842133 142.77855313 101.671875 145.03515625 C100.87265625 145.84404297 100.0734375 146.65292969 99.25 147.48632812 C98.425 148.33646484 97.6 149.18660156 96.75 150.0625 C95.48929687 151.34350586 95.48929687 151.34350586 94.203125 152.65039062 C92.12852403 154.76035412 90.06124168 156.87699708 88 159 C89.40649208 161.95325426 90.76879142 163.85985262 93.125 166.125 C96.33790495 169.84569913 96.58309973 172.50790615 96.44042969 177.31201172 C95.66439802 182.04821388 93.22163835 185.58543201 90.5625 189.5 C90.04623047 190.29664063 89.52996094 191.09328125 88.99804688 191.9140625 C88.05027346 193.3759875 87.09308895 194.83188846 86.12329102 196.27929688 C84.94944191 198.00574231 84.94944191 198.00574231 84 200 C84.54216107 202.234972 84.54216107 202.234972 85.4375 204.625 C85.86869141 205.85089844 85.86869141 205.85089844 86.30859375 207.1015625 C86.53675781 207.72804687 86.76492188 208.35453125 87 209 C88.15113281 209.12890625 89.30226563 209.2578125 90.48828125 209.390625 C94.78989357 209.9324709 98.97100389 210.74933872 103.1875 211.75 C103.87263672 211.894375 104.55777344 212.03875 105.26367188 212.1875 C110.16805453 213.35813224 112.78701506 215.15167905 116 219 C117.50156874 222.00313748 117.09281204 224.79067522 117.0625 228.125 C117.05347656 229.40632812 117.04445313 230.68765625 117.03515625 232.0078125 C117.01775391 233.48894531 117.01775391 233.48894531 117 235 C126.89893588 236.45873967 137.49862337 237.7270176 147 234 C154.44812737 227.85519148 158.1471551 217.07362334 161.55322266 208.32739258 C163.05466668 204.87427402 164.71483111 201.99147868 167 199 C169.72250853 198.09249716 171.33188093 197.86941281 174.13256836 197.85473633 C174.96030258 197.84835648 175.7880368 197.84197662 176.64085388 197.83540344 C177.53152054 197.83429062 178.42218719 197.8331778 179.33984375 197.83203125 C180.2583461 197.82870285 181.17684845 197.82537445 182.1231842 197.82194519 C184.06576029 197.81688272 186.00834506 197.81453666 187.95092773 197.81469727 C190.92250898 197.81251103 193.89371883 197.79434884 196.86523438 197.77539062 C198.7526029 197.77245652 200.63997318 197.77047184 202.52734375 197.76953125 C203.86030739 197.75875298 203.86030739 197.75875298 205.22019958 197.74775696 C206.05108597 197.75083359 206.88197235 197.75391022 207.73803711 197.75708008 C208.46623154 197.75565506 209.19442596 197.75423004 209.94468689 197.75276184 C212.36037608 198.04335044 213.93342816 198.72705951 216 200 C217.62817383 202.33154297 217.62817383 202.33154297 219.20703125 205.2421875 C219.79419922 206.30953125 220.38136719 207.376875 220.98632812 208.4765625 C221.58896484 209.59804687 222.19160156 210.71953125 222.8125 211.875 C224.00541541 214.06049388 225.19942412 216.24539136 226.39453125 218.4296875 C227.2755249 220.06309082 227.2755249 220.06309082 228.17431641 221.72949219 C229.99876686 224.99779096 231.96603009 228.14661164 233.94921875 231.3203125 C238.09799833 238.52397933 238.09799833 238.52397933 237.6484375 242.88134766 C236.07219223 248.03144421 233.23007133 252.58031006 230.5 257.1875 C229.8608667 258.29287109 229.2217334 259.39824219 228.56323242 260.53710938 C226.72592295 263.70181731 224.86544939 266.8518251 223 270 C222.13074633 271.49564993 221.26213498 272.99167361 220.39453125 274.48828125 C215.46042505 282.84652498 215.46042505 282.84652498 212 284 C210.6249283 284.09534919 209.24578626 284.13804066 207.86743164 284.14526367 C206.62583031 284.15483345 206.62583031 284.15483345 205.35914612 284.16459656 C204.46847946 284.16570938 203.57781281 284.1668222 202.66015625 284.16796875 C201.7416539 284.17129715 200.82315155 284.17462555 199.8768158 284.17805481 C197.93423971 284.18311728 195.99165494 284.18546334 194.04907227 284.18530273 C191.07749102 284.18748897 188.10628117 284.20565116 185.13476562 284.22460938 C183.2473971 284.22754348 181.36002682 284.22952816 179.47265625 284.23046875 C178.13969261 284.24124702 178.13969261 284.24124702 176.77980042 284.25224304 C175.94891403 284.24916641 175.11802765 284.24608978 174.26196289 284.24291992 C173.53376846 284.24434494 172.80557404 284.24576996 172.05531311 284.24723816 C169.63231222 283.95577002 168.06826797 283.28639747 166 282 C164.23242188 279.40551758 164.23242188 279.40551758 162.46875 276.14453125 C162.15095581 275.56466965 161.83316162 274.98480804 161.5057373 274.38737488 C160.493271 272.53460071 159.49640582 270.67395189 158.5 268.8125 C157.83046557 267.57951364 157.15990251 266.34708526 156.48828125 265.11523438 C156.16345764 264.516772 155.83863403 263.91830963 155.50396729 263.30171204 C154.54977858 261.55347871 153.58117261 259.81313907 152.61230469 258.07299805 C151 255 151 255 150.17675781 252.60864258 C149.50632813 250.37018933 149.50632813 250.37018933 147 248 C141.91536285 246.99160545 136.9057055 247.01937827 131.75 247.0625 C130.32288409 247.04938789 128.89579327 247.03314643 127.46875 247.01367188 C123.97872539 246.97286089 120.49024393 246.9749792 117 247 C117.02610352 248.45176636 117.02610352 248.45176636 117.05273438 249.93286133 C117.07303711 251.83201294 117.07303711 251.83201294 117.09375 253.76953125 C117.11115234 255.02612549 117.12855469 256.28271973 117.14648438 257.57739258 C116.9593371 261.95008872 116.22956421 264.01265311 113 267 C105.28418429 270.85790786 95.59441688 273 87 273 C84.80959499 276.33893199 83.9297784 278.98800593 84 283 C86.43646724 288.57921301 90.21096758 293.50761426 93.82910156 298.37109375 C96.38765365 301.93044729 96.5 305.02510066 96.5 309.328125 C95.74138075 313.38199663 93.47954712 315.46153344 90.53125 318.2109375 C88.56650348 320.11400278 88.56650348 320.11400278 89 324 C91.41328533 327.45465069 94.43731881 330.36282927 97.375 333.375 C98.14972656 334.23222656 98.92445313 335.08945312 99.72265625 335.97265625 C103.85171579 340.40005987 103.85171579 340.40005987 109.38476562 342.21826172 C112.05307472 341.71916516 114.44870953 340.92677261 117 340 C119.07554438 339.41524084 121.15383472 338.84016486 123.234375 338.2734375 C126.51750794 337.32295269 129.79693957 336.36110015 133.07421875 335.390625 C134.13769531 335.08382813 135.20117188 334.77703125 136.296875 334.4609375 C137.72531738 334.04013916 137.72531738 334.04013916 139.18261719 333.61083984 C143.00983718 332.7810561 146.41963745 332.07058816 149.91625977 334.12695312 C150.48143311 334.67287109 151.04660645 335.21878906 151.62890625 335.78125 C152.3058252 336.42191406 152.98274414 337.06257813 153.68017578 337.72265625 C154.44571777 338.47417969 155.21125977 339.22570312 156 340 C156.9163623 340.86496094 157.83272461 341.72992188 158.77685547 342.62109375 C161.33866402 345.0418829 163.86341622 347.49767764 166.37524414 349.97021484 C167.42316464 350.99635485 168.47731274 352.01617071 169.53735352 353.02978516 C171.09047908 354.51588134 172.62286967 356.02086783 174.15234375 357.53125 C175.05976318 358.41361328 175.96718262 359.29597656 176.90209961 360.20507812 C179.51552603 363.6868081 179.92565009 365.65580001 180 370 C179.52269419 373.08692566 178.72863812 376.03912396 177.8671875 379.0390625 C177.63347443 379.88294525 177.39976135 380.726828 177.15896606 381.59628296 C176.66297596 383.37146057 176.15998393 385.1446951 175.65039062 386.91601562 C174.87703198 389.61790087 174.13656091 392.32736813 173.3984375 395.0390625 C172.91081411 396.76878289 172.42129382 398.49796989 171.9296875 400.2265625 C171.7117453 401.03187408 171.4938031 401.83718567 171.26925659 402.66690063 C169.80622718 407.63707924 168.29021227 410.80354328 164 414 C161.14627287 415.27055739 158.23821443 416.11464142 155.2265625 416.9296875 C154.3845932 417.16914093 153.5426239 417.40859436 152.67514038 417.65530396 C150.90059453 418.15556404 149.12371085 418.64759629 147.34472656 419.13183594 C144.63433411 419.87244946 141.93458278 420.64504902 139.234375 421.421875 C137.50314508 421.90558599 135.77138943 422.38742008 134.0390625 422.8671875 C133.23779938 423.09727509 132.43653625 423.32736267 131.61099243 423.56442261 C126.76494109 424.8592023 122.92378543 425.50615359 118 424 C115.37807904 422.14435275 113.22210699 419.94675982 111.0078125 417.62890625 C110.3764035 416.99137924 109.74499451 416.35385223 109.0944519 415.69700623 C107.09013981 413.6658447 105.10794116 411.61450719 103.125 409.5625 C101.76956528 408.18553246 100.41280741 406.80986605 99.0546875 405.43554688 C89.21328462 395.42656924 89.21328462 395.42656924 88 393 C88.43381573 384.0690544 91.19599288 375.7225528 93.71240234 367.19750977 C94.27748944 365.27340958 94.83032757 363.34572531 95.3828125 361.41796875 C95.71684082 360.28125732 96.05086914 359.1445459 96.39501953 357.97338867 C96.99730766 355.01323246 97.23751118 353.71119402 96 351 C94.22144687 348.80842133 94.22144687 348.80842133 91.96484375 346.671875 C91.15595703 345.87265625 90.34707031 345.0734375 89.51367188 344.25 C88.66353516 343.425 87.81339844 342.6 86.9375 341.75 C85.65649414 340.48929687 85.65649414 340.48929687 84.34960938 339.203125 C82.23964588 337.12852403 80.12300292 335.06124168 78 333 C75.04674574 334.40649208 73.14014738 335.76879142 70.875 338.125 C67.15430087 341.33790495 64.49209385 341.58309973 59.68798828 341.44042969 C54.95178612 340.66439802 51.41456799 338.22163835 47.5 335.5625 C46.70335937 335.04623047 45.90671875 334.52996094 45.0859375 333.99804688 C43.6240125 333.05027346 42.16811154 332.09308895 40.72070312 331.12329102 C38.99425769 329.94944191 38.99425769 329.94944191 37 329 C34.765028 329.54216107 34.765028 329.54216107 32.375 330.4375 C31.14910156 330.86869141 31.14910156 330.86869141 29.8984375 331.30859375 C28.95871094 331.65083984 28.95871094 331.65083984 28 332 C27.9175 333.175625 27.835 334.35125 27.75 335.5625 C27.23798827 340.0354914 26.32867744 344.38349236 25.25 348.75 C24.94578125 350.00296875 24.6415625 351.2559375 24.328125 352.546875 C22.6377739 356.94178787 20.25335406 359.87332297 16 362 C13.62597499 362.07116382 11.24999323 362.08409085 8.875 362.0625 C7.59367188 362.05347656 6.31234375 362.04445313 4.9921875 362.03515625 C3.51105469 362.01775391 3.51105469 362.01775391 2 362 C0.54126033 371.89893588 -0.7270176 382.49862337 3 392 C9.14480852 399.44812737 19.92637666 403.1471551 28.67260742 406.55322266 C32.12572598 408.05466668 35.00852132 409.71483111 38 412 C38.90653701 414.71961104 39.1442617 416.40334946 39.19287109 419.20849609 C39.20893402 420.05302338 39.22499695 420.89755066 39.24154663 421.76766968 C39.28612179 425.61951759 39.32704271 429.47119669 39.35009766 433.32324219 C39.36667095 435.35428311 39.39397897 437.38526539 39.43212891 439.41601562 C39.48690051 442.34796321 39.50876974 445.27854723 39.5234375 448.2109375 C39.54610687 449.11629242 39.56877625 450.02164734 39.59213257 450.95443726 C39.57744465 455.33927318 39.49177459 457.35263602 36.7722168 460.93261719 C34.26976811 462.79882022 31.87937763 464.41248915 29.12109375 465.8671875 C28.20505371 466.35727295 27.28901367 466.8473584 26.34521484 467.35229492 C24.905896 468.10603394 24.905896 468.10603394 23.4375 468.875 C21.45885691 469.92953015 19.48098594 470.98551038 17.50390625 472.04296875 C16.55531738 472.54876465 15.60672852 473.05456055 14.62939453 473.57568359 C10.42224591 475.85465342 6.32721455 478.30195077 2.2421875 480.79296875 C-1.56801055 482.84410324 -1.56801055 482.84410324 -4 483 C-10.58223108 480.71497678 -16.64342658 477.06912013 -22.75 473.75 C-23.7709375 473.20214844 -24.791875 472.65429688 -25.84375 472.08984375 C-45.52499839 461.42500484 -45.52499839 461.42500484 -47 457 C-47.09534919 455.6249283 -47.13804066 454.24578626 -47.14526367 452.86743164 C-47.15164352 452.03969742 -47.15802338 451.2119632 -47.16459656 450.35914612 C-47.16626579 449.02314613 -47.16626579 449.02314613 -47.16796875 447.66015625 C-47.17129715 446.7416539 -47.17462555 445.82315155 -47.17805481 444.8768158 C-47.18311728 442.93423971 -47.18546334 440.99165494 -47.18530273 439.04907227 C-47.18748897 436.07749102 -47.20565116 433.10628117 -47.22460938 430.13476562 C-47.22754348 428.2473971 -47.22952816 426.36002682 -47.23046875 424.47265625 C-47.23765427 423.58401382 -47.24483978 422.6953714 -47.25224304 421.77980042 C-47.24916641 420.94891403 -47.24608978 420.11802765 -47.24291992 419.26196289 C-47.24434494 418.53376846 -47.24576996 417.80557404 -47.24723816 417.05531311 C-46.95577002 414.63231222 -46.28639747 413.06826797 -45 411 C-42.40551758 409.23242188 -42.40551758 409.23242188 -39.14453125 407.46875 C-38.27473885 406.99205872 -38.27473885 406.99205872 -37.38737488 406.5057373 C-35.53460071 405.493271 -33.67395189 404.49640582 -31.8125 403.5 C-30.57951364 402.83046557 -29.34708526 402.15990251 -28.11523438 401.48828125 C-27.516772 401.16345764 -26.91830963 400.83863403 -26.30171204 400.50396729 C-24.55347871 399.54977858 -22.81313907 398.58117261 -21.07299805 397.61230469 C-18 396 -18 396 -15.60864258 395.17675781 C-13.37018933 394.50632813 -13.37018933 394.50632813 -11 392 C-9.99160545 386.91536285 -10.01937827 381.9057055 -10.0625 376.75 C-10.04938789 375.32288409 -10.03314643 373.89579327 -10.01367188 372.46875 C-9.97286089 368.97872539 -9.9749792 365.49024393 -10 362 C-10.96784424 362.01740234 -11.93568848 362.03480469 -12.93286133 362.05273438 C-14.83201294 362.07303711 -14.83201294 362.07303711 -16.76953125 362.09375 C-18.65442261 362.11985352 -18.65442261 362.11985352 -20.57739258 362.14648438 C-24.95008872 361.9593371 -27.01265311 361.22956421 -30 358 C-33.85790786 350.28418429 -36 340.59441688 -36 332 C-39.33893199 329.80959499 -41.98800593 328.9297784 -46 329 C-51.57921301 331.43646724 -56.50761426 335.21096758 -61.37109375 338.82910156 C-64.93044729 341.38765365 -68.02510066 341.5 -72.328125 341.5 C-76.38199663 340.74138075 -78.46153344 338.47954712 -81.2109375 335.53125 C-83.11400278 333.56650348 -83.11400278 333.56650348 -87 334 C-90.45465069 336.41328533 -93.36282927 339.43731881 -96.375 342.375 C-97.23222656 343.14972656 -98.08945313 343.92445313 -98.97265625 344.72265625 C-103.40005987 348.85171579 -103.40005987 348.85171579 -105.21826172 354.38476562 C-104.71916516 357.05307472 -103.92677261 359.44870953 -103 362 C-102.41524084 364.07554438 -101.84016486 366.15383472 -101.2734375 368.234375 C-100.32295269 371.51750794 -99.36110015 374.79693957 -98.390625 378.07421875 C-98.08382812 379.13769531 -97.77703125 380.20117188 -97.4609375 381.296875 C-97.18040527 382.24916992 -96.89987305 383.20146484 -96.61083984 384.18261719 C-95.7810561 388.00983718 -95.07058816 391.41963745 -97.12695312 394.91625977 C-97.94583008 395.76401978 -97.94583008 395.76401978 -98.78125 396.62890625 C-99.42191406 397.3058252 -100.06257812 397.98274414 -100.72265625 398.68017578 C-101.47417969 399.44571777 -102.22570312 400.21125977 -103 401 C-103.86496094 401.9163623 -104.72992188 402.83272461 -105.62109375 403.77685547 C-108.0418829 406.33866402 -110.49767764 408.86341622 -112.97021484 411.37524414 C-113.99635485 412.42316464 -115.01617071 413.47731274 -116.02978516 414.53735352 C-117.51588134 416.09047908 -119.02086783 417.62286967 -120.53125 419.15234375 C-121.41361328 420.05976318 -122.29597656 420.96718262 -123.20507812 421.90209961 C-126.6868081 424.51552603 -128.65580001 424.92565009 -133 425 C-136.08692566 424.52269419 -139.03912396 423.72863812 -142.0390625 422.8671875 C-142.88294525 422.63347443 -143.726828 422.39976135 -144.59628296 422.15896606 C-146.37146057 421.66297596 -148.1446951 421.15998393 -149.91601562 420.65039062 C-152.61790087 419.87703198 -155.32736813 419.13656091 -158.0390625 418.3984375 C-159.76878289 417.91081411 -161.49796989 417.42129382 -163.2265625 416.9296875 C-164.03187408 416.7117453 -164.83718567 416.4938031 -165.66690063 416.26925659 C-170.63707924 414.80622718 -173.80354328 413.29021227 -177 409 C-178.27055739 406.14627287 -179.11464142 403.23821443 -179.9296875 400.2265625 C-180.16914093 399.3845932 -180.40859436 398.5426239 -180.65530396 397.67514038 C-181.15556404 395.90059453 -181.64759629 394.12371085 -182.13183594 392.34472656 C-182.87244946 389.63433411 -183.64504902 386.93458278 -184.421875 384.234375 C-184.90558599 382.50314508 -185.38742008 380.77138943 -185.8671875 379.0390625 C-186.09727509 378.23779938 -186.32736267 377.43653625 -186.56442261 376.61099243 C-187.8592023 371.76494109 -188.50615359 367.92378543 -187 363 C-185.14435275 360.37807904 -182.94675982 358.22210699 -180.62890625 356.0078125 C-179.67261574 355.06069901 -179.67261574 355.06069901 -178.69700623 354.0944519 C-176.6658447 352.09013981 -174.61450719 350.10794116 -172.5625 348.125 C-171.18553246 346.76956528 -169.80986605 345.41280741 -168.43554688 344.0546875 C-158.42656924 334.21328462 -158.42656924 334.21328462 -156 333 C-147.0690544 333.43381573 -138.7225528 336.19599288 -130.19750977 338.71240234 C-128.27340958 339.27748944 -126.34572531 339.83032757 -124.41796875 340.3828125 C-123.28125732 340.71684082 -122.1445459 341.05086914 -120.97338867 341.39501953 C-118.01323246 341.99730766 -116.71119402 342.23751118 -114 341 C-111.80842133 339.22144687 -111.80842133 339.22144687 -109.671875 336.96484375 C-108.47304688 335.75151367 -108.47304688 335.75151367 -107.25 334.51367188 C-106.425 333.66353516 -105.6 332.81339844 -104.75 331.9375 C-103.90953125 331.08349609 -103.0690625 330.22949219 -102.203125 329.34960938 C-100.12852403 327.23964588 -98.06124168 325.12300292 -96 323 C-97.40649208 320.04674574 -98.76879142 318.14014738 -101.125 315.875 C-104.33790495 312.15430087 -104.58309973 309.49209385 -104.44042969 304.68798828 C-103.66439802 299.95178612 -101.22163835 296.41456799 -98.5625 292.5 C-98.04623047 291.70335937 -97.52996094 290.90671875 -96.99804688 290.0859375 C-96.05027346 288.6240125 -95.09308895 287.16811154 -94.12329102 285.72070312 C-92.94944191 283.99425769 -92.94944191 283.99425769 -92 282 C-92.54216107 279.765028 -92.54216107 279.765028 -93.4375 277.375 C-93.72496094 276.55773437 -94.01242188 275.74046875 -94.30859375 274.8984375 C-94.53675781 274.27195312 -94.76492187 273.64546875 -95 273 C-96.175625 272.9175 -97.35125 272.835 -98.5625 272.75 C-103.0354914 272.23798827 -107.38349236 271.32867744 -111.75 270.25 C-113.00296875 269.94578125 -114.2559375 269.6415625 -115.546875 269.328125 C-119.94178787 267.6377739 -122.87332297 265.25335406 -125 261 C-125.07116382 258.62597499 -125.08409085 256.24999323 -125.0625 253.875 C-125.05347656 252.59367188 -125.04445313 251.31234375 -125.03515625 249.9921875 C-125.02355469 249.00476563 -125.01195312 248.01734375 -125 247 C-134.89893588 245.54126033 -145.49862337 244.2729824 -155 248 C-162.44812737 254.14480852 -166.1471551 264.92637666 -169.55322266 273.67260742 C-171.05466668 277.12572598 -172.71483111 280.00852132 -175 283 C-177.72250853 283.90750284 -179.33188093 284.13058719 -182.13256836 284.14526367 C-183.37416969 284.15483345 -183.37416969 284.15483345 -184.64085388 284.16459656 C-185.53152054 284.16570938 -186.42218719 284.1668222 -187.33984375 284.16796875 C-188.2583461 284.17129715 -189.17684845 284.17462555 -190.1231842 284.17805481 C-192.06576029 284.18311728 -194.00834506 284.18546334 -195.95092773 284.18530273 C-198.92250898 284.18748897 -201.89371883 284.20565116 -204.86523438 284.22460938 C-206.7526029 284.22754348 -208.63997318 284.22952816 -210.52734375 284.23046875 C-211.41598618 284.23765427 -212.3046286 284.24483978 -213.22019958 284.25224304 C-214.05108597 284.24916641 -214.88197235 284.24608978 -215.73803711 284.24291992 C-216.46623154 284.24434494 -217.19442596 284.24576996 -217.94468689 284.24723816 C-220.36037608 283.95664956 -221.93342816 283.27294049 -224 282 C-225.62817383 279.66845703 -225.62817383 279.66845703 -227.20703125 276.7578125 C-227.79419922 275.69046875 -228.38136719 274.623125 -228.98632812 273.5234375 C-229.58896484 272.40195312 -230.19160156 271.28046875 -230.8125 270.125 C-232.00541541 267.93950612 -233.19942412 265.75460864 -234.39453125 263.5703125 C-234.98186035 262.48137695 -235.56918945 261.39244141 -236.17431641 260.27050781 C-237.99876686 257.00220904 -239.96603009 253.85338836 -241.94921875 250.6796875 C-246.09799833 243.47602067 -246.09799833 243.47602067 -245.6484375 239.11865234 C-244.07219223 233.96855579 -241.23007133 229.41968994 -238.5 224.8125 C-237.54130005 223.15444336 -237.54130005 223.15444336 -236.56323242 221.46289062 C-234.72592295 218.29818269 -232.86544939 215.1481749 -231 212 C-230.13074633 210.50435007 -229.26213498 209.00832639 -228.39453125 207.51171875 C-223.46042505 199.15347502 -223.46042505 199.15347502 -220 198 C-218.6249283 197.90465081 -217.24578626 197.86195934 -215.86743164 197.85473633 C-215.03969742 197.84835648 -214.2119632 197.84197662 -213.35914612 197.83540344 C-212.46847946 197.83429062 -211.57781281 197.8331778 -210.66015625 197.83203125 C-209.7416539 197.82870285 -208.82315155 197.82537445 -207.8768158 197.82194519 C-205.93423971 197.81688272 -203.99165494 197.81453666 -202.04907227 197.81469727 C-199.07749102 197.81251103 -196.10628117 197.79434884 -193.13476562 197.77539062 C-191.2473971 197.77245652 -189.36002682 197.77047184 -187.47265625 197.76953125 C-186.58401382 197.76234573 -185.6953714 197.75516022 -184.77980042 197.74775696 C-183.94891403 197.75083359 -183.11802765 197.75391022 -182.26196289 197.75708008 C-181.53376846 197.75565506 -180.80557404 197.75423004 -180.05531311 197.75276184 C-177.63231222 198.04422998 -176.06826797 198.71360253 -174 200 C-172.23242188 202.59448242 -172.23242188 202.59448242 -170.46875 205.85546875 C-170.15095581 206.43533035 -169.83316162 207.01519196 -169.5057373 207.61262512 C-168.493271 209.46539929 -167.49640582 211.32604811 -166.5 213.1875 C-165.83046557 214.42048636 -165.15990251 215.65291474 -164.48828125 216.88476562 C-164.16345764 217.483228 -163.83863403 218.08169037 -163.50396729 218.69828796 C-162.54977858 220.44652129 -161.58117261 222.18686093 -160.61230469 223.92700195 C-159 227 -159 227 -158.17675781 229.39135742 C-157.50632813 231.62981067 -157.50632813 231.62981067 -155 234 C-149.91536285 235.00839455 -144.9057055 234.98062173 -139.75 234.9375 C-138.32288409 234.95061211 -136.89579327 234.96685357 -135.46875 234.98632812 C-131.97872539 235.02713911 -128.49024393 235.0250208 -125 235 C-125.01740234 234.03215576 -125.03480469 233.06431152 -125.05273438 232.06713867 C-125.06626953 230.8010376 -125.07980469 229.53493652 -125.09375 228.23046875 C-125.11115234 226.97387451 -125.12855469 225.71728027 -125.14648438 224.42260742 C-124.9593371 220.04991128 -124.22956421 217.98734689 -121 215 C-113.28418429 211.14209214 -103.59441688 209 -95 209 C-92.80959499 205.66106801 -91.9297784 203.01199407 -92 199 C-94.43646724 193.42078699 -98.21096758 188.49238574 -101.82910156 183.62890625 C-104.38765365 180.06955271 -104.5 176.97489934 -104.5 172.671875 C-103.74138075 168.61800337 -101.47954712 166.53846656 -98.53125 163.7890625 C-96.56650348 161.88599722 -96.56650348 161.88599722 -97 158 C-99.41328533 154.54534931 -102.43731881 151.63717073 -105.375 148.625 C-106.14972656 147.76777344 -106.92445313 146.91054687 -107.72265625 146.02734375 C-111.85171579 141.59994013 -111.85171579 141.59994013 -117.38476562 139.78173828 C-120.05307472 140.28083484 -122.44870953 141.07322739 -125 142 C-127.07554438 142.58475916 -129.15383472 143.15983514 -131.234375 143.7265625 C-134.51750794 144.67704731 -137.79693957 145.63889985 -141.07421875 146.609375 C-142.13769531 146.91617188 -143.20117188 147.22296875 -144.296875 147.5390625 C-145.24916992 147.81959473 -146.20146484 148.10012695 -147.18261719 148.38916016 C-151.00983718 149.2189439 -154.41963745 149.92941184 -157.91625977 147.87304688 C-158.48143311 147.32712891 -159.04660645 146.78121094 -159.62890625 146.21875 C-160.3058252 145.57808594 -160.98274414 144.93742188 -161.68017578 144.27734375 C-162.44571777 143.52582031 -163.21125977 142.77429688 -164 142 C-164.9163623 141.13503906 -165.83272461 140.27007812 -166.77685547 139.37890625 C-169.33866402 136.9581171 -171.86341622 134.50232236 -174.37524414 132.02978516 C-175.42316464 131.00364515 -176.47731274 129.98382929 -177.53735352 128.97021484 C-179.09047908 127.48411866 -180.62286967 125.97913217 -182.15234375 124.46875 C-183.05976318 123.58638672 -183.96718262 122.70402344 -184.90209961 121.79492188 C-187.51552603 118.3131919 -187.92565009 116.34419999 -188 112 C-187.52269419 108.91307434 -186.72863812 105.96087604 -185.8671875 102.9609375 C-185.51661789 101.69511337 -185.51661789 101.69511337 -185.15896606 100.40371704 C-184.66297596 98.62853943 -184.15998393 96.8553049 -183.65039062 95.08398438 C-182.87703198 92.38209913 -182.13656091 89.67263187 -181.3984375 86.9609375 C-180.91081411 85.23121711 -180.42129382 83.50203011 -179.9296875 81.7734375 C-179.7117453 80.96812592 -179.4938031 80.16281433 -179.26925659 79.33309937 C-177.80622718 74.36292076 -176.29021227 71.19645672 -172 68 C-169.14627287 66.72944261 -166.23821443 65.88535858 -163.2265625 65.0703125 C-162.3845932 64.83085907 -161.5426239 64.59140564 -160.67514038 64.34469604 C-158.90059453 63.84443596 -157.12371085 63.35240371 -155.34472656 62.86816406 C-152.63433411 62.12755054 -149.93458278 61.35495098 -147.234375 60.578125 C-145.50314508 60.09441401 -143.77138943 59.61257992 -142.0390625 59.1328125 C-141.23779938 58.90272491 -140.43653625 58.67263733 -139.61099243 58.43557739 C-134.76494109 57.1407977 -130.92378543 56.49384641 -126 58 C-123.37807904 59.85564725 -121.22210699 62.05324018 -119.0078125 64.37109375 C-118.06069901 65.32738426 -118.06069901 65.32738426 -117.0944519 66.30299377 C-115.09013981 68.3341553 -113.10794116 70.38549281 -111.125 72.4375 C-109.76956528 73.81446754 -108.41280741 75.19013395 -107.0546875 76.56445312 C-97.21328462 86.57343076 -97.21328462 86.57343076 -96 89 C-96.43381573 97.9309456 -99.19599288 106.2774472 -101.71240234 114.80249023 C-102.27748944 116.72659042 -102.83032757 118.65427469 -103.3828125 120.58203125 C-103.71684082 121.71874268 -104.05086914 122.8554541 -104.39501953 124.02661133 C-104.99730766 126.98676754 -105.23751118 128.28880598 -104 131 C-102.22144687 133.19157867 -102.22144687 133.19157867 -99.96484375 135.328125 C-99.15595703 136.12734375 -98.34707031 136.9265625 -97.51367188 137.75 C-96.66353516 138.575 -95.81339844 139.4 -94.9375 140.25 C-94.08349609 141.09046875 -93.22949219 141.9309375 -92.34960938 142.796875 C-90.23964588 144.87147597 -88.12300292 146.93875832 -86 149 C-83.04674574 147.59350792 -81.14014738 146.23120858 -78.875 143.875 C-75.15430087 140.66209505 -72.49209385 140.41690027 -67.68798828 140.55957031 C-62.95178612 141.33560198 -59.41456799 143.77836165 -55.5 146.4375 C-54.70335937 146.95376953 -53.90671875 147.47003906 -53.0859375 148.00195312 C-51.6240125 148.94972654 -50.16811154 149.90691105 -48.72070312 150.87670898 C-46.99425769 152.05055809 -46.99425769 152.05055809 -45 153 C-42.765028 152.45783893 -42.765028 152.45783893 -40.375 151.5625 C-39.55773437 151.27503906 -38.74046875 150.98757812 -37.8984375 150.69140625 C-37.27195313 150.46324219 -36.64546875 150.23507813 -36 150 C-35.9175 148.824375 -35.835 147.64875 -35.75 146.4375 C-35.23798827 141.9645086 -34.32867744 137.61650764 -33.25 133.25 C-32.94578125 131.99703125 -32.6415625 130.7440625 -32.328125 129.453125 C-30.6377739 125.05821213 -28.25335406 122.12667703 -24 120 C-19.71 120 -15.42 120 -11 120 C-11 109.77 -11 99.54 -11 89 C-13.97 88.01 -13.97 88.01 -17 87 C-18.65744835 86.16573252 -20.29149459 85.28330051 -21.8984375 84.35546875 C-22.79046875 83.84306641 -23.6825 83.33066406 -24.6015625 82.80273438 C-25.51679688 82.26970703 -26.43203125 81.73667969 -27.375 81.1875 C-28.73625 80.40536133 -28.73625 80.40536133 -30.125 79.60742188 C-32.75943498 78.08711754 -35.38122454 76.54709041 -38 75 C-38.79567383 74.53932129 -39.59134766 74.07864258 -40.41113281 73.60400391 C-41.13397461 73.17394043 -41.85681641 72.74387695 -42.6015625 72.30078125 C-43.23658691 71.92735596 -43.87161133 71.55393066 -44.52587891 71.16918945 C-46 70 -46 70 -47 67 C-47.09534919 65.6249283 -47.13804066 64.24578626 -47.14526367 62.86743164 C-47.15164352 62.03969742 -47.15802338 61.2119632 -47.16459656 60.35914612 C-47.16626579 59.02314613 -47.16626579 59.02314613 -47.16796875 57.66015625 C-47.17129715 56.7416539 -47.17462555 55.82315155 -47.17805481 54.8768158 C-47.18311728 52.93423971 -47.18546334 50.99165494 -47.18530273 49.04907227 C-47.18748897 46.07749102 -47.20565116 43.10628117 -47.22460938 40.13476562 C-47.22754348 38.2473971 -47.22952816 36.36002682 -47.23046875 34.47265625 C-47.23765427 33.58401382 -47.24483978 32.6953714 -47.25224304 31.77980042 C-47.24916641 30.94891403 -47.24608978 30.11802765 -47.24291992 29.26196289 C-47.24434494 28.53376846 -47.24576996 27.80557404 -47.24723816 27.05531311 C-46.95664956 24.63962392 -46.27294049 23.06657184 -45 21 C-42.66845703 19.37182617 -42.66845703 19.37182617 -39.7578125 17.79296875 C-38.69046875 17.20580078 -37.623125 16.61863281 -36.5234375 16.01367188 C-35.40195313 15.41103516 -34.28046875 14.80839844 -33.125 14.1875 C-30.93950612 12.99458459 -28.75460864 11.80057588 -26.5703125 10.60546875 C-25.48137695 10.01813965 -24.39244141 9.43081055 -23.27050781 8.82568359 C-20.00220904 7.00123314 -16.85338836 5.03396991 -13.6796875 3.05078125 C-8.91611815 0.30731744 -5.43395607 -1.66312368 0 0 Z M-10.51171875 16.3359375 C-11.35154297 16.82320312 -12.19136719 17.31046875 -13.05664062 17.8125 C-13.92482422 18.328125 -14.79300781 18.84375 -15.6875 19.375 C-16.56728516 19.88289063 -17.44707031 20.39078125 -18.35351562 20.9140625 C-22.88867473 23.2443769 -22.88867473 23.2443769 -26 27 C-22.62150298 29.07145465 -19.21996325 31.10160839 -15.8125 33.125 C-14.85279297 33.71410156 -13.89308594 34.30320312 -12.90429688 34.91015625 C-11.97294922 35.45800781 -11.04160156 36.00585938 -10.08203125 36.5703125 C-9.22843018 37.08352051 -8.3748291 37.59672852 -7.49536133 38.12548828 C-5.01037542 39.26219355 -5.01037542 39.26219355 -2.45898438 38.30078125 C-1.64751953 37.87152344 -0.83605469 37.44226563 0 37 C1.0988855 36.43321533 1.0988855 36.43321533 2.2199707 35.85498047 C2.94788818 35.44650879 3.67580566 35.03803711 4.42578125 34.6171875 C5.22177734 34.17246094 6.01777344 33.72773437 6.83789062 33.26953125 C7.65451172 32.80933594 8.47113281 32.34914063 9.3125 31.875 C10.14845703 31.40707031 10.98441406 30.93914063 11.84570312 30.45703125 C13.89866233 29.3073741 15.95002202 28.15496198 18 27 C14.53192371 23.06228837 10.52622797 20.76730432 6 18.25 C4.93265625 17.63318359 4.93265625 17.63318359 3.84375 17.00390625 C3.1528125 16.61589844 2.461875 16.22789063 1.75 15.828125 C1.12609375 15.4765332 0.5021875 15.12494141 -0.140625 14.76269531 C-4.26308315 13.07170801 -6.94166193 14.25474517 -10.51171875 16.3359375 Z M-34 38 C-34 45.92 -34 53.84 -34 62 C-30.18894042 64.16923485 -26.37624795 66.33550116 -22.5625 68.5 C-21.47388672 69.12003906 -20.38527344 69.74007812 -19.26367188 70.37890625 C-18.22919922 70.96542969 -17.19472656 71.55195312 -16.12890625 72.15625 C-15.17056885 72.70087891 -14.21223145 73.24550781 -13.22485352 73.80664062 C-11.27390952 75.07877914 -11.27390952 75.07877914 -10 75 C-9.73753566 71.12629549 -9.57846436 67.25487619 -9.4375 63.375 C-9.36208984 62.28058594 -9.28667969 61.18617187 -9.20898438 60.05859375 C-8.9286743 54.0366733 -8.9286743 54.0366733 -11.79956055 49.02392578 C-14.13143615 47.4485681 -16.45812536 46.20314203 -19 45 C-20.22128379 44.30092992 -21.439194 43.59590491 -22.65234375 42.8828125 C-23.73644531 42.30273438 -24.82054687 41.72265625 -25.9375 41.125 C-27.03964844 40.52945313 -28.14179688 39.93390625 -29.27734375 39.3203125 C-31.79561082 37.85455438 -31.79561082 37.85455438 -34 38 Z M19.24609375 40.58984375 C18.30958984 41.12673828 17.37308594 41.66363281 16.40820312 42.21679688 C14.93770508 43.06854492 14.93770508 43.06854492 13.4375 43.9375 C12.45330078 44.50146484 11.46910156 45.06542969 10.45507812 45.64648438 C5.97544209 47.97578721 5.97544209 47.97578721 2 51 C1.91273777 52.78071246 1.89300959 54.5648314 1.90234375 56.34765625 C1.90556641 57.42724609 1.90878906 58.50683594 1.91210938 59.61914062 C1.92048828 60.75544922 1.92886719 61.89175781 1.9375 63.0625 C1.94201172 64.20267578 1.94652344 65.34285156 1.95117188 66.51757812 C1.96300253 69.34510351 1.9794859 72.1725264 2 75 C2.7115625 74.61094482 3.423125 74.22188965 4.15625 73.82104492 C11.42126249 69.85009336 18.70772274 65.92057917 26 62 C26 54.08 26 46.16 26 38 C23.2010471 38 21.66863515 39.19639052 19.24609375 40.58984375 Z M132 73 C133.12686272 78.90404137 134.36202529 84.71590181 136 90.5 C136.33 91.6859375 136.66 92.871875 137 94.09375 C137.79116474 97.08354159 137.79116474 97.08354159 140 99 C143.4078046 100.28360245 146.93394697 101.1994376 150.4375 102.1875 C151.40494141 102.47302734 152.37238281 102.75855469 153.36914062 103.05273438 C154.29791016 103.31763672 155.22667969 103.58253906 156.18359375 103.85546875 C157.46061157 104.22128052 157.46061157 104.22128052 158.76342773 104.59448242 C161.1591923 105.21382643 161.1591923 105.21382643 164 104 C163.02951761 95.74174419 161.83605117 86.94488246 157 80 C149.68075869 75.2073341 140.54984208 74.0246429 132 73 Z M-141 73 C-149.25825581 73.97048239 -158.05511754 75.16394883 -165 80 C-169.7926659 87.31924131 -170.9753571 96.45015792 -172 105 C-166.09595863 103.87313728 -160.28409819 102.63797471 -154.5 101 C-153.3140625 100.67 -152.128125 100.34 -150.90625 100 C-147.91645841 99.20883526 -147.91645841 99.20883526 -146 97 C-144.71639755 93.5921954 -143.8005624 90.06605303 -142.8125 86.5625 C-142.52697266 85.59505859 -142.24144531 84.62761719 -141.94726562 83.63085938 C-141.68236328 82.70208984 -141.41746094 81.77332031 -141.14453125 80.81640625 C-140.77871948 79.53938843 -140.77871948 79.53938843 -140.40551758 78.23657227 C-139.78617357 75.8408077 -139.78617357 75.8408077 -141 73 Z M-127 77 C-129.00567098 82.01417745 -130.6949057 87.07715159 -132.25 92.25 C-132.60578125 93.43078125 -132.9615625 94.6115625 -133.328125 95.828125 C-133.99815444 98.99128722 -134.08694247 100.06860248 -133 103 C-131.51382282 104.89725994 -131.51382282 104.89725994 -129.62109375 106.671875 C-128.94755859 107.33574219 -128.27402344 107.99960938 -127.58007812 108.68359375 C-126.87302734 109.36550781 -126.16597656 110.04742187 -125.4375 110.75 C-124.72658203 111.44738281 -124.01566406 112.14476562 -123.28320312 112.86328125 C-121.52869286 114.5824658 -119.76756648 116.29425872 -118 118 C-115.82111353 117.18702373 -115.82111353 117.18702373 -115.20629883 115.0222168 C-114.39803815 112.24663542 -113.59429149 109.4706777 -112.8125 106.6875 C-112.52697266 105.72392578 -112.24144531 104.76035156 -111.94726562 103.76757812 C-111.68236328 102.83751953 -111.41746094 101.90746094 -111.14453125 100.94921875 C-110.90065674 100.09674561 -110.65678223 99.24427246 -110.40551758 98.3659668 C-109.96029832 95.76836305 -110.01119753 94.43257161 -111 92 C-112.4696787 90.10335503 -112.4696787 90.10335503 -114.34375 88.328125 C-115.01277344 87.66425781 -115.68179688 87.00039062 -116.37109375 86.31640625 C-117.07363281 85.63449219 -117.77617187 84.95257813 -118.5 84.25 C-119.20253906 83.55261719 -119.90507812 82.85523437 -120.62890625 82.13671875 C-123.4239882 78.78772943 -123.4239882 78.78772943 -127 77 Z M118 77 C115.2425541 79.40749344 112.55556036 81.88239212 109.875 84.375 C109.09511719 85.05433594 108.31523437 85.73367187 107.51171875 86.43359375 C103.31581813 90.25615133 103.31581813 90.25615133 101.87939453 95.50244141 C102.38445439 98.11133684 103.10947582 100.49809949 104 103 C104.36468059 104.34423325 104.7221841 105.69044781 105.0703125 107.0390625 C105.41835938 108.22242187 105.76640625 109.40578125 106.125 110.625 C106.47820312 111.83414063 106.83140625 113.04328125 107.1953125 114.2890625 C107.59363281 115.63097656 107.59363281 115.63097656 108 117 C112.91441324 117 115.39855911 113.39734887 118.8125 110.125 C119.53115234 109.49335937 120.24980469 108.86171875 120.99023438 108.2109375 C124.88525791 104.53739202 124.88525791 104.53739202 126.07177734 99.52661133 C125.56620372 96.92357698 124.85394575 94.50889312 124 92 C123.65830825 90.66748 123.32416233 89.33298626 123 87.99609375 C122.67 86.82175781 122.34 85.64742187 122 84.4375 C121.67 83.23996094 121.34 82.04242188 121 80.80859375 C120.31942234 77.87112575 120.31942234 77.87112575 118 77 Z M133.19067383 112.46875 C132.53607178 113.1390625 131.88146973 113.809375 131.20703125 114.5 C130.49482422 115.221875 129.78261719 115.94375 129.04882812 116.6875 C127.9418457 117.8321875 127.9418457 117.8321875 126.8125 119 C126.06291016 119.763125 125.31332031 120.52625 124.54101562 121.3125 C122.68713177 123.20180839 120.84058931 125.09775206 119 127 C119.81297627 129.17888647 119.81297627 129.17888647 121.9777832 129.79370117 C124.75336458 130.60196185 127.5293223 131.40570851 130.3125 132.1875 C131.27607422 132.47302734 132.23964844 132.75855469 133.23242188 133.05273438 C134.16248047 133.31763672 135.09253906 133.58253906 136.05078125 133.85546875 C136.90325439 134.09934326 137.75572754 134.34321777 138.6340332 134.59448242 C141.23250604 135.03985064 142.56734457 134.99162026 145 134 C146.89725994 132.51382282 146.89725994 132.51382282 148.671875 130.62109375 C149.33574219 129.94755859 149.99960937 129.27402344 150.68359375 128.58007812 C151.36550781 127.87302734 152.04742187 127.16597656 152.75 126.4375 C153.44738281 125.72658203 154.14476562 125.01566406 154.86328125 124.28320312 C156.5824658 122.52869286 158.29425872 120.76756648 160 119 C159.18768157 116.8164424 159.18768157 116.8164424 157.00634766 116.22216797 C156.15089355 115.98127441 155.29543945 115.74038086 154.4140625 115.4921875 C153.48335938 115.22792969 152.55265625 114.96367187 151.59375 114.69140625 C150.6140625 114.42199219 149.634375 114.15257812 148.625 113.875 C147.16707031 113.45927734 147.16707031 113.45927734 145.6796875 113.03515625 C139.20232029 110.66861726 139.20232029 110.66861726 133.19067383 112.46875 Z M-150.0078125 112.3125 C-151.48701172 112.71855469 -151.48701172 112.71855469 -152.99609375 113.1328125 C-154.02863281 113.41898437 -155.06117188 113.70515625 -156.125 114 C-157.16527344 114.28617187 -158.20554687 114.57234375 -159.27734375 114.8671875 C-161.85219539 115.57586226 -164.42637254 116.28689468 -167 117 C-167 121.91441324 -163.39734887 124.39855911 -160.125 127.8125 C-159.49335938 128.53115234 -158.86171875 129.24980469 -158.2109375 129.99023438 C-154.53763753 133.88310531 -154.53763753 133.88310531 -149.52880859 135.07617188 C-146.92160238 134.57293085 -144.5100732 133.8619048 -142 133 C-140.65524928 132.63723221 -139.30901225 132.27990091 -137.9609375 131.9296875 C-136.77757812 131.58164063 -135.59421875 131.23359375 -134.375 130.875 C-132.56128906 130.34519531 -132.56128906 130.34519531 -130.7109375 129.8046875 C-129.81632812 129.53914063 -128.92171875 129.27359375 -128 129 C-127.69169502 126.03002938 -127.69169502 126.03002938 -129.34521484 124.2824707 C-129.96090332 123.66976318 -130.5765918 123.05705566 -131.2109375 122.42578125 C-131.87867188 121.75869141 -132.54640625 121.09160156 -133.234375 120.40429688 C-134.29398438 119.36885742 -134.29398438 119.36885742 -135.375 118.3125 C-136.07367188 117.61060547 -136.77234375 116.90871094 -137.4921875 116.18554688 C-142.31033301 111.41836252 -143.36950823 110.48124365 -150.0078125 112.3125 Z M-19 133 C-20.15632974 136.35834996 -21.22111735 139.64057894 -21.89453125 143.12890625 C-22.04599609 143.85400391 -22.19746094 144.57910156 -22.35351562 145.32617188 C-22.65981077 146.81854607 -22.95407587 148.31343929 -23.23632812 149.81054688 C-24.32987604 154.90620789 -25.76581617 157.66838182 -30 161 C-35.81034136 164.20597855 -42.30689585 167.26284984 -49 166 C-52.18775987 164.61109119 -55.06699159 162.86018116 -58 161 C-58.99644531 160.37609375 -59.99289063 159.7521875 -61.01953125 159.109375 C-63.69054648 157.42241801 -66.34957176 155.7190628 -69 154 C-74.25174926 158.38442526 -79.13222473 163.00842093 -83.9375 167.875 C-84.62134766 168.56335938 -85.30519531 169.25171875 -86.00976562 169.9609375 C-87.67551464 171.63833511 -89.3388622 173.31803791 -91 175 C-86.96649806 182.72671607 -86.96649806 182.72671607 -82.1875 190 C-78.94234901 194.45049279 -78.66233842 197.57490389 -79 203 C-80.171875 206.640625 -80.171875 206.640625 -81.75 210.25 C-82.26046875 211.45140625 -82.7709375 212.6528125 -83.296875 213.890625 C-85.40476338 217.73897168 -87.26230047 219.44591085 -91.45776367 220.78369141 C-92.35213135 220.97108887 -93.24649902 221.15848633 -94.16796875 221.3515625 C-95.14314453 221.56296875 -96.11832031 221.774375 -97.12304688 221.9921875 C-98.13431641 222.20101562 -99.14558594 222.40984375 -100.1875 222.625 C-102.20247666 223.05161132 -104.21683889 223.48113876 -106.23046875 223.9140625 C-107.12145264 224.0992041 -108.01243652 224.2843457 -108.93041992 224.47509766 C-110.97684361 224.80632104 -110.97684361 224.80632104 -112 226 C-112.08783542 228.21855264 -112.10694609 230.43988496 -112.09765625 232.66015625 C-112.0962413 233.32462265 -112.09482635 233.98908905 -112.09336853 234.6736908 C-112.08775518 236.80333899 -112.07520054 238.93288339 -112.0625 241.0625 C-112.05748671 242.50325369 -112.05292351 243.94400903 -112.04882812 245.38476562 C-112.03778145 248.92321102 -112.02050792 252.46159539 -112 256 C-108.64165004 257.15632974 -105.35942106 258.22111735 -101.87109375 258.89453125 C-101.14599609 259.04599609 -100.42089844 259.19746094 -99.67382812 259.35351562 C-98.18145393 259.65981077 -96.68656071 259.95407587 -95.18945312 260.23632812 C-90.09379211 261.32987604 -87.33161818 262.76581617 -84 267 C-80.79402145 272.81034136 -77.73715016 279.30689585 -79 286 C-80.38890881 289.18775987 -82.13981884 292.06699159 -84 295 C-84.62390625 295.99644531 -85.2478125 296.99289062 -85.890625 298.01953125 C-87.57758199 300.69054648 -89.2809372 303.34957176 -91 306 C-86.61557474 311.25174926 -81.99157907 316.13222473 -77.125 320.9375 C-76.43664062 321.62134766 -75.74828125 322.30519531 -75.0390625 323.00976562 C-73.36166489 324.67551464 -71.68196209 326.3388622 -70 328 C-62.27328393 323.96649806 -62.27328393 323.96649806 -55 319.1875 C-50.54950721 315.94234901 -47.42509611 315.66233842 -42 316 C-38.359375 317.171875 -38.359375 317.171875 -34.75 318.75 C-33.54859375 319.26046875 -32.3471875 319.7709375 -31.109375 320.296875 C-27.26102832 322.40476338 -25.55408915 324.26230047 -24.21630859 328.45776367 C-24.02891113 329.35213135 -23.84151367 330.24649902 -23.6484375 331.16796875 C-23.43703125 332.14314453 -23.225625 333.11832031 -23.0078125 334.12304688 C-22.79898438 335.13431641 -22.59015625 336.14558594 -22.375 337.1875 C-21.94838868 339.20247666 -21.51886124 341.21683889 -21.0859375 343.23046875 C-20.9007959 344.12145264 -20.7156543 345.01243652 -20.52490234 345.93041992 C-20.19367896 347.97684361 -20.19367896 347.97684361 -19 349 C-16.78144736 349.08783542 -14.56011504 349.10694609 -12.33984375 349.09765625 C-11.67537735 349.0962413 -11.01091095 349.09482635 -10.3263092 349.09336853 C-8.19666101 349.08775518 -6.06711661 349.07520054 -3.9375 349.0625 C-2.49674631 349.05748671 -1.05599097 349.05292351 0.38476562 349.04882812 C3.92321102 349.03778145 7.46159539 349.02050792 11 349 C12.15632974 345.64165004 13.22111735 342.35942106 13.89453125 338.87109375 C14.04599609 338.14599609 14.19746094 337.42089844 14.35351562 336.67382812 C14.65981077 335.18145393 14.95407587 333.68656071 15.23632812 332.18945312 C16.32987604 327.09379211 17.76581617 324.33161818 22 321 C27.81034136 317.79402145 34.30689585 314.73715016 41 316 C44.18775987 317.38890881 47.06699159 319.13981884 50 321 C50.99644531 321.62390625 51.99289062 322.2478125 53.01953125 322.890625 C55.69054648 324.57758199 58.34957176 326.2809372 61 328 C66.25174926 323.61557474 71.13222473 318.99157907 75.9375 314.125 C76.62134766 313.43664062 77.30519531 312.74828125 78.00976562 312.0390625 C79.67551464 310.36166489 81.3388622 308.68196209 83 307 C78.96649806 299.27328393 78.96649806 299.27328393 74.1875 292 C70.94234901 287.54950721 70.66233842 284.42509611 71 279 C72.171875 275.359375 72.171875 275.359375 73.75 271.75 C74.26046875 270.54859375 74.7709375 269.3471875 75.296875 268.109375 C77.40476338 264.26102832 79.26230047 262.55408915 83.45776367 261.21630859 C84.35213135 261.02891113 85.24649902 260.84151367 86.16796875 260.6484375 C87.14314453 260.43703125 88.11832031 260.225625 89.12304688 260.0078125 C90.13431641 259.79898438 91.14558594 259.59015625 92.1875 259.375 C94.20247666 258.94838868 96.21683889 258.51886124 98.23046875 258.0859375 C99.12145264 257.9007959 100.01243652 257.7156543 100.93041992 257.52490234 C102.97684361 257.19367896 102.97684361 257.19367896 104 256 C104.08783542 253.78144736 104.10694609 251.56011504 104.09765625 249.33984375 C104.0962413 248.67537735 104.09482635 248.01091095 104.09336853 247.3263092 C104.08775518 245.19666101 104.07520054 243.06711661 104.0625 240.9375 C104.05748671 239.49674631 104.05292351 238.05599097 104.04882812 236.61523438 C104.03778145 233.07678898 104.02050792 229.53840461 104 226 C100.64165004 224.84367026 97.35942106 223.77888265 93.87109375 223.10546875 C93.14599609 222.95400391 92.42089844 222.80253906 91.67382812 222.64648438 C90.18145393 222.34018923 88.68656071 222.04592413 87.18945312 221.76367188 C82.09379211 220.67012396 79.33161818 219.23418383 76 215 C72.79402145 209.18965864 69.73715016 202.69310415 71 196 C72.38890881 192.81224013 74.13981884 189.93300841 76 187 C76.93585938 185.50533203 76.93585938 185.50533203 77.890625 183.98046875 C79.57758199 181.30945352 81.2809372 178.65042824 83 176 C78.61557474 170.74825074 73.99157907 165.86777527 69.125 161.0625 C68.43664062 160.37865234 67.74828125 159.69480469 67.0390625 158.99023438 C65.36166489 157.32448536 63.68196209 155.6611378 62 154 C54.27328393 158.03350194 54.27328393 158.03350194 47 162.8125 C42.54950721 166.05765099 39.42509611 166.33766158 34 166 C30.359375 164.828125 30.359375 164.828125 26.75 163.25 C25.54859375 162.73953125 24.3471875 162.2290625 23.109375 161.703125 C19.26102832 159.59523662 17.55408915 157.73769953 16.21630859 153.54223633 C16.02891113 152.64786865 15.84151367 151.75350098 15.6484375 150.83203125 C15.43703125 149.85685547 15.225625 148.88167969 15.0078125 147.87695312 C14.69457031 146.36004883 14.69457031 146.36004883 14.375 144.8125 C13.94838868 142.79752334 13.51886124 140.78316111 13.0859375 138.76953125 C12.9007959 137.87854736 12.7156543 136.98756348 12.52490234 136.06958008 C12.19367896 134.02315639 12.19367896 134.02315639 11 133 C8.78144736 132.91216458 6.56011504 132.89305391 4.33984375 132.90234375 C3.67537735 132.9037587 3.01091095 132.90517365 2.3263092 132.90663147 C0.19666101 132.91224482 -1.93288339 132.92479946 -4.0625 132.9375 C-5.50325369 132.94251329 -6.94400903 132.94707649 -8.38476562 132.95117188 C-11.92321102 132.96221855 -15.46159539 132.97949208 -19 133 Z M-207 211 C-205.65173853 215.04478441 -204.72896847 217.78657682 -202.65234375 221.26953125 C-201.99202148 222.38424805 -201.99202148 222.38424805 -201.31835938 223.52148438 C-200.86267578 224.27751953 -200.40699219 225.03355469 -199.9375 225.8125 C-199.47794922 226.58787109 -199.01839844 227.36324219 -198.54492188 228.16210938 C-196.54330919 231.78307297 -196.54330919 231.78307297 -194 235 C-192.21928754 235.08726223 -190.4351686 235.10699041 -188.65234375 235.09765625 C-187.57275391 235.09443359 -186.49316406 235.09121094 -185.38085938 235.08789062 C-184.24455078 235.07951172 -183.10824219 235.07113281 -181.9375 235.0625 C-180.79732422 235.05798828 -179.65714844 235.05347656 -178.48242188 235.04882812 C-175.65489649 235.03699747 -172.8274736 235.0205141 -170 235 C-170.38905518 234.2884375 -170.77811035 233.576875 -171.17895508 232.84375 C-175.14990664 225.57873751 -179.07942083 218.29227726 -183 211 C-190.92 211 -198.84 211 -207 211 Z M175 211 C172.83076515 214.81105958 170.66449884 218.62375205 168.5 222.4375 C167.87996094 223.52611328 167.25992187 224.61472656 166.62109375 225.73632812 C165.74130859 227.28803711 165.74130859 227.28803711 164.84375 228.87109375 C164.29912109 229.82943115 163.75449219 230.78776855 163.19335938 231.77514648 C161.92122086 233.72609048 161.92122086 233.72609048 162 235 C165.87370451 235.26246434 169.74512381 235.42153564 173.625 235.5625 C174.71941406 235.63791016 175.81382812 235.71332031 176.94140625 235.79101562 C182.9633267 236.0713257 182.9633267 236.0713257 187.97607422 233.20043945 C189.5514319 230.86856385 190.79685797 228.54187464 192 226 C192.69907008 224.77871621 193.40409509 223.560806 194.1171875 222.34765625 C194.69726562 221.26355469 195.27734375 220.17945313 195.875 219.0625 C196.47054687 217.96035156 197.06609375 216.85820312 197.6796875 215.72265625 C199.14544562 213.20438918 199.14544562 213.20438918 199 211 C191.08 211 183.16 211 175 211 Z M-219 219 C-220.51992761 221.32692501 -221.89459872 223.72938009 -223.296875 226.12890625 C-224.41509097 228.01397217 -225.57066822 229.87746552 -226.765625 231.71484375 C-227.31734375 232.57207031 -227.8690625 233.42929688 -228.4375 234.3125 C-228.95183594 235.09238281 -229.46617187 235.87226563 -229.99609375 236.67578125 C-231.27324884 239.6326189 -230.82145689 240.91982269 -230 244 C-229.02396542 246.23119179 -229.02396542 246.23119179 -227.78515625 248.390625 C-227.34623047 249.18210937 -226.90730469 249.97359375 -226.45507812 250.7890625 C-225.99552734 251.60117187 -225.53597656 252.41328125 -225.0625 253.25 C-224.60681641 254.07757813 -224.15113281 254.90515625 -223.68164062 255.7578125 C-221.55823765 260.08281666 -221.55823765 260.08281666 -218 263 C-215.92854535 259.62150298 -213.89839161 256.21996325 -211.875 252.8125 C-211.28589844 251.85279297 -210.69679688 250.89308594 -210.08984375 249.90429688 C-209.54199219 248.97294922 -208.99414062 248.04160156 -208.4296875 247.08203125 C-207.91647949 246.22843018 -207.40327148 245.3748291 -206.87451172 244.49536133 C-205.73780645 242.01037542 -205.73780645 242.01037542 -206.69921875 239.45898438 C-207.12847656 238.64751953 -207.55773437 237.83605469 -208 237 C-208.56678467 235.9011145 -208.56678467 235.9011145 -209.14501953 234.7800293 C-209.55349121 234.05211182 -209.96196289 233.32419434 -210.3828125 232.57421875 C-210.82753906 231.77822266 -211.27226562 230.98222656 -211.73046875 230.16210938 C-212.19066406 229.34548828 -212.65085937 228.52886719 -213.125 227.6875 C-213.59292969 226.85154297 -214.06085938 226.01558594 -214.54296875 225.15429688 C-215.6926259 223.10133767 -216.84503802 221.04997798 -218 219 C-218.33 219 -218.66 219 -219 219 Z M210 219 C207.92854535 222.37849702 205.89839161 225.78003675 203.875 229.1875 C203.28589844 230.14720703 202.69679688 231.10691406 202.08984375 232.09570312 C201.54199219 233.02705078 200.99414062 233.95839844 200.4296875 234.91796875 C199.91647949 235.77156982 199.40327148 236.6251709 198.87451172 237.50463867 C197.73780645 239.98962458 197.73780645 239.98962458 198.69921875 242.54101562 C199.12847656 243.35248047 199.55773437 244.16394531 200 245 C200.37785645 245.73259033 200.75571289 246.46518066 201.14501953 247.2199707 C201.75772705 248.31184692 201.75772705 248.31184692 202.3828125 249.42578125 C203.04990234 250.61977539 203.04990234 250.61977539 203.73046875 251.83789062 C204.42076172 253.06282227 204.42076172 253.06282227 205.125 254.3125 C205.59292969 255.14845703 206.06085938 255.98441406 206.54296875 256.84570312 C207.6926259 258.89866233 208.84503802 260.95002202 210 263 C213.91319794 259.53659492 216.26903131 255.55555177 218.8125 251.0625 C219.23208984 250.35931641 219.65167969 249.65613281 220.08398438 248.93164062 C220.47521484 248.24392578 220.86644531 247.55621094 221.26953125 246.84765625 C221.62635986 246.22898682 221.98318848 245.61031738 222.35083008 244.97290039 C223.46436661 241.58873766 222.43037494 238.94882172 221.00024414 235.79589844 C220.59926514 235.0743457 220.19828613 234.35279297 219.78515625 233.609375 C219.34623047 232.81789062 218.90730469 232.02640625 218.45507812 231.2109375 C217.99552734 230.39882812 217.53597656 229.58671875 217.0625 228.75 C216.60681641 227.92242187 216.15113281 227.09484375 215.68164062 226.2421875 C213.55823765 221.91718334 213.55823765 221.91718334 210 219 Z M-197.53125 251.1015625 C-198.39247752 252.71449637 -199.21774095 254.3473236 -200 256 C-200.69907008 257.22128379 -201.40409509 258.439194 -202.1171875 259.65234375 C-202.69726562 260.73644531 -203.27734375 261.82054687 -203.875 262.9375 C-204.47054687 264.03964844 -205.06609375 265.14179688 -205.6796875 266.27734375 C-207.14544562 268.79561082 -207.14544562 268.79561082 -207 271 C-199.08 271 -191.16 271 -183 271 C-180.83076515 267.18894042 -178.66449884 263.37624795 -176.5 259.5625 C-175.87996094 258.47388672 -175.25992188 257.38527344 -174.62109375 256.26367188 C-173.74130859 254.71196289 -173.74130859 254.71196289 -172.84375 253.12890625 C-172.29912109 252.17056885 -171.75449219 251.21223145 -171.19335938 250.22485352 C-169.92122086 248.27390952 -169.92122086 248.27390952 -170 247 C-173.87370451 246.73753566 -177.74512381 246.57846436 -181.625 246.4375 C-182.71941406 246.36208984 -183.81382812 246.28667969 -184.94140625 246.20898438 C-190.75858025 246.05033417 -194.12243224 246.05576303 -197.53125 251.1015625 Z M162 247 C162.38905518 247.7115625 162.77811035 248.423125 163.17895508 249.15625 C167.14990664 256.42126249 171.07942083 263.70772274 175 271 C182.92 271 190.84 271 199 271 C197.65173853 266.95521559 196.72896847 264.21342318 194.65234375 260.73046875 C193.99202148 259.61575195 193.99202148 259.61575195 193.31835938 258.47851562 C192.86267578 257.72248047 192.40699219 256.96644531 191.9375 256.1875 C191.47794922 255.41212891 191.01839844 254.63675781 190.54492188 253.83789062 C188.54330919 250.21692703 188.54330919 250.21692703 186 247 C184.21928754 246.91273777 182.4351686 246.89300959 180.65234375 246.90234375 C179.57275391 246.90556641 178.49316406 246.90878906 177.38085938 246.91210938 C175.67639648 246.92467773 175.67639648 246.92467773 173.9375 246.9375 C172.79732422 246.94201172 171.65714844 246.94652344 170.48242188 246.95117188 C167.65489649 246.96300253 164.8274736 246.9794859 162 247 Z M-153.80932617 348.46875 C-154.46392822 349.1390625 -155.11853027 349.809375 -155.79296875 350.5 C-156.50517578 351.221875 -157.21738281 351.94375 -157.95117188 352.6875 C-159.0581543 353.8321875 -159.0581543 353.8321875 -160.1875 355 C-160.93708984 355.763125 -161.68667969 356.52625 -162.45898438 357.3125 C-164.31286823 359.20180839 -166.15941069 361.09775206 -168 363 C-167.18142919 365.19551417 -167.18142919 365.19551417 -164.93041992 365.80957031 C-162.01988526 366.63806865 -159.10743075 367.45516063 -156.1875 368.25 C-155.17623047 368.54390625 -154.16496094 368.8378125 -153.12304688 369.140625 C-152.14787109 369.40875 -151.17269531 369.676875 -150.16796875 369.953125 C-149.27360107 370.20223633 -148.3792334 370.45134766 -147.45776367 370.70800781 C-144.50790935 371.05846234 -143.44402314 370.63859568 -141 369 C-139.22216977 367.49437066 -139.22216977 367.49437066 -137.546875 365.7421875 C-136.928125 365.11699219 -136.309375 364.49179687 -135.671875 363.84765625 C-135.03765625 363.19667969 -134.4034375 362.54570312 -133.75 361.875 C-133.1003125 361.21628906 -132.450625 360.55757813 -131.78125 359.87890625 C-130.18288273 358.25703357 -128.58938103 356.6306719 -127 355 C-127.81231843 352.8164424 -127.81231843 352.8164424 -129.99365234 352.22216797 C-130.84910645 351.98127441 -131.70456055 351.74038086 -132.5859375 351.4921875 C-133.51664063 351.22792969 -134.44734375 350.96367187 -135.40625 350.69140625 C-136.3859375 350.42199219 -137.365625 350.15257812 -138.375 349.875 C-139.83292969 349.45927734 -139.83292969 349.45927734 -141.3203125 349.03515625 C-147.79767971 346.66861726 -147.79767971 346.66861726 -153.80932617 348.46875 Z M136.11328125 348.3125 C135.17548828 348.58320313 134.23769531 348.85390625 133.27148438 349.1328125 C132.29501953 349.41898437 131.31855469 349.70515625 130.3125 350 C129.32443359 350.28617187 128.33636719 350.57234375 127.31835938 350.8671875 C124.87785237 351.57458084 122.43847818 352.28565033 120 353 C120 357.91441324 123.60265113 360.39855911 126.875 363.8125 C127.50664062 364.53115234 128.13828125 365.24980469 128.7890625 365.99023438 C132.46236247 369.88310531 132.46236247 369.88310531 137.47119141 371.07617188 C140.07839762 370.57293085 142.4899268 369.8619048 145 369 C146.34475072 368.63723221 147.69098775 368.27990091 149.0390625 367.9296875 C150.22242188 367.58164062 151.40578125 367.23359375 152.625 366.875 C154.43871094 366.34519531 154.43871094 366.34519531 156.2890625 365.8046875 C157.18367188 365.53914063 158.07828125 365.27359375 159 365 C159 361.32519603 158.33942633 360.95495666 155.82421875 358.42578125 C154.82938477 357.42514648 154.82938477 357.42514648 153.81445312 356.40429688 C153.11255859 355.71400391 152.41066406 355.02371094 151.6875 354.3125 C150.99720703 353.61060547 150.30691406 352.90871094 149.59570312 352.18554688 C148.92861328 351.52232422 148.26152344 350.85910156 147.57421875 350.17578125 C146.96151123 349.56645752 146.34880371 348.95713379 145.7175293 348.3293457 C142.60326103 345.91894191 139.59841101 347.29864407 136.11328125 348.3125 Z M-118 364 C-120.7574459 366.40749344 -123.44443964 368.88239212 -126.125 371.375 C-126.90488281 372.05433594 -127.68476563 372.73367188 -128.48828125 373.43359375 C-132.68418187 377.25615133 -132.68418187 377.25615133 -134.12060547 382.50244141 C-133.61554561 385.11133684 -132.89052418 387.49809949 -132 390 C-131.63531941 391.34423325 -131.2778159 392.69044781 -130.9296875 394.0390625 C-130.58164063 395.22242188 -130.23359375 396.40578125 -129.875 397.625 C-129.52179688 398.83414063 -129.16859375 400.04328125 -128.8046875 401.2890625 C-128.40636719 402.63097656 -128.40636719 402.63097656 -128 404 C-123.08558676 404 -120.60144089 400.39734887 -117.1875 397.125 C-116.46884766 396.49335938 -115.75019531 395.86171875 -115.00976562 395.2109375 C-111.11474209 391.53739202 -111.11474209 391.53739202 -109.92822266 386.52661133 C-110.43379628 383.92357698 -111.14605425 381.50889312 -112 379 C-112.34169175 377.66748 -112.67583767 376.33298626 -113 374.99609375 C-113.33 373.82175781 -113.66 372.64742188 -114 371.4375 C-114.33 370.23996094 -114.66 369.04242188 -115 367.80859375 C-115.68057766 364.87112575 -115.68057766 364.87112575 -118 364 Z M109 364 C106.99432902 369.01417745 105.3050943 374.07715159 103.75 379.25 C103.39421875 380.43078125 103.0384375 381.6115625 102.671875 382.828125 C102.00184556 385.99128722 101.91305753 387.06860248 103 390 C104.48617718 391.89725994 104.48617718 391.89725994 106.37890625 393.671875 C107.05244141 394.33574219 107.72597656 394.99960937 108.41992188 395.68359375 C109.12697266 396.36550781 109.83402344 397.04742187 110.5625 397.75 C111.27341797 398.44738281 111.98433594 399.14476562 112.71679688 399.86328125 C114.47130714 401.5824658 116.23243352 403.29425872 118 405 C120.17888647 404.18702373 120.17888647 404.18702373 120.79370117 402.0222168 C121.60196185 399.24663542 122.40570851 396.4706777 123.1875 393.6875 C123.47302734 392.72392578 123.75855469 391.76035156 124.05273438 390.76757812 C124.31763672 389.83751953 124.58253906 388.90746094 124.85546875 387.94921875 C125.09934326 387.09674561 125.34321777 386.24427246 125.59448242 385.3659668 C126.03970168 382.76836305 125.98880247 381.43257161 125 379 C123.5303213 377.10335503 123.5303213 377.10335503 121.65625 375.328125 C120.98722656 374.66425781 120.31820313 374.00039063 119.62890625 373.31640625 C118.92636719 372.63449219 118.22382813 371.95257813 117.5 371.25 C116.79746094 370.55261719 116.09492188 369.85523438 115.37109375 369.13671875 C112.5760118 365.78772943 112.5760118 365.78772943 109 364 Z M-172 377 C-171.03589222 385.5639961 -169.88875029 394.72300844 -165 402 C-157.72300844 406.88875029 -148.5639961 408.03589222 -140 409 C-141.13540593 403.14943347 -142.30183071 397.32875682 -143.8125 391.5625 C-144.10769531 390.38816406 -144.40289062 389.21382813 -144.70703125 388.00390625 C-146.30873118 384.28273632 -147.30270862 383.58525675 -151 382 C-154.01243916 380.9816955 -157.05231904 380.12875794 -160.125 379.3125 C-160.93582031 379.08755859 -161.74664062 378.86261719 -162.58203125 378.63085938 C-165.85259161 377.74159131 -168.59137904 377 -172 377 Z M150.4375 379.875 C149.46619141 380.14441406 148.49488281 380.41382813 147.49414062 380.69140625 C146.56666016 380.95566406 145.63917969 381.21992188 144.68359375 381.4921875 C143.83337646 381.73308105 142.98315918 381.97397461 142.10717773 382.22216797 C139.82247538 382.89853272 139.82247538 382.89853272 138 385 C136.71639755 388.4078046 135.8005624 391.93394697 134.8125 395.4375 C134.52697266 396.40494141 134.24144531 397.37238281 133.94726562 398.36914062 C133.68236328 399.29791016 133.41746094 400.22667969 133.14453125 401.18359375 C132.90065674 402.03493896 132.65678223 402.88628418 132.40551758 403.76342773 C131.78617357 406.1591923 131.78617357 406.1591923 133 409 C141.25825581 408.02951761 150.05511754 406.83605117 157 402 C161.7926659 394.68075869 162.9753571 385.54984208 164 377 C159.27507563 377 154.95737095 378.58016688 150.4375 379.875 Z M2 407 C1.76717927 410.89482216 1.62543361 414.78785854 1.5 418.6875 C1.43296875 419.79029297 1.3659375 420.89308594 1.296875 422.02929688 C0.97425712 427.83179356 0.97425712 427.83179356 3.55712891 432.73364258 C5.64751132 434.04856055 7.73089114 435.0298341 10 436 C11.26783811 436.72892708 12.52628961 437.47449443 13.7734375 438.23828125 C14.97300685 438.93133698 16.17352017 439.62276158 17.375 440.3125 C17.98988281 440.67150391 18.60476563 441.03050781 19.23828125 441.40039062 C22.41329481 443.36337242 22.41329481 443.36337242 26 444 C26 436.08 26 428.16 26 420 C22.18894042 417.83076515 18.37624795 415.66449884 14.5625 413.5 C13.47388672 412.87996094 12.38527344 412.25992187 11.26367188 411.62109375 C10.22919922 411.03457031 9.19472656 410.44804687 8.12890625 409.84375 C7.17056885 409.29912109 6.21223145 408.75449219 5.22485352 408.19335938 C3.27390952 406.92122086 3.27390952 406.92122086 2 407 Z M-16.12890625 409.84375 C-17.16337891 410.43027344 -18.19785156 411.01679688 -19.26367188 411.62109375 C-20.35228516 412.24113281 -21.44089844 412.86117188 -22.5625 413.5 C-24.2012207 414.43005859 -24.2012207 414.43005859 -25.87304688 415.37890625 C-28.5831109 416.91737054 -31.29169244 418.45844574 -34 420 C-34 427.92 -34 435.84 -34 444 C-29.95521559 442.65173853 -27.21342318 441.72896847 -23.73046875 439.65234375 C-22.98732422 439.21212891 -22.24417969 438.77191406 -21.47851562 438.31835938 C-20.72248047 437.86267578 -19.96644531 437.40699219 -19.1875 436.9375 C-18.41212891 436.47794922 -17.63675781 436.01839844 -16.83789062 435.54492188 C-13.21692703 433.54330919 -13.21692703 433.54330919 -10 431 C-9.91273777 429.21928754 -9.89300959 427.4351686 -9.90234375 425.65234375 C-9.90717773 424.03295898 -9.90717773 424.03295898 -9.91210938 422.38085938 C-9.92048828 421.24455078 -9.92886719 420.10824219 -9.9375 418.9375 C-9.94201172 417.79732422 -9.94652344 416.65714844 -9.95117188 415.48242188 C-9.96300253 412.65489649 -9.9794859 409.8274736 -10 407 C-12.12484658 407 -14.36151252 408.83932952 -16.12890625 409.84375 Z M-9.7890625 445.625 C-10.73007813 446.16640625 -11.67109375 446.7078125 -12.640625 447.265625 C-13.62546875 447.83796875 -14.6103125 448.4103125 -15.625 449 C-16.61757812 449.57234375 -17.61015625 450.1446875 -18.6328125 450.734375 C-21.09078092 452.1524337 -23.54636848 453.57445462 -26 455 C-22.3548731 458.81527645 -18.61945719 461.23285514 -14.0625 463.8125 C-13.00772461 464.44188477 -13.00772461 464.44188477 -11.93164062 465.08398438 C-11.24392578 465.47521484 -10.55621094 465.86644531 -9.84765625 466.26953125 C-9.22898682 466.62635986 -8.61031738 466.98318848 -7.97290039 467.35083008 C-4.58873766 468.46436661 -1.94882172 467.43037494 1.20410156 466.00024414 C1.9256543 465.59926514 2.64720703 465.19828613 3.390625 464.78515625 C4.18210937 464.34623047 4.97359375 463.90730469 5.7890625 463.45507812 C6.60117187 462.99552734 7.41328125 462.53597656 8.25 462.0625 C9.07757813 461.60681641 9.90515625 461.15113281 10.7578125 460.68164062 C15.08281666 458.55823765 15.08281666 458.55823765 18 455 C14.54565686 452.99304709 11.0858937 450.99563221 7.625 449 C6.64015625 448.42765625 5.6553125 447.8553125 4.640625 447.265625 C3.69960938 446.72421875 2.75859375 446.1828125 1.7890625 445.625 C0.48509521 444.87089844 0.48509521 444.87089844 -0.84521484 444.1015625 C-4.66512552 442.14875976 -6.2612677 443.58482951 -9.7890625 445.625 Z " fill="#5F3A8D" transform="translate(260,15)"/>
<path d="M0 0 C3.58444803 2.77704725 6.81789476 5.77362199 10 9 C10.64839844 9.63808594 11.29679687 10.27617187 11.96484375 10.93359375 C21.82881866 21.31558923 25.99996101 34.90478467 26.375 49 C25.89137969 65.83370691 19.75293897 80.37808237 7.63720703 92.05688477 C-4.05786096 102.67694416 -19.11098832 107.43584346 -34.703125 107.203125 C-51.37144089 106.17616715 -65.31127307 99.37143183 -76.47265625 87.078125 C-87.18004115 74.03729145 -90.93974643 58.5847843 -90 42 C-88.06772245 27.83542303 -82.10433791 16.96568491 -72 7 C-71.36191406 6.35160156 -70.72382813 5.70320312 -70.06640625 5.03515625 C-51.44069608 -12.66120455 -21.16188773 -13.50134307 0 0 Z M-65 18 C-73.63759382 28.44104747 -78.01823399 40.44240298 -77 54 C-75.0070429 66.81910541 -68.84114576 77.81666097 -58.375 85.625 C-48.06141026 92.59322506 -36.33268694 95.45093157 -24.03515625 93.5390625 C-11.14703527 90.71926769 -0.98550185 83.67903924 6.390625 72.76171875 C12.7137921 61.91104122 14.54743904 50.21461842 11.875 38 C8.41815958 25.31404788 0.26585833 15.56511122 -11 9 C-30.09456511 0.51352662 -49.74918187 3.08808894 -65 18 Z " fill="#5E3A8E" transform="translate(288,207)"/>
</svg>
