<?xml version="1.0" encoding="UTF-8"?>
<svg version="1.1" xmlns="http://www.w3.org/2000/svg" width="225" height="225">
<path d="M0 0 C74.25 0 148.5 0 225 0 C225 74.25 225 148.5 225 225 C150.75 225 76.5 225 0 225 C0 150.75 0 76.5 0 0 Z " fill="#FBFBFB" transform="translate(0,0)"/>
<path d="M0 0 C43.56 0 87.12 0 132 0 C132 74.25 132 148.5 132 225 C94.71 225 57.42 225 19 225 C21.97 218.4 24.94 211.8 28 205 C29.48870481 201.41962987 30.94980254 197.87351923 32.3125 194.25 C32.63879395 193.3842334 32.96508789 192.5184668 33.30126953 191.62646484 C42.98368831 165.34007829 43.97136688 137.69012243 42 110 C48.5692635 106.87453543 55.4188362 105.10126555 62.4375 103.25 C63.08207153 103.07869568 63.72664307 102.90739136 64.39074707 102.730896 C83.09138689 97.7742586 102.01892901 93.72624302 121 90 C106.44030338 68.59121532 88.29991956 57.79812432 64 50 C62.68128906 49.55720703 62.68128906 49.55720703 61.3359375 49.10546875 C56.13323169 47.43380898 50.82382899 46.21523408 45.5 45 C44.73316895 44.81969238 43.96633789 44.63938477 43.17626953 44.45361328 C39.1516207 43.54675572 35.27346677 42.89033958 31.15234375 42.640625 C20.04773712 41.83962577 20.04773712 41.83962577 16.47216797 38.62744141 C13.00865044 34.24390701 11.03468836 29.1544754 9 24 C8.2445728 22.21123035 7.48668878 20.42349661 6.7265625 18.63671875 C1.57075044 6.28300175 1.57075044 6.28300175 0 0 Z " fill="#FEFEFE" transform="translate(93,0)"/>
<path d="M0 0 C0.495 0.99 0.495 0.99 1 2 C3.10613795 2.84383557 3.10613795 2.84383557 5.625 3.5 C6.5221875 3.75394531 7.419375 4.00789063 8.34375 4.26953125 C9.65859375 4.63111328 9.65859375 4.63111328 11 5 C12.37533113 5.39468129 13.75038642 5.79032681 15.125 6.1875 C16.07375 6.455625 17.0225 6.72375 18 7 C15 9 15 9 12 10 C12.47308594 10.36609375 12.94617187 10.7321875 13.43359375 11.109375 C19.7913501 16.31455564 24.2725367 22.33558993 29 29 C30.485 28.01 30.485 28.01 32 27 C32.495 28.485 32.495 28.485 33 30 C37.58942845 27.93259237 41.35594392 24.8065426 45.34375 21.77734375 C47.70269535 20.19893179 49.2365441 19.423643 52 19 C52 18.34 52 17.68 52 17 C51.22914062 16.95101562 50.45828125 16.90203125 49.6640625 16.8515625 C48.15972656 16.73941406 48.15972656 16.73941406 46.625 16.625 C45.12839844 16.52058594 45.12839844 16.52058594 43.6015625 16.4140625 C41 16 41 16 39 14 C46.65670219 8.89553188 61.53439111 13.90855732 70.42773438 15.41918945 C72.73175204 15.80940943 75.03752418 16.18753057 77.34375 16.56445312 C91.52957695 18.91928037 105.62009457 21.69993796 119.125 26.75 C120.04949951 27.09216553 120.97399902 27.43433105 121.92651367 27.78686523 C133.71890109 32.26852536 144.34993858 37.78109176 154 46 C155.5159375 47.1446875 155.5159375 47.1446875 157.0625 48.3125 C162.96385426 53.71161134 167.5966744 59.76134773 171 67 C170.09967041 67.17221069 170.09967041 67.17221069 169.18115234 67.34790039 C145.26382934 71.95361631 121.3433732 76.99161763 98 84 C96.95585937 84.31163086 95.91171875 84.62326172 94.8359375 84.94433594 C28.55402415 101.91796471 28.55402415 101.91796471 -23.1015625 141.68359375 C-24.85572897 145.07080262 -26.45697568 148.51207043 -28 152 C-26.80503906 151.566875 -26.80503906 151.566875 -25.5859375 151.125 C-24.52632812 150.75375 -23.46671875 150.3825 -22.375 150 C-21.33085937 149.62875 -20.28671875 149.2575 -19.2109375 148.875 C-15.98225494 147.99516436 -13.32755706 147.84011738 -10 148 C-10 148.66 -10 149.32 -10 150 C-12.4363189 150.67126129 -14.87388883 151.33716354 -17.3125 152 C-18.00279297 152.19078125 -18.69308594 152.3815625 -19.40429688 152.578125 C-22.35787949 153.37716184 -24.92559219 154 -28 154 C-25.47182458 162.30938775 -21.26040899 168.01756284 -15 174 C-14.34 174.33 -13.68 174.66 -13 175 C-12.74476562 174.27425781 -12.48953125 173.54851562 -12.2265625 172.80078125 C-10.93198926 169.8447016 -9.39544896 167.69435334 -7.375 165.1875 C-6.74335937 164.39730469 -6.11171875 163.60710937 -5.4609375 162.79296875 C-4.97882812 162.20128906 -4.49671875 161.60960937 -4 161 C-3.34 161.33 -2.68 161.66 -2 162 C-3.62184501 165.58513106 -5.79256239 168.58992323 -8.125 171.75 C-8.84945312 172.73484375 -9.57390625 173.7196875 -10.3203125 174.734375 C-10.87460937 175.48203125 -11.42890625 176.2296875 -12 177 C-10.45797384 176.54287762 -8.91639786 176.08423653 -7.375 175.625 C-6.46105469 175.35300781 -5.54710938 175.08101562 -4.60546875 174.80078125 C-2.61628481 174.18941287 -0.64644156 173.51476207 1.3125 172.8125 C4.02717529 171.99178422 6.1824969 171.83426452 9 172 C9 172.66 9 173.32 9 174 C8.34773438 174.19335938 7.69546875 174.38671875 7.0234375 174.5859375 C2.3228602 175.98640448 -2.35840891 177.41208726 -7 179 C0.38850765 185.11148164 10.67097861 188.39154804 20 190 C20 190.66 20 191.32 20 192 C20.66 192.33 21.32 192.66 22 193 C22 193.66 22 194.32 22 195 C4.99867887 194.46027552 -14.86194814 185.86940283 -27 174 C-32.07107467 167.58878931 -34.57645137 162.28209476 -34.45703125 154.03125 C-32.67317346 142.19985132 -20.49273139 132.33821082 -11.4375 125.4375 C5.6244644 112.13679931 21.11571089 95.3543382 29 75 C29.33773437 74.19691406 29.67546875 73.39382812 30.0234375 72.56640625 C34.01350533 61.71268964 32.95536876 49.15979898 29.55859375 38.3203125 C24.78212193 28.14487128 18.15838013 20.69191619 10.0625 13 C8.14842692 11.17559464 6.24603097 9.34092918 4.34765625 7.5 C3.51242432 6.7059375 2.67719238 5.911875 1.81665039 5.09375 C0 3 0 3 0 0 Z " fill="#AB1E24" transform="translate(44,24)"/>
<path d="M0 0 C4.83472791 1.55929202 8.33191665 4.32010381 12.25 7.4375 C12.88679687 7.92798828 13.52359375 8.41847656 14.1796875 8.92382812 C18.87506013 12.62518038 18.87506013 12.62518038 20 16 C12.1684136 18.63325375 4.30511737 21.16430201 -3.5625 23.6875 C-4.87045737 24.10737621 -6.17840018 24.52729776 -7.48632812 24.94726562 C-10.65740975 25.96528814 -13.82863695 26.98285459 -17 28 C-16.505 30.475 -16.505 30.475 -16 33 C-17.0209375 33.31710938 -18.041875 33.63421875 -19.09375 33.9609375 C-69.64671944 49.1118809 -69.64671944 49.1118809 -107.10571289 82.62255859 C-108.46977847 85.38828074 -109.75237439 88.17980449 -111 91 C-110.20335937 90.71125 -109.40671875 90.4225 -108.5859375 90.125 C-107.52632812 89.75375 -106.46671875 89.3825 -105.375 89 C-104.33085938 88.62875 -103.28671875 88.2575 -102.2109375 87.875 C-98.98225494 86.99516436 -96.32755706 86.84011738 -93 87 C-93 87.66 -93 88.32 -93 89 C-95.4363189 89.67126129 -97.87388883 90.33716354 -100.3125 91 C-101.00279297 91.19078125 -101.69308594 91.3815625 -102.40429688 91.578125 C-105.35787949 92.37716184 -107.92559219 93 -111 93 C-108.47182458 101.30938775 -104.26040899 107.01756284 -98 113 C-97.34 113.33 -96.68 113.66 -96 114 C-95.74476562 113.27425781 -95.48953125 112.54851562 -95.2265625 111.80078125 C-93.93198926 108.8447016 -92.39544896 106.69435334 -90.375 104.1875 C-89.74335937 103.39730469 -89.11171875 102.60710937 -88.4609375 101.79296875 C-87.97882813 101.20128906 -87.49671875 100.60960937 -87 100 C-86.34 100.33 -85.68 100.66 -85 101 C-86.62184501 104.58513106 -88.79256239 107.58992323 -91.125 110.75 C-91.84945312 111.73484375 -92.57390625 112.7196875 -93.3203125 113.734375 C-93.87460938 114.48203125 -94.42890625 115.2296875 -95 116 C-93.45797384 115.54287762 -91.91639786 115.08423653 -90.375 114.625 C-89.46105469 114.35300781 -88.54710938 114.08101563 -87.60546875 113.80078125 C-85.61628481 113.18941287 -83.64644156 112.51476207 -81.6875 111.8125 C-78.97282471 110.99178422 -76.8175031 110.83426452 -74 111 C-74 111.66 -74 112.32 -74 113 C-74.65226562 113.19335938 -75.30453125 113.38671875 -75.9765625 113.5859375 C-80.6771398 114.98640448 -85.35840891 116.41208726 -90 118 C-82.61149235 124.11148164 -72.32902139 127.39154804 -63 129 C-63 129.66 -63 130.32 -63 131 C-62.34 131.33 -61.68 131.66 -61 132 C-61 132.66 -61 133.32 -61 134 C-78.00132113 133.46027552 -97.86194814 124.86940283 -110 113 C-115.07107467 106.58878931 -117.57645137 101.28209476 -117.45703125 93.03125 C-115.67317346 81.19985132 -103.49273139 71.33821082 -94.4375 64.4375 C-77.08778631 50.91248357 -62.43893237 34.37693427 -54 14 C-53.34665482 12.6600887 -52.68555472 11.32372087 -52 10 C-51.505 10.99 -51.505 10.99 -51 12 C-50.4225 12.144375 -49.845 12.28875 -49.25 12.4375 C-46.42995671 13.14251082 -44.3793365 14.34768299 -42 16 C-42 16.66 -42 17.32 -42 18 C-43.9292573 19.55461559 -45.85647254 21.00790217 -47.875 22.4375 C-51.11443664 24.7411829 -53.75433913 26.6315087 -56 30 C-51.05 26.535 -51.05 26.535 -46 23 C-45.34 23.33 -44.68 23.66 -44 24 C-45.98 26.31 -47.96 28.62 -50 31 C-47.82638094 31.22011697 -47.82638094 31.22011697 -46.08984375 29.3203125 C-45.37957031 28.59585938 -44.66929688 27.87140625 -43.9375 27.125 C-43.22464844 26.40570313 -42.51179688 25.68640625 -41.77734375 24.9453125 C-39.94502379 23.11766811 -39.94502379 23.11766811 -39 21 C-38.34 21 -37.68 21 -37 21 C-36.32591692 22.26691507 -35.66099503 23.53870749 -35 24.8125 C-34.62875 25.52019531 -34.2575 26.22789063 -33.875 26.95703125 C-33 29 -33 29 -33 32 C-32.34 32 -31.68 32 -31 32 C-31.31193464 30.27073126 -31.62457362 28.54158956 -31.9375 26.8125 C-32.19853516 25.36810547 -32.19853516 25.36810547 -32.46484375 23.89453125 C-32.9523735 21.25760028 -33.46671105 18.6280095 -34 16 C-31.33601004 14.41213132 -28.66832472 12.83057172 -26 11.25 C-25.25621094 10.8065625 -24.51242188 10.363125 -23.74609375 9.90625 C-18.92320977 7.05445774 -14.10935872 4.30817521 -9 2 C-8.01 2.495 -8.01 2.495 -7 3 C-8.32 4.98 -9.64 6.96 -11 9 C-10.38125 8.814375 -9.7625 8.62875 -9.125 8.4375 C-7 8 -7 8 -5 9 C-4.5978125 7.88625 -4.5978125 7.88625 -4.1875 6.75 C-3.05770579 4.13363446 -1.79106798 2.19812889 0 0 Z " fill="#AB1F26" transform="translate(127,85)"/>
<path d="M0 0 C0.94799805 1.80322266 0.94799805 1.80322266 1.76171875 4.1640625 C2.07238281 5.03248779 2.38304687 5.90091309 2.703125 6.7956543 C3.02796875 7.72933838 3.3528125 8.66302246 3.6875 9.625 C6.69136476 17.93167789 10.17120465 25.59076054 14.53125 33.26171875 C16 36 16 36 16 38 C14.77023438 37.855625 13.54046875 37.71125 12.2734375 37.5625 C10.64064536 37.37482274 9.00783171 37.18733263 7.375 37 C6.56675781 36.90460937 5.75851563 36.80921875 4.92578125 36.7109375 C0.59026261 36.21746383 -3.62737311 35.88679283 -8 36 C-8.495 36.99 -8.495 36.99 -9 38 C-5.37 38.66 -1.74 39.32 2 40 C2 40.66 2 41.32 2 42 C0.05859375 43.296875 0.05859375 43.296875 -2.5625 44.75 C-6.0210721 46.73402507 -9.00439899 48.73728469 -11.9375 51.4375 C-12.948125 52.283125 -13.95875 53.12875 -15 54 C-15.99 53.67 -16.98 53.34 -18 53 C-18.33 52.34 -18.66 51.68 -19 51 C-19.99 51.66 -20.98 52.32 -22 53 C-22.35191406 52.443125 -22.70382813 51.88625 -23.06640625 51.3125 C-27.67268284 44.19261556 -32.87865606 37.87649019 -39 32 C-37.35 31.34 -35.7 30.68 -34 30 C-34.81984375 29.82984375 -35.6396875 29.6596875 -36.484375 29.484375 C-37.56203125 29.24203125 -38.6396875 28.9996875 -39.75 28.75 C-40.81734375 28.51796875 -41.8846875 28.2859375 -42.984375 28.046875 C-46.26814405 26.90691372 -47.77074995 25.61882772 -50 23 C-40.83959757 10.65337064 -22.86156469 6.14493659 -9 1 C-7.95569824 0.60530518 -6.91139648 0.21061035 -5.83544922 -0.19604492 C-3 -1 -3 -1 0 0 Z " fill="#DFE0E2" transform="translate(94,1)"/>
<path d="M0 0 C0.33 0.66 0.66 1.32 1 2 C3.10613795 2.84383557 3.10613795 2.84383557 5.625 3.5 C6.97078125 3.88091797 6.97078125 3.88091797 8.34375 4.26953125 C9.2203125 4.51058594 10.096875 4.75164063 11 5 C12.37533113 5.39468129 13.75038642 5.79032681 15.125 6.1875 C16.07375 6.455625 17.0225 6.72375 18 7 C15 9 15 9 12 10 C12.47308594 10.36609375 12.94617187 10.7321875 13.43359375 11.109375 C19.7913501 16.31455564 24.2725367 22.33558993 29 29 C29.99 28.34 30.98 27.68 32 27 C32.495 28.485 32.495 28.485 33 30 C37.58942845 27.93259237 41.35594392 24.8065426 45.34375 21.77734375 C47.70269535 20.19893179 49.2365441 19.423643 52 19 C52 18.34 52 17.68 52 17 C51.22914062 16.95101562 50.45828125 16.90203125 49.6640625 16.8515625 C48.66117188 16.77679688 47.65828125 16.70203125 46.625 16.625 C45.12839844 16.52058594 45.12839844 16.52058594 43.6015625 16.4140625 C41 16 41 16 39 14 C46.65670219 8.89553188 61.53439111 13.90855732 70.42773438 15.41918945 C72.73175204 15.80940943 75.03752418 16.18753057 77.34375 16.56445312 C91.52957695 18.91928037 105.62009457 21.69993796 119.125 26.75 C120.04949951 27.09216553 120.97399902 27.43433105 121.92651367 27.78686523 C133.71890109 32.26852536 144.34993858 37.78109176 154 46 C155.5159375 47.1446875 155.5159375 47.1446875 157.0625 48.3125 C162.96385426 53.71161134 167.5966744 59.76134773 171 67 C166.97981356 67.81572257 162.95874228 68.62699975 158.9375 69.4375 C157.80376953 69.66759766 156.67003906 69.89769531 155.50195312 70.13476562 C150.01358871 71.23883893 144.55514164 72.29855251 139 73 C139 72.01 139 71.02 139 70 C137.68 69.67 136.36 69.34 135 69 C138.64452344 68.49013736 142.29078746 67.99394154 145.9375 67.5 C146.95908203 67.35691406 147.98066406 67.21382813 149.03320312 67.06640625 C155.08607369 66.25419998 160.89340944 65.84717604 167 66 C159.48659967 56.71753674 148.16278233 44.58725852 136 42 C135.01 44.97 135.01 44.97 134 48 C132.68 47.34 131.36 46.68 130 46 C130.99 44.68 131.98 43.36 133 42 C125.02298788 43.28422486 117.68839249 45.70172358 110.125 48.5 C109.01125 48.90347656 107.8975 49.30695313 106.75 49.72265625 C101.19303903 51.68644324 101.19303903 51.68644324 95.84326172 54.13085938 C94 55 94 55 91 55 C91.046875 52.68359375 91.046875 52.68359375 92 50 C94.48958771 48.71413426 96.60239591 47.87381953 99.25 47.0625 C99.98984131 46.81870605 100.72968262 46.57491211 101.49194336 46.32373047 C110.90855627 43.27531968 120.45743535 40.62206238 130 38 C123.6746379 35.64453043 117.34086621 33.31338513 111 31 C109.783125 30.55269531 108.56625 30.10539062 107.3125 29.64453125 C99.82642273 26.89920231 99.82642273 26.89920231 92 27 C89.30590973 28.43408498 86.76884162 29.9873609 84.234375 31.6875 C82 33 82 33 79 33 C79 32.01 79 31.02 79 30 C83.95 27.525 83.95 27.525 89 25 C84.95856973 24.18630936 80.91686946 23.37400366 76.875 22.5625 C75.73289062 22.33240234 74.59078125 22.10230469 73.4140625 21.86523438 C71.75117188 21.53168945 71.75117188 21.53168945 70.0546875 21.19140625 C68.53077393 20.88505249 68.53077393 20.88505249 66.97607422 20.57250977 C63.99099738 19.99826816 61.0004282 19.4870317 58 19 C58.495 19.804375 58.495 19.804375 59 20.625 C60.22699204 23.5391061 60.14233286 25.86867708 60 29 C59.34 29 58.68 29 58 29 C57.34 25.7 56.68 22.4 56 19 C50.84845436 21.72843527 46.76508401 24.73332844 42.5625 28.75 C40.726875 30.4825 38.89125 32.215 37 34 C44.26 36.31 51.52 38.62 59 41 C55.6281407 51.11557789 55.6281407 51.11557789 51.3125 54.625 C50.43464844 55.35847656 49.55679688 56.09195313 48.65234375 56.84765625 C47.77707031 57.55792969 46.90179688 58.26820312 46 59 C44.45313752 60.34822845 42.91091106 61.70180874 41.375 63.0625 C40.25065233 64.04241565 39.12592245 65.02189418 38 66 C35.98202695 64.33910717 35.08463956 63.42606532 34.56762695 60.82348633 C34.54144287 60.00130615 34.51525879 59.17912598 34.48828125 58.33203125 C34.45283203 57.43935547 34.41738281 56.54667969 34.38085938 55.62695312 C34.34702148 54.23379883 34.34702148 54.23379883 34.3125 52.8125 C34.27833984 51.87212891 34.24417969 50.93175781 34.20898438 49.96289062 C34.12651782 47.64204607 34.05736597 45.32157852 34 43 C33.01 43 32.02 43 31 43 C30.72027344 42.23816406 30.44054687 41.47632813 30.15234375 40.69140625 C29.75144531 39.65886719 29.35054687 38.62632813 28.9375 37.5625 C28.55464844 36.55316406 28.17179687 35.54382812 27.77734375 34.50390625 C22.73555114 24.56437225 14.34734973 17.20344071 6.41210938 9.578125 C5.58646484 8.77117188 4.76082031 7.96421875 3.91015625 7.1328125 C3.15871338 6.40980957 2.40727051 5.68680664 1.63305664 4.94189453 C0 3 0 3 0 0 Z " fill="#AC2026" transform="translate(44,24)"/>
<path d="M0 0 C1.31626692 3.61973402 2 6.09567131 2 10 C2.66 10 3.32 10 4 10 C3.34 6.7 2.68 3.4 2 0 C12.84441912 0.64742801 23.36901358 2.8696575 34 5 C31.30572729 7.87121002 28.60723903 9.3882549 25 11 C24.34 11 23.68 11 23 11 C23 11.99 23 12.98 23 14 C24.12148437 13.36771484 24.12148437 13.36771484 25.265625 12.72265625 C26.25046875 12.17480469 27.2353125 11.62695312 28.25 11.0625 C29.22453125 10.51722656 30.1990625 9.97195312 31.203125 9.41015625 C33.53610409 8.23389165 35.45350762 7.47898309 38 7 C36.72946972 16.28464433 32.96595299 25.09126005 28 33 C23.53202662 31.60121198 19.36177921 29.86369228 15.125 27.875 C13.97257812 27.33617188 12.82015625 26.79734375 11.6328125 26.2421875 C10.76398438 25.83226563 9.89515625 25.42234375 9 25 C7.29159719 26.63412443 6.06546953 27.86906094 5 30 C5.78375 30.226875 6.5675 30.45375 7.375 30.6875 C12.12301625 32.40660933 16.52102552 34.68084721 21 37 C18.20438515 40.3758368 14.39083572 42.04729185 10.5625 44 C6.44969691 46.10994334 2.69454502 48.20507232 -1 51 C-1.66 51 -2.32 51 -3 51 C-2.34 49.02 -1.68 47.04 -1 45 C-4.69790046 46.23263349 -4.9354846 47.20052451 -6.6875 50.5625 C-7.12449219 51.38878906 -7.56148437 52.21507812 -8.01171875 53.06640625 C-8.33785156 53.70449219 -8.66398437 54.34257813 -9 55 C-12.55225704 53.28564986 -15.74021634 51.22257977 -19 49 C-17.41092475 44.85074796 -14.36467701 42.31591806 -11.125 39.4375 C-10.59519531 38.95603516 -10.06539062 38.47457031 -9.51953125 37.97851562 C-7.32220461 35.99655971 -5.13679389 34.09714008 -2.72265625 32.3828125 C0.01637942 30.18413081 0.77205887 27.2160363 2 24 C2.33 23.34 2.66 22.68 3 22 C2.14341797 21.85304688 2.14341797 21.85304688 1.26953125 21.703125 C-6.00770534 20.36105911 -12.96345483 18.27198794 -20 16 C-7.40425532 0 -7.40425532 0 0 0 Z " fill="#C33132" transform="translate(100,43)"/>
<path d="M0 0 C0.33 0.66 0.66 1.32 1 2 C3.10613795 2.84383557 3.10613795 2.84383557 5.625 3.5 C6.97078125 3.88091797 6.97078125 3.88091797 8.34375 4.26953125 C9.2203125 4.51058594 10.096875 4.75164063 11 5 C12.37533113 5.39468129 13.75038642 5.79032681 15.125 6.1875 C16.07375 6.455625 17.0225 6.72375 18 7 C15 9 15 9 12 10 C12.47308594 10.36609375 12.94617187 10.7321875 13.43359375 11.109375 C19.7913501 16.31455564 24.2725367 22.33558993 29 29 C29.99 28.34 30.98 27.68 32 27 C32.495 28.485 32.495 28.485 33 30 C37.58942845 27.93259237 41.35594392 24.8065426 45.34375 21.77734375 C47.70269535 20.19893179 49.2365441 19.423643 52 19 C52 18.34 52 17.68 52 17 C51.22914062 16.95101562 50.45828125 16.90203125 49.6640625 16.8515625 C48.66117188 16.77679688 47.65828125 16.70203125 46.625 16.625 C45.12839844 16.52058594 45.12839844 16.52058594 43.6015625 16.4140625 C41 16 41 16 39 14 C42.64595569 11.56936288 43.91366207 11.89664004 48.1875 12.3125 C49.91806641 12.47878906 49.91806641 12.47878906 51.68359375 12.6484375 C53.32521484 12.82246094 53.32521484 12.82246094 55 13 C55.85722656 13.07476562 56.71445313 13.14953125 57.59765625 13.2265625 C59.40812528 13.40399504 61.20750676 13.68976078 63 14 C63.495 14.99 63.495 14.99 64 16 C62.68 16 61.36 16 60 16 C60 16.66 60 17.32 60 18 C58.98421875 18.21785156 57.9684375 18.43570313 56.921875 18.66015625 C52.49334793 19.92783885 49.62238357 22.39441976 46.25 25.4375 C45.68667969 25.92798828 45.12335938 26.41847656 44.54296875 26.92382812 C41.93830145 29.20522112 39.44914262 31.55085738 37 34 C44.26 36.31 51.52 38.62 59 41 C55.6281407 51.11557789 55.6281407 51.11557789 51.3125 54.625 C50.43464844 55.35847656 49.55679688 56.09195313 48.65234375 56.84765625 C47.77707031 57.55792969 46.90179688 58.26820312 46 59 C44.45313752 60.34822845 42.91091106 61.70180874 41.375 63.0625 C40.25065233 64.04241565 39.12592245 65.02189418 38 66 C35.98202695 64.33910717 35.08463956 63.42606532 34.56762695 60.82348633 C34.54144287 60.00130615 34.51525879 59.17912598 34.48828125 58.33203125 C34.45283203 57.43935547 34.41738281 56.54667969 34.38085938 55.62695312 C34.34702148 54.23379883 34.34702148 54.23379883 34.3125 52.8125 C34.27833984 51.87212891 34.24417969 50.93175781 34.20898438 49.96289062 C34.12651782 47.64204607 34.05736597 45.32157852 34 43 C33.01 43 32.02 43 31 43 C30.72027344 42.23816406 30.44054687 41.47632813 30.15234375 40.69140625 C29.75144531 39.65886719 29.35054687 38.62632813 28.9375 37.5625 C28.55464844 36.55316406 28.17179687 35.54382812 27.77734375 34.50390625 C22.73555114 24.56437225 14.34734973 17.20344071 6.41210938 9.578125 C5.58646484 8.77117188 4.76082031 7.96421875 3.91015625 7.1328125 C3.15871338 6.40980957 2.40727051 5.68680664 1.63305664 4.94189453 C0 3 0 3 0 0 Z " fill="#AB1F26" transform="translate(44,24)"/>
<path d="M0 0 C9.23268761 1.3684162 16.3871368 8.07432172 23.0625 14.1875 C23.62259766 14.69837158 24.18269531 15.20924316 24.75976562 15.7355957 C27.50715662 18.32204636 29.43919865 20.5819501 31 24 C29.69518677 24.15033691 29.69518677 24.15033691 28.36401367 24.30371094 C24.3040496 24.77677895 20.24538178 25.25942301 16.1875 25.75 C15.45947174 25.83792816 14.73144348 25.92585632 13.98135376 26.01644897 C4.34254566 27.19335692 -5.15338781 28.5755701 -14.6027832 30.86816406 C-19.72518627 32.09160458 -19.72518627 32.09160458 -23 31 C-22.45472656 30.50113281 -21.90945312 30.00226563 -21.34765625 29.48828125 C-12.38294875 20.95265376 -5.64828058 10.98434466 0 0 Z " fill="#FDFAFA" transform="translate(180,66)"/>
<path d="M0 0 C0.66 0.66 1.32 1.32 2 2 C1.57589844 2.34289062 1.15179687 2.68578125 0.71484375 3.0390625 C-5.54812738 8.62755982 -8.57625758 15.49690491 -12 23 C-11.20335937 22.71125 -10.40671875 22.4225 -9.5859375 22.125 C-8.52632812 21.75375 -7.46671875 21.3825 -6.375 21 C-5.33085937 20.62875 -4.28671875 20.2575 -3.2109375 19.875 C0.01774506 18.99516436 2.67244294 18.84011738 6 19 C6 19.66 6 20.32 6 21 C3.5636811 21.67126129 1.12611117 22.33716354 -1.3125 23 C-2.00279297 23.19078125 -2.69308594 23.3815625 -3.40429688 23.578125 C-6.35787949 24.37716184 -8.92559219 25 -12 25 C-9.47182458 33.30938775 -5.26040899 39.01756284 1 45 C1.66 45.33 2.32 45.66 3 46 C3.25523438 45.27425781 3.51046875 44.54851562 3.7734375 43.80078125 C5.06801074 40.8447016 6.60455104 38.69435334 8.625 36.1875 C9.25664063 35.39730469 9.88828125 34.60710937 10.5390625 33.79296875 C11.02117188 33.20128906 11.50328125 32.60960937 12 32 C12.66 32.33 13.32 32.66 14 33 C12.37815499 36.58513106 10.20743761 39.58992323 7.875 42.75 C7.15054688 43.73484375 6.42609375 44.7196875 5.6796875 45.734375 C5.12539063 46.48203125 4.57109375 47.2296875 4 48 C5.54202616 47.54287762 7.08360214 47.08423653 8.625 46.625 C9.53894531 46.35300781 10.45289062 46.08101562 11.39453125 45.80078125 C13.38371519 45.18941287 15.35355844 44.51476207 17.3125 43.8125 C20.02717529 42.99178422 22.1824969 42.83426452 25 43 C25 43.66 25 44.32 25 45 C24.34773438 45.19335938 23.69546875 45.38671875 23.0234375 45.5859375 C18.3228602 46.98640448 13.64159109 48.41208726 9 50 C16.38850765 56.11148164 26.67097861 59.39154804 36 61 C36 61.66 36 62.32 36 63 C36.99 63.495 36.99 63.495 38 64 C38 64.66 38 65.32 38 66 C20.99867887 65.46027552 1.13805186 56.86940283 -11 45 C-16.07107467 38.58878931 -18.57645137 33.28209476 -18.45703125 25.03125 C-16.89009318 14.63856676 -7.33037755 6.85317395 0 0 Z " fill="#95A0AC" transform="translate(28,153)"/>
<path d="M0 0 C-6.40408432 8.60583757 -12.84632406 17.17006608 -19.52075195 25.56884766 C-21.44826108 27.99860272 -23.2781089 30.41716335 -25 33 C-25.99 33 -26.98 33 -28 33 C-29.25390625 31.6015625 -29.25390625 31.6015625 -30.5625 29.625 C-34.4355734 24.15367099 -39.18855836 19.64028364 -44 15 C-42.546221 12.092442 -40.679436 11.90827476 -37.671875 10.7578125 C-36.56070313 10.33113281 -35.44953125 9.90445313 -34.3046875 9.46484375 C-33.13164062 9.02269531 -31.95859375 8.58054687 -30.75 8.125 C-29.62335938 7.69058594 -28.49671875 7.25617188 -27.3359375 6.80859375 C-4.81295799 -1.77281606 -4.81295799 -1.77281606 0 0 Z " fill="#FCF8F8" transform="translate(178,66)"/>
<path d="M0 0 C-0.0928125 1.85625 -0.0928125 1.85625 -0.1875 3.75 C-0.21619744 9.747766 1.37030659 15.2669714 3 21 C-20.78877436 28.73801964 -20.78877436 28.73801964 -31 31 C-29.20942318 24.21465627 -26.58123167 19.29942951 -22 14 C-21.50886719 13.40316406 -21.01773437 12.80632812 -20.51171875 12.19140625 C-16.05136168 7.22192653 -6.97215166 0 0 0 Z " fill="#FDFCFD" transform="translate(47,145)"/>
<path d="M0 0 C0.56807373 0.17128418 1.13614746 0.34256836 1.72143555 0.51904297 C12.41535662 3.72084164 22.86693739 6.8020081 34 8 C34 8.66 34 9.32 34 10 C28.02518629 11.84154694 22.04778258 13.67434201 16.06787109 15.49926758 C14.03622091 16.12059749 12.00528384 16.74426436 9.97509766 17.37036133 C7.0477685 18.27267931 4.11793214 19.16641222 1.1875 20.05859375 C-0.16142334 20.47739052 -0.16142334 20.47739052 -1.53759766 20.90464783 C-6.71180907 22.46958875 -11.6154142 23.49382705 -17 24 C-15.3145591 20.13007703 -12.7817323 16.97709353 -10.1875 13.6875 C-6.67100509 9.202772 -3.28720806 4.65638628 0 0 Z " fill="#FEFEFE" transform="translate(82,191)"/>
<path d="M0 0 C4.83472791 1.55929202 8.33191665 4.32010381 12.25 7.4375 C12.88679688 7.92798828 13.52359375 8.41847656 14.1796875 8.92382812 C18.87506013 12.62518038 18.87506013 12.62518038 20 16 C17.00101108 17.00309824 14.00091783 18.0026904 11 19 C10.38263977 19.20520264 9.76527954 19.41040527 9.12921143 19.62182617 C4.72411665 21.08448794 0.31572256 22.53675656 -4.09545898 23.98095703 C-5.67025753 24.49806486 -7.24414011 25.0179697 -8.81713867 25.54052734 C-11.10372195 26.29964745 -13.39323795 27.04922668 -15.68359375 27.796875 C-16.7413224 28.15141754 -16.7413224 28.15141754 -17.82041931 28.51312256 C-22.77213904 30.11393048 -22.77213904 30.11393048 -25 29 C-23.64068359 27.69289063 -23.64068359 27.69289063 -22.25390625 26.359375 C-13.81260185 18.14198096 -6.55334851 9.83002277 0 0 Z " fill="#FCF8F9" transform="translate(127,85)"/>
<path d="M0 0 C7.17814843 1.4401067 13.96557172 3.52980281 20.875 5.9375 C21.90625 6.28490234 22.9375 6.63230469 24 6.99023438 C24.98742187 7.33248047 25.97484375 7.67472656 26.9921875 8.02734375 C27.88276855 8.33406006 28.77334961 8.64077637 29.69091797 8.95678711 C32.02942015 10.01329164 33.33756212 11.07188662 35 13 C33.94425781 13.27094482 33.94425781 13.27094482 32.8671875 13.54736328 C19.2992656 17.05226217 5.96814511 20.65210934 -7 26 C-6.74476563 25.195625 -6.74476563 25.195625 -6.484375 24.375 C-3.99680919 16.3301063 -1.99851481 8.17666464 0 0 Z " fill="#FCF8F8" transform="translate(140,50)"/>
<path d="M0 0 C0.66 0 1.32 0 2 0 C2.804375 1.010625 3.60875 2.02125 4.4375 3.0625 C7.90254329 7.31387481 12.10492649 9.78113717 16.8046875 12.51953125 C17.52914062 13.00808594 18.25359375 13.49664062 19 14 C19 14.66 19 15.32 19 16 C15.08422129 17.41912908 11.16721282 18.83483478 7.25 20.25 C6.15816406 20.64574219 5.06632812 21.04148438 3.94140625 21.44921875 C-1.5530785 23.43243514 -7.05549876 25.39333149 -12.578125 27.296875 C-13.5259082 27.62526367 -14.47369141 27.95365234 -15.45019531 28.29199219 C-18 29 -18 29 -22 29 C-20.61147744 26.00159621 -18.98504907 23.52718972 -16.9375 20.9375 C-16.32132813 20.15761719 -15.70515625 19.37773437 -15.0703125 18.57421875 C-12.10735588 14.89008967 -9.11782236 11.2284023 -6.11328125 7.578125 C-4.65910734 5.80408659 -3.24146522 3.99967363 -1.85546875 2.171875 C-1.24316406 1.45515625 -0.63085938 0.7384375 0 0 Z " fill="#FDFDFD" transform="translate(54,172)"/>
<path d="M0 0 C1.65902344 0.29003906 1.65902344 0.29003906 3.3515625 0.5859375 C5.90447118 1.04110726 8.45330352 1.51145006 11 2 C10.34 3.32 9.68 4.64 9 6 C12.63 6.66 16.26 7.32 20 8 C20 8.66 20 9.32 20 10 C18.05859375 11.296875 18.05859375 11.296875 15.4375 12.75 C11.9789279 14.73402507 8.99560101 16.73728469 6.0625 19.4375 C5.051875 20.283125 4.04125 21.12875 3 22 C2.01 21.67 1.02 21.34 0 21 C-0.33 20.34 -0.66 19.68 -1 19 C-1.99 19.66 -2.98 20.32 -4 21 C-4.35191406 20.443125 -4.70382813 19.88625 -5.06640625 19.3125 C-9.67268284 12.19261556 -14.87865606 5.87649019 -21 0 C-13.91727123 -3.03545519 -7.38159395 -1.32900715 0 0 Z " fill="#AD272D" transform="translate(76,33)"/>
<path d="M0 0 C-1.28541236 2.68482943 -2.69061179 5.1321943 -4.390625 7.57421875 C-5.08031372 8.57001953 -5.08031372 8.57001953 -5.78393555 9.5859375 C-6.26773682 10.27945313 -6.75153809 10.97296875 -7.25 11.6875 C-8.24136593 13.11815674 -9.23225431 14.5491445 -10.22265625 15.98046875 C-10.69977051 16.66931152 -11.17688477 17.3581543 -11.66845703 18.06787109 C-14.15853353 21.6810844 -16.58715012 25.33491157 -19 29 C-25.2437224 26.36003684 -30.2685513 20.25442316 -33 14.125 C-34 11 -34 11 -34 8 C-16.03125 3.5078125 -16.03125 3.5078125 -12.90234375 2.72753906 C-11.10160779 2.27614327 -9.30190898 1.82056111 -7.50390625 1.35839844 C-2.20447531 0 -2.20447531 0 0 0 Z " fill="#FDFDFD" transform="translate(50,170)"/>
<path d="M0 0 C2.82137722 1.1253203 5.6388136 2.2594277 8.453125 3.40234375 C15.24330338 6.15254822 22.00906892 8.79233755 29 11 C25.22619093 14.26793654 20.87292354 15.92939223 16.3125 17.8125 C15.48194092 18.15925781 14.65138184 18.50601563 13.7956543 18.86328125 C5.63983485 22.22605967 -2.64481576 25.17571237 -11 28 C-9.34551913 22.63120959 -7.02733078 17.68426186 -4.56640625 12.65429688 C-2.57540226 8.49711472 -1.15241631 4.46561322 0 0 Z " fill="#FEFEFE" transform="translate(99,154)"/>
<path d="M0 0 C0.495 0.99 0.495 0.99 1 2 C0.36669922 3.84423828 0.36669922 3.84423828 -0.6953125 6.0703125 C-1.08203125 6.885 -1.46875 7.6996875 -1.8671875 8.5390625 C-2.48980469 9.81910156 -2.48980469 9.81910156 -3.125 11.125 C-3.516875 11.95515625 -3.90875 12.7853125 -4.3125 13.640625 C-6.87998708 18.99375165 -9.73861766 24.03972923 -13 29 C-20.6905996 25.25966939 -27.24579904 20.34575433 -33 14 C-33 13.01 -33 12.02 -33 11 C-32.46221924 10.84442627 -31.92443848 10.68885254 -31.37036133 10.52856445 C-20.72573527 7.43386628 -10.25803584 4.23050383 0 0 Z " fill="#FEFEFE" transform="translate(93,156)"/>
<path d="M0 0 C-2.03833253 7.11872194 -4.41625815 14.06207705 -7 21 C-16.21008219 20.43271233 -25.17308033 19.06587202 -34.25 17.4375 C-35.59236116 17.20067957 -36.93480878 16.96434872 -38.27734375 16.72851562 C-41.51910779 16.15712556 -44.75992382 15.58087103 -48 15 C-45.03866618 13.38305173 -42.27861544 12.47999498 -38.9921875 11.73828125 C-38.01330566 11.50963379 -37.03442383 11.28098633 -36.02587891 11.04541016 C-34.98608887 10.8035498 -33.94629883 10.56168945 -32.875 10.3125 C-23.32245992 8.02596467 -14.34484923 5.10263626 -5.2890625 1.3203125 C-2 0 -2 0 0 0 Z " fill="#FEFEFE" transform="translate(118,202)"/>
<path d="M0 0 C0.66 0 1.32 0 2 0 C2.32871094 0.68964844 2.65742187 1.37929687 2.99609375 2.08984375 C6.6620057 9.33225516 10.97921362 14.58129226 17 20 C14.33821779 22.66178221 11.82020322 23.2101855 8.2421875 24.3828125 C7.24761032 24.71150833 7.24761032 24.71150833 6.23294067 25.04684448 C4.11543826 25.74521718 1.99530624 26.43519242 -0.125 27.125 C-1.561379 27.59710565 -2.99757932 28.06975533 -4.43359375 28.54296875 C-7.95367782 29.70163175 -11.47616788 30.85277932 -15 32 C-13.85279925 29.06571053 -12.6620891 26.20496477 -11.23046875 23.3984375 C-10.90111328 22.74810547 -10.57175781 22.09777344 -10.23242188 21.42773438 C-9.88759766 20.75033203 -9.54277344 20.07292969 -9.1875 19.375 C-5.96099941 12.98664637 -2.88666244 6.55050323 0 0 Z " fill="#FEFEFE" transform="translate(78,130)"/>
<path d="M0 0 C0.25068829 9.94396878 -0.3049249 19.1776452 -2 29 C-11.5827212 26.33228274 -19.57602745 22.13413711 -28 17 C-23.7392101 13.54292499 -18.90692658 11.10600227 -14.10742188 8.4921875 C-10.67720006 6.59696561 -3.50437779 0 0 0 Z " fill="#FEFEFE" transform="translate(131,135)"/>
<path d="M0 0 C-1.39235689 3.8117493 -3.16623282 7.03754178 -5.375 10.4375 C-5.99246094 11.39140625 -6.60992187 12.3453125 -7.24609375 13.328125 C-9.15008998 16.22864487 -11.05750999 19.12511478 -13 22 C-18.61861508 21.45578859 -23.12209805 19.94020946 -28.25 17.625 C-28.95640625 17.32078125 -29.6628125 17.0165625 -30.390625 16.703125 C-33.83414363 15.17702015 -36.45448985 13.76428013 -39 11 C-32.49158262 7.89803499 -25.71011459 6.18800998 -18.75 4.375 C-16.41128343 3.75847559 -14.07273362 3.14131814 -11.734375 2.5234375 C-10.70538086 2.25450684 -9.67638672 1.98557617 -8.61621094 1.70849609 C-2.30737422 0 -2.30737422 0 0 0 Z " fill="#FDFDFD" transform="translate(75,192)"/>
<path d="M0 0 C0.66 0.33 1.32 0.66 2 1 C2.02505615 1.57967529 2.0501123 2.15935059 2.07592773 2.7565918 C2.19246234 5.40042107 2.31492682 8.04394409 2.4375 10.6875 C2.47681641 11.59951172 2.51613281 12.51152344 2.55664062 13.45117188 C2.61948242 14.78051758 2.61948242 14.78051758 2.68359375 16.13671875 C2.72025146 16.94842529 2.75690918 17.76013184 2.79467773 18.59643555 C3.01293006 21.15136314 3.32074965 23.52472945 4 26 C6.29534258 27.13545562 6.29534258 27.13545562 9 28 C10.70294787 29.28667172 12.37946188 30.61096733 14 32 C14.268125 31.278125 14.53625 30.55625 14.8125 29.8125 C16.00626144 26.98517028 17.21484551 24.49921628 19 22 C19.99 22 20.98 22 22 22 C21.855625 22.556875 21.71125 23.11375 21.5625 23.6875 C20.97230872 26.11384195 20.476571 28.54906345 20 31 C20.66 31.33 21.32 31.66 22 32 C20.35 32.99 18.7 33.98 17 35 C17.144375 35.56847656 17.28875 36.13695312 17.4375 36.72265625 C18.61545505 41.62262205 19.21427527 45.9645312 19 51 C18.34 51 17.68 51 17 51 C16.32880451 49.5437455 15.66318193 48.08492133 15 46.625 C14.62875 45.81289062 14.2575 45.00078125 13.875 44.1640625 C13 42 13 42 13 40 C12.34 40 11.68 40 11 40 C10.75507812 40.57234375 10.51015625 41.1446875 10.2578125 41.734375 C8.78889901 44.38024402 7.04651756 46.14853139 4.875 48.25 C4.15054688 48.95640625 3.42609375 49.6628125 2.6796875 50.390625 C2.12539062 50.92171875 1.57109375 51.4528125 1 52 C0.34 51.34 -0.32 50.68 -1 50 C0.98 47.69 2.96 45.38 5 43 C4.22914062 43.51691406 3.45828125 44.03382812 2.6640625 44.56640625 C1.66117188 45.22511719 0.65828125 45.88382813 -0.375 46.5625 C-1.37273437 47.22378906 -2.37046875 47.88507813 -3.3984375 48.56640625 C-4.25695312 49.03949219 -5.11546875 49.51257813 -6 50 C-6.66 49.67 -7.32 49.34 -8 49 C-6.41856529 47.56041153 -4.83477221 46.12341355 -3.25 44.6875 C-2.36828125 43.88699219 -1.4865625 43.08648437 -0.578125 42.26171875 C5.41968912 37 5.41968912 37 8 37 C8 36.34 8 35.68 8 35 C6.88625 34.566875 6.88625 34.566875 5.75 34.125 C4.8425 33.75375 3.935 33.3825 3 33 C2.2575 32.731875 1.515 32.46375 0.75 32.1875 C-1 31 -1 31 -1.8125 28.5625 C-2 26 -2 26 -1 23 C-0.92964933 21.31123213 -0.91570408 19.61977953 -0.9375 17.9296875 C-0.94523437 16.95128906 -0.95296875 15.97289063 -0.9609375 14.96484375 C-0.97382812 13.94519531 -0.98671875 12.92554687 -1 11.875 C-1.02538752 9.85161452 -1.04646184 7.82816869 -1.0625 5.8046875 C-1.07410156 4.90733887 -1.08570312 4.00999023 -1.09765625 3.08544922 C-1 1 -1 1 0 0 Z " fill="#AC1F24" transform="translate(77,66)"/>
<path d="M0 0 C3.40202433 1.28924356 6.50564554 2.7652076 9.64453125 4.6015625 C10.48564453 5.09140625 11.32675781 5.58125 12.19335938 6.0859375 C13.05767578 6.59382813 13.92199219 7.10171875 14.8125 7.625 C15.69615234 8.140625 16.57980469 8.65625 17.49023438 9.1875 C19.66194789 10.45531114 21.8317818 11.72622348 24 13 C20.87070317 16.4530172 17.4088628 18.74742278 13.375 21 C12.76124512 21.34740234 12.14749023 21.69480469 11.51513672 22.05273438 C6.51389821 24.83018697 1.40320857 27.10763202 -4 29 C-3.87882812 28.33097656 -3.75765625 27.66195312 -3.6328125 26.97265625 C-2.07010688 18.01715099 -1.00582901 9.03106048 0 0 Z " fill="#FEFEFE" transform="translate(106,119)"/>
<path d="M0 0 C-1.27053028 9.28464433 -5.03404701 18.09126005 -10 26 C-14.46797338 24.60121198 -18.63822079 22.86369228 -22.875 20.875 C-24.02742188 20.33617188 -25.17984375 19.79734375 -26.3671875 19.2421875 C-27.23601562 18.83226563 -28.10484375 18.42234375 -29 18 C-26.24619999 15.07185355 -23.51169633 12.89531538 -20.0859375 10.80078125 C-19.16039063 10.23166016 -18.23484375 9.66253906 -17.28125 9.07617188 C-16.3221875 8.49416016 -15.363125 7.91214844 -14.375 7.3125 C-13.40820312 6.71888672 -12.44140625 6.12527344 -11.4453125 5.51367188 C-2.44237279 0 -2.44237279 0 0 0 Z " fill="#FBF6F7" transform="translate(138,50)"/>
<path d="M0 0 C0.12117188 0.78503906 0.24234375 1.57007813 0.3671875 2.37890625 C1.27186083 8.05051213 2.2579299 13.52492254 4 19 C-1.95068299 18.57733467 -7.65527277 17.95011172 -13.453125 16.54296875 C-18.91141798 15.37931426 -24.47097578 14.73930054 -30 14 C-27.91304273 11.72449138 -26.03322397 10.35193511 -23.234375 9.0625 C-22.50863281 8.72476562 -21.78289062 8.38703125 -21.03515625 8.0390625 C-20.28105469 7.69617188 -19.52695313 7.35328125 -18.75 7 C-17.64205078 6.48566406 -17.64205078 6.48566406 -16.51171875 5.9609375 C-14.34693007 4.9606295 -12.17501155 3.97784978 -10 3 C-9.33935547 2.69707031 -8.67871094 2.39414063 -7.99804688 2.08203125 C-5.14301571 0.80312139 -3.1671417 0 0 0 Z " fill="#FEFEFE" transform="translate(93,2)"/>
<path d="M0 0 C10.82873964 0.50720092 21.39945425 2.87575751 32 5 C28.95272547 8.28623096 25.36696763 9.96149485 21.375 11.875 C19.93414187 12.57918855 18.49403274 13.28491178 17.0546875 13.9921875 C16.35956055 14.3334668 15.66443359 14.67474609 14.94824219 15.02636719 C11.22612562 16.88649261 7.60208988 18.91879252 4 21 C3.87882812 20.07058594 3.75765625 19.14117187 3.6328125 18.18359375 C2.38814199 8.96381236 2.38814199 8.96381236 0 0 Z " fill="#FCF9F9" transform="translate(102,43)"/>
<path d="M0 0 C0.65779458 9.04467541 -1.76562494 17.31187198 -4 26 C-11.58975496 22.7044485 -15.84597388 15.31734059 -19 8 C-19 7.34 -19 6.68 -19 6 C-16.39802798 4.99394407 -13.79370638 3.99497475 -11.1875 3 C-10.08051758 2.57074219 -10.08051758 2.57074219 -8.95117188 2.1328125 C-8.23896484 1.86210938 -7.52675781 1.59140625 -6.79296875 1.3125 C-6.1383667 1.06113281 -5.48376465 0.80976562 -4.80932617 0.55078125 C-3 0 -3 0 0 0 Z " fill="#FDFBFB" transform="translate(102,121)"/>
<path d="M0 0 C0.33 0.66 0.66 1.32 1 2 C1.86625 2.2165625 1.86625 2.2165625 2.75 2.4375 C5.57004329 3.14251082 7.6206635 4.34768299 10 6 C10 6.66 10 7.32 10 8 C8.0707427 9.55461559 6.14352746 11.00790217 4.125 12.4375 C0.88556336 14.7411829 -1.75433913 16.6315087 -4 20 C-0.7 17.69 2.6 15.38 6 13 C6.66 13.33 7.32 13.66 8 14 C0.47937474 23.1152564 -8.29557801 30.31473152 -18 37 C-18.66 36.67 -19.32 36.34 -20 36 C-19.25943359 35.16855469 -19.25943359 35.16855469 -18.50390625 34.3203125 C-17.86324219 33.59585938 -17.22257812 32.87140625 -16.5625 32.125 C-15.92441406 31.40570313 -15.28632812 30.68640625 -14.62890625 29.9453125 C-12.94985535 28.09249509 -12.94985535 28.09249509 -12 26 C-12.66 25.67 -13.32 25.34 -14 25 C-13.55269531 24.40574219 -13.10539062 23.81148437 -12.64453125 23.19921875 C-8.18039334 17.07887616 -4.96403027 10.94937433 -2 4 C-1.34417304 2.66130167 -0.68142579 1.32585109 0 0 Z " fill="#AC1F25" transform="translate(75,95)"/>
<path d="M0 0 C1.99118241 4.97011673 2.24845695 9.12333135 2.125 14.375 C2.11597656 15.11105469 2.10695313 15.84710938 2.09765625 16.60546875 C2.07430144 18.4037888 2.03843836 20.20193911 2 22 C-5.33333333 20 -12.66666667 18 -20 16 C-7.40425532 0 -7.40425532 0 0 0 Z " fill="#FBF6F6" transform="translate(100,43)"/>
<path d="M0 0 C0.66 0.33 1.32 0.66 2 1 C-3.32707473 8.47927398 -8.88043806 15.73840754 -14.58203125 22.93359375 C-15.99617211 24.72697109 -17.38322676 26.54356531 -18.69921875 28.41015625 C-19.12847656 28.93480469 -19.55773437 29.45945312 -20 30 C-20.66 30 -21.32 30 -22 30 C-22.13277344 29.26394531 -22.26554687 28.52789062 -22.40234375 27.76953125 C-22.66724609 26.30580078 -22.66724609 26.30580078 -22.9375 24.8125 C-23.11152344 23.84957031 -23.28554687 22.88664062 -23.46484375 21.89453125 C-23.9523735 19.25760028 -24.46671105 16.6280095 -25 14 C-22.33601004 12.41213132 -19.66832472 10.83057172 -17 9.25 C-16.25621094 8.8065625 -15.51242188 8.363125 -14.74609375 7.90625 C-9.92320977 5.05445774 -5.10935872 2.30817521 0 0 Z " fill="#FAF3F3" transform="translate(118,87)"/>
<path d="M0 0 C-1.56888584 5.48228647 -4.10790314 10.17972194 -6.875 15.125 C-7.52662109 16.32189453 -7.52662109 16.32189453 -8.19140625 17.54296875 C-10.41910222 21.55014558 -12.47712663 24.96869035 -16 28 C-18.78694197 21.84550315 -20.33488247 15.7690103 -19 9 C-16.35094447 5.60724211 -13.39326779 3.98271808 -9.5 2.25 C-8.5615625 1.82203125 -7.623125 1.3940625 -6.65625 0.953125 C-4 0 -4 0 0 0 Z " fill="#FDFCFC" transform="translate(71,134)"/>
<path d="M0 0 C12.66970387 5.18678815 12.66970387 5.18678815 18 8 C17.01 8.33 16.02 8.66 15 9 C14.90912109 10.15628906 14.90912109 10.15628906 14.81640625 11.3359375 C14.73261719 12.33882812 14.64882812 13.34171875 14.5625 14.375 C14.48128906 15.37273437 14.40007812 16.37046875 14.31640625 17.3984375 C14 20 14 20 13 22 C12.01 21.67 11.02 21.34 10 21 C7.96648082 21.80410575 7.96648082 21.80410575 5.875 23.125 C5.08609375 23.58390625 4.2971875 24.0428125 3.484375 24.515625 C2.66453125 25.00546875 1.8446875 25.4953125 1 26 C-0.61948814 26.9676187 -2.24428929 27.92641665 -3.875 28.875 C-4.59429687 29.30554688 -5.31359375 29.73609375 -6.0546875 30.1796875 C-8 31 -8 31 -11 30 C-11.6875 27.9375 -11.6875 27.9375 -12 26 C-11.41734375 25.87616943 -10.8346875 25.75233887 -10.234375 25.62475586 C-7.98176544 24.99490142 -6.27194472 24.16762108 -4.25 23.00390625 C-3.5590625 22.61009766 -2.868125 22.21628906 -2.15625 21.81054688 C-1.4446875 21.39869141 -0.733125 20.98683594 0 20.5625 C1.41620275 19.75049244 2.83285574 18.93926953 4.25 18.12890625 C4.87390625 17.76869385 5.4978125 17.40848145 6.140625 17.03735352 C8.06180345 15.96551958 10.03231006 14.98384497 12 14 C7.05 11.36 2.1 8.72 -3 6 C-1 1 -1 1 0 0 Z " fill="#D8302B" transform="translate(108,67)"/>
<path d="M0 0 C0.98355469 0.25394531 1.96710937 0.50789063 2.98046875 0.76953125 C14.55798363 3.66920909 26.16739889 5.48760157 38 7 C36.4949321 10.0101358 34.11973364 10.56367691 31.125 12 C27.91895555 13.54508166 24.96387739 15.02408174 22 17 C19.25 17.625 19.25 17.625 16 17 C14.10029677 15.24152171 12.55593173 13.33450717 10.9453125 11.30859375 C8.17968296 8.02649122 4.98113686 5.34617853 1.72265625 2.56640625 C1.15417969 2.04949219 0.58570313 1.53257813 0 1 C0 0.67 0 0.34 0 0 Z " fill="#FDFDFD" transform="translate(60,17)"/>
<path d="M0 0 C8.75861562 0.79623778 17.35560508 2.42197613 26 4 C26 4.66 26 5.32 26 6 C24.05859375 7.296875 24.05859375 7.296875 21.4375 8.75 C17.9789279 10.73402507 14.99560101 12.73728469 12.0625 15.4375 C11.051875 16.283125 10.04125 17.12875 9 18 C6 17 6 17 5.10864258 15.32592773 C4.87298584 14.61895752 4.6373291 13.9119873 4.39453125 13.18359375 C4.13349609 12.41982422 3.87246094 11.65605469 3.60351562 10.86914062 C3.34248047 10.06669922 3.08144531 9.26425781 2.8125 8.4375 C2.40354492 7.22803711 2.40354492 7.22803711 1.98632812 5.99414062 C1.31362519 3.99963545 0.65543585 2.00024598 0 0 Z " fill="#FAF4F4" transform="translate(70,37)"/>
<path d="M0 0 C0.66 0 1.32 0 2 0 C2.67934107 1.22220737 3.34291523 2.45318451 4 3.6875 C4.37125 4.37199219 4.7425 5.05648437 5.125 5.76171875 C6.12558902 8.32126121 6.0631369 10.27524816 6 13 C5.44127197 13.22139648 4.88254395 13.44279297 4.30688477 13.67089844 C1.72466449 14.69536481 -0.85641866 15.7226677 -3.4375 16.75 C-4.31599609 17.09804687 -5.19449219 17.44609375 -6.09960938 17.8046875 C-11.21660641 19.84393355 -16.2415157 21.98546938 -21.20727539 24.37207031 C-21.79887451 24.57928711 -22.39047363 24.78650391 -23 25 C-23.66 24.67 -24.32 24.34 -25 24 C-24.35675781 23.50113281 -23.71351562 23.00226563 -23.05078125 22.48828125 C-17.34233055 17.95246521 -12.02515478 13.21840032 -6.875 8.0625 C-6.30692627 7.4950708 -5.73885254 6.9276416 -5.15356445 6.34301758 C-2.21935851 3.44079192 -2.21935851 3.44079192 0 0 Z " fill="#FAF4F4" transform="translate(88,106)"/>
<path d="M0 0 C10.125 1.125 10.125 1.125 14.5625 3.0625 C15.83287109 3.60583984 15.83287109 3.60583984 17.12890625 4.16015625 C17.74636719 4.43730469 18.36382812 4.71445313 19 5 C17.89973881 6.10026119 16.79872177 7.19977093 15.6953125 8.296875 C14.38836681 9.60984348 13.09384056 10.93518234 11.8046875 12.265625 C11.02351563 13.06484375 10.24234375 13.8640625 9.4375 14.6875 C8.69371094 15.45449219 7.94992188 16.22148438 7.18359375 17.01171875 C5 19 5 19 1 21 C0.67 14.07 0.34 7.14 0 0 Z " fill="#FBF6F6" transform="translate(79,65)"/>
<path d="M0 0 C4.23322844 0.62045463 7.52290295 2.10523559 11.3125 4.0625 C12.38113281 4.61035156 13.44976562 5.15820312 14.55078125 5.72265625 C15.35902344 6.14417969 16.16726562 6.56570312 17 7 C14.20438515 10.3758368 10.39083572 12.04729185 6.5625 14 C2.44969691 16.10994334 -1.30545498 18.20507232 -5 21 C-5.66 21 -6.32 21 -7 21 C-6.731875 20.34 -6.46375 19.68 -6.1875 19 C-5.795625 18.01 -5.40375 17.02 -5 16 C-4.63841797 15.09314453 -4.63841797 15.09314453 -4.26953125 14.16796875 C-2.45672855 9.50253237 -1.13193457 4.87602582 0 0 Z " fill="#FAF3F3" transform="translate(104,73)"/>
<path d="M0 0 C0.89604368 6.04829486 1.11269443 11.8894576 1 18 C-3.55564061 16.41467191 -7.31475769 14.00996919 -11.3125 11.375 C-11.95767578 10.95476562 -12.60285156 10.53453125 -13.26757812 10.1015625 C-14.84760724 9.07161759 -16.42416047 8.03634372 -18 7 C-17.67 6.01 -17.34 5.02 -17 4 C-14.453125 2.83203125 -14.453125 2.83203125 -11.25 1.8125 C-10.20328125 1.46832031 -9.1565625 1.12414062 -8.078125 0.76953125 C-5.22909507 0.05727377 -2.91669884 -0.15663753 0 0 Z " fill="#FDFBFB" transform="translate(130,112)"/>
<path d="M0 0 C-5.19970271 7.51068169 -11.47199125 13.66212743 -18 20 C-16.02 19.67 -14.04 19.34 -12 19 C-11.34 20.65 -10.68 22.3 -10 24 C-19.405 26.97 -19.405 26.97 -29 30 C-29.33 28.35 -29.66 26.7 -30 25 C-29.01 25 -28.02 25 -27 25 C-27 24.34 -27 23.68 -27 23 C-25.68 23 -24.36 23 -23 23 C-22.73195557 22.41879395 -22.46391113 21.83758789 -22.18774414 21.23876953 C-20.98028099 18.9628318 -19.63830373 17.16056725 -17.99609375 15.1796875 C-17.42052734 14.47972656 -16.84496094 13.77976562 -16.25195312 13.05859375 C-15.65318359 12.33800781 -15.05441406 11.61742188 -14.4375 10.875 C-13.24704187 9.4362645 -12.05816127 7.99622179 -10.87109375 6.5546875 C-10.34443115 5.92030762 -9.81776855 5.28592773 -9.27514648 4.63232422 C-7.92496408 3.0150896 -7.92496408 3.0150896 -7 1 C-4.01793274 -0.8886426 -3.49368922 -1.16456307 0 0 Z " fill="#AD252B" transform="translate(121,94)"/>
<path d="M0 0 C0.66 0.33 1.32 0.66 2 1 C1.0910499 3.52385145 0.17313901 6.04383947 -0.75 8.5625 C-1.00265625 9.26697266 -1.2553125 9.97144531 -1.515625 10.69726562 C-3.26665856 15.44694414 -5.38055201 19.66652192 -8 24 C-11.5786304 22.34832443 -14.74820188 20.21713508 -18 18 C-16.41092475 13.85074796 -13.36467701 11.31591806 -10.125 8.4375 C-9.59519531 7.95603516 -9.06539062 7.47457031 -8.51953125 6.97851562 C-5.77768026 4.50540685 -3.00076351 2.15272165 0 0 Z " fill="#FBF5F5" transform="translate(99,74)"/>
<path d="M0 0 C4.19687693 3.95000181 7.75614164 8.22896434 11 13 C11 13.33 11 13.66 11 14 C6.29364011 13.55177525 1.64419473 13.01954794 -3 12.125 C-3.7425 11.98320312 -4.485 11.84140625 -5.25 11.6953125 C-5.8275 11.46585938 -6.405 11.23640625 -7 11 C-7.33 10.01 -7.66 9.02 -8 8 C-6.85546875 6.2109375 -6.85546875 6.2109375 -5.1875 4.375 C-4.64480469 3.76398437 -4.10210937 3.15296875 -3.54296875 2.5234375 C-2 1 -2 1 0 0 Z " fill="#FCF9F9" transform="translate(58,18)"/>
<path d="M0 0 C1.32 0.33 2.64 0.66 4 1 C2.40594414 9.64468757 -2.38394221 13.63115193 -9 19 C-10.54686248 20.34822845 -12.08908894 21.70180874 -13.625 23.0625 C-14.74934767 24.04241565 -15.87407755 25.02189418 -17 26 C-18.48828125 24.98046875 -18.48828125 24.98046875 -20 23 C-20.2172101 20.35003674 -20.28351554 17.94923442 -20.1875 15.3125 C-20.17396484 14.61060547 -20.16042969 13.90871094 -20.14648438 13.18554688 C-20.11120182 11.45670171 -20.05739583 9.72825235 -20 8 C-19.67 8 -19.34 8 -19 8 C-18.67 12.29 -18.34 16.58 -18 21 C-15.53790656 18.77080729 -13.07618738 16.54119846 -10.6171875 14.30859375 C-8.62322399 12.54973937 -6.63291734 10.95081207 -4.5 9.375 C-1.29217281 6.32756417 -0.83885991 4.27818556 0 0 Z " fill="#B72327" transform="translate(99,64)"/>
<path d="M0 0 C0.66 0.33 1.32 0.66 2 1 C-5.52062526 10.1152564 -14.29557801 17.31473152 -24 24 C-24.66 23.67 -25.32 23.34 -26 23 C-18.16137369 13.84057951 -10.08582202 6.60949579 0 0 Z " fill="#F5E6E6" transform="translate(81,108)"/>
<path d="M0 0 C0.83848804 1.45537568 1.67063934 2.91440373 2.5 4.375 C2.9640625 5.18710937 3.428125 5.99921875 3.90625 6.8359375 C5 9 5 9 5 11 C2.89551062 10.85890014 0.7914123 10.71195825 -1.3125 10.5625 C-2.48425781 10.48128906 -3.65601562 10.40007813 -4.86328125 10.31640625 C-8 10 -8 10 -11 9 C-9.2307392 4.22299585 -5.2426655 0 0 0 Z " fill="#FBF7F7" transform="translate(100,27)"/>
<path d="M0 0 C1.77305664 0.25587405 3.54344608 0.53027739 5.3125 0.8125 C6.79169922 1.03873047 6.79169922 1.03873047 8.30078125 1.26953125 C11.2772708 2.07503566 12.24703425 2.50109138 14 5 C15.203125 8.03125 15.203125 8.03125 16.25 11.5 C16.60578125 12.6446875 16.9615625 13.789375 17.328125 14.96875 C18 18 18 18 17 21 C16.64808594 20.443125 16.29617187 19.88625 15.93359375 19.3125 C11.32731716 12.19261556 6.12134394 5.87649019 0 0 Z " fill="#F7EBEB" transform="translate(55,33)"/>
<path d="M0 0 C2.9719385 1.12451727 5.33440687 2.22293791 8 4 C8 4.66 8 5.32 8 6 C6.09587525 7.6354808 4.20199329 9.13794613 2.1875 10.625 C1.36668945 11.25535156 1.36668945 11.25535156 0.52929688 11.8984375 C-3.62458147 15 -3.62458147 15 -7 15 C-6.66226563 14.33613281 -6.32453125 13.67226562 -5.9765625 12.98828125 C-5.53054687 12.10527344 -5.08453125 11.22226563 -4.625 10.3125 C-4.18414062 9.44238281 -3.74328125 8.57226562 -3.2890625 7.67578125 C-2.07335732 5.15227201 -1.00739042 2.61262468 0 0 Z " fill="#F6EAEB" transform="translate(77,97)"/>
<path d="M0 0 C0 0.99 0 1.98 0 3 C-2.58193977 3.67250524 -5.16532071 4.33817901 -7.75 5 C-8.47960937 5.19078125 -9.20921875 5.3815625 -9.9609375 5.578125 C-13.44571646 6.46515964 -16.38123722 7 -20 7 C-19.32421875 4.58203125 -19.32421875 4.58203125 -18 2 C-15.64453125 1.07421875 -15.64453125 1.07421875 -12.8125 0.6875 C-11.8328125 0.54957031 -10.853125 0.41164063 -9.84375 0.26953125 C-6.51745822 -0.04573542 -3.33647905 -0.14828796 0 0 Z " fill="#A9181E" transform="translate(183,94)"/>
<path d="M0 0 C0.66 0.66 1.32 1.32 2 2 C-0.93666226 2.67055285 -3.87422359 3.33659053 -6.8125 4 C-8.06256836 4.28617187 -8.06256836 4.28617187 -9.33789062 4.578125 C-10.14033203 4.75859375 -10.94277344 4.9390625 -11.76953125 5.125 C-12.50792236 5.29257813 -13.24631348 5.46015625 -14.00708008 5.6328125 C-16 6 -16 6 -19 6 C-19 5.01 -19 4.02 -19 3 C-20.32 2.67 -21.64 2.34 -23 2 C-7.36466639 -0.49097776 -7.36466639 -0.49097776 0 0 Z " fill="#B02B31" transform="translate(202,91)"/>
<path d="M0 0 C3.465 1.485 3.465 1.485 7 3 C6.01 3.33 5.02 3.66 4 4 C3.93941406 4.77085938 3.87882812 5.54171875 3.81640625 6.3359375 C3.73261719 7.33882813 3.64882812 8.34171875 3.5625 9.375 C3.48128906 10.37273437 3.40007812 11.37046875 3.31640625 12.3984375 C3 15 3 15 2 17 C0.68 16.67 -0.64 16.34 -2 16 C-2.1875 13.625 -2.1875 13.625 -2 11 C-1.01 10.34 -0.02 9.68 1 9 C0.34 8.34 -0.32 7.68 -1 7 C-1.1875 3.9375 -1.1875 3.9375 -1 1 C-0.67 0.67 -0.34 0.34 0 0 Z " fill="#C52A2A" transform="translate(119,72)"/>
<path d="M0 0 C0.26218749 3.14624993 0.24754367 4.61837017 -1.5 7.3125 C-2.2425 8.1478125 -2.2425 8.1478125 -3 9 C-1.02 9 0.96 9 3 9 C3.99 10.98 4.98 12.96 6 15 C2.7 14.67 -0.6 14.34 -4 14 C-3.67 13.01 -3.34 12.02 -3 11 C-3.33 10.01 -3.66 9.02 -4 8 C-4.66 8 -5.32 8 -6 8 C-3.18918919 0 -3.18918919 0 0 0 Z " fill="#DDDFE2" transform="translate(68,206)"/>
<path d="M0 0 C0.66 0.33 1.32 0.66 2 1 C2.02505615 1.59014893 2.0501123 2.18029785 2.07592773 2.78833008 C2.19200052 5.46326814 2.31467572 8.1378638 2.4375 10.8125 C2.47681641 11.74126953 2.51613281 12.67003906 2.55664062 13.62695312 C2.59853516 14.51962891 2.64042969 15.41230469 2.68359375 16.33203125 C2.72025146 17.15421143 2.75690918 17.9763916 2.79467773 18.82348633 C2.93427772 21.17905178 2.93427772 21.17905178 4 24 C3.34 24.66 2.68 25.32 2 26 C1.67 25.67 1.34 25.34 1 25 C0.34 25.66 -0.32 26.32 -1 27 C-1.02886537 22.68751391 -1.04675255 18.37505238 -1.0625 14.0625 C-1.07087891 12.83080078 -1.07925781 11.59910156 -1.08789062 10.33007812 C-1.09111328 9.16025391 -1.09433594 7.99042969 -1.09765625 6.78515625 C-1.10289307 5.70113525 -1.10812988 4.61711426 -1.11352539 3.50024414 C-1 1 -1 1 0 0 Z " fill="#A70F16" transform="translate(77,66)"/>
<path d="M0 0 C1.1875 3.5625 1.1875 3.5625 2 7 C1.01 7.33 0.02 7.66 -1 8 C-1 5.69 -1 3.38 -1 1 C-11.89 5.455 -11.89 5.455 -23 10 C-22.67 8.68 -22.34 7.36 -22 6 C-19.26953125 4.5859375 -19.26953125 4.5859375 -15.8125 3.375 C-14.68457031 2.97023437 -13.55664062 2.56546875 -12.39453125 2.1484375 C-11.27433594 1.76945313 -10.15414062 1.39046875 -9 1 C-7.93136719 0.60039062 -6.86273438 0.20078125 -5.76171875 -0.2109375 C-3 -1 -3 -1 0 0 Z " fill="#E1E3E5" transform="translate(94,1)"/>
<path d="M0 0 C1 3 1 3 0.22265625 5.04296875 C-0.16019531 5.75066406 -0.54304688 6.45835938 -0.9375 7.1875 C-1.31777344 7.90292969 -1.69804688 8.61835938 -2.08984375 9.35546875 C-2.39019531 9.89816406 -2.69054688 10.44085938 -3 11 C-5.4375 10.1875 -5.4375 10.1875 -8 9 C-8.33 8.01 -8.66 7.02 -9 6 C-7.8803014 4.99406757 -6.7540588 3.9954151 -5.625 3 C-4.68527344 2.1646875 -4.68527344 2.1646875 -3.7265625 1.3125 C-2 0 -2 0 0 0 Z " fill="#B5BCC4" transform="translate(53,17)"/>
<path d="M0 0 C-6.28094898 9.08687121 -6.28094898 9.08687121 -11 11 C-11.99 10.67 -12.98 10.34 -14 10 C-12.92646259 8.5344405 -11.8407446 7.07779848 -10.75 5.625 C-10.14671875 4.81289062 -9.5434375 4.00078125 -8.921875 3.1640625 C-5.947799 -0.18479543 -4.36155009 -1.45385003 0 0 Z " fill="#C32B2C" transform="translate(121,94)"/>
<path d="M0 0 C3.63 0.66 7.26 1.32 11 2 C11 2.66 11 3.32 11 4 C11.66 4.33 12.32 4.66 13 5 C13 5.66 13 6.32 13 7 C11.39504433 6.88557539 9.79101881 6.75805306 8.1875 6.625 C7.29417969 6.55539063 6.40085937 6.48578125 5.48046875 6.4140625 C3 6 3 6 0 4 C0 2.68 0 1.36 0 0 Z " fill="#ADB6BF" transform="translate(53,212)"/>
<path d="M0 0 C0.33 0 0.66 0 1 0 C1.33 4.29 1.66 8.58 2 13 C2.928125 12.154375 3.85625 11.30875 4.8125 10.4375 C6.39453125 8.99609375 6.39453125 8.99609375 8 8 C8.99 8.33 9.98 8.66 11 9 C11 9.66 11 10.32 11 11 C9.25 12.7265625 9.25 12.7265625 7 14.625 C6.2575 15.25664063 5.515 15.88828125 4.75 16.5390625 C4.1725 17.02117187 3.595 17.50328125 3 18 C1.51171875 16.98046875 1.51171875 16.98046875 0 15 C-0.2172101 12.35003674 -0.28351554 9.94923442 -0.1875 7.3125 C-0.17396484 6.61060547 -0.16042969 5.90871094 -0.14648438 5.18554688 C-0.11120182 3.45670171 -0.05739583 1.72825235 0 0 Z " fill="#B02F34" transform="translate(79,72)"/>
<path d="M0 0 C0.66 0.33 1.32 0.66 2 1 C1.88597936 3.27141109 1.75841495 5.54214552 1.625 7.8125 C1.55539063 9.07707031 1.48578125 10.34164062 1.4140625 11.64453125 C1 15 1 15 -1 18 C-4.625 18.6875 -4.625 18.6875 -8 19 C-6.7260411 16.96166576 -5.38938077 14.96147874 -4 13 C-3.34 13 -2.68 13 -2 13 C-1.93941406 12.22914062 -1.87882812 11.45828125 -1.81640625 10.6640625 C-1.73261719 9.66117188 -1.64882812 8.65828125 -1.5625 7.625 C-1.48128906 6.62726563 -1.40007812 5.62953125 -1.31640625 4.6015625 C-1 2 -1 2 0 0 Z " fill="#BC2224" transform="translate(123,76)"/>
<path d="M0 0 C0 0.99 0 1.98 0 3 C-3.3 3.66 -6.6 4.32 -10 5 C-10 4.34 -10 3.68 -10 3 C-10.99 2.67 -11.98 2.34 -13 2 C-8.46298506 0.54815522 -4.81938524 -0.23509196 0 0 Z " fill="#C4C9CF" transform="translate(44,169)"/>
<path d="M0 0 C0.66 0 1.32 0 2 0 C2.33 0.99 2.66 1.98 3 3 C1.78515625 5.04296875 1.78515625 5.04296875 0.0625 7.1875 C-0.50339844 7.90292969 -1.06929687 8.61835938 -1.65234375 9.35546875 C-2.09707031 9.89816406 -2.54179688 10.44085938 -3 11 C-3.99 10.01 -4.98 9.02 -6 8 C-5.04956626 6.66102417 -4.08940853 5.32894573 -3.125 4 C-2.59132812 3.2575 -2.05765625 2.515 -1.5078125 1.75 C-1.01023437 1.1725 -0.51265625 0.595 0 0 Z " fill="#CDD1D6" transform="translate(46,176)"/>
<path d="M0 0 C0 3 0 3 -1.609375 5.0078125 C-2.66898438 6.05582031 -2.66898438 6.05582031 -3.75 7.125 C-4.44609375 7.82882813 -5.1421875 8.53265625 -5.859375 9.2578125 C-7.99788242 10.99827657 -9.30910227 11.60000169 -12 12 C-8.49777237 6.88327027 -5.41372419 3.09355668 0 0 Z " fill="#B41B20" transform="translate(111,103)"/>
<path d="M0 0 C0.66 0.66 1.32 1.32 2 2 C1.51789062 2.47050781 1.03578125 2.94101563 0.5390625 3.42578125 C-0.09257812 4.04839844 -0.72421875 4.67101562 -1.375 5.3125 C-2.00148438 5.92738281 -2.62796875 6.54226562 -3.2734375 7.17578125 C-5.18086607 9.08812528 -5.18086607 9.08812528 -7 12 C-8.32 11.67 -9.64 11.34 -11 11 C-7.37 7.37 -3.74 3.74 0 0 Z " fill="#9AA5B0" transform="translate(28,153)"/>
<path d="M0 0 C0.66 1.32 1.32 2.64 2 4 C-0.97 5.65 -3.94 7.3 -7 9 C-7 6 -7 6 -4.625 3.375 C-2 1 -2 1 0 0 Z " fill="#BB2A2D" transform="translate(122,54)"/>
<path d="M0 0 C0 0.66 0 1.32 0 2 C-1.78910903 2.52955234 -3.58139148 3.0483937 -5.375 3.5625 C-6.87160156 3.99755859 -6.87160156 3.99755859 -8.3984375 4.44140625 C-11 5 -11 5 -13 4 C-13 3.34 -13 2.68 -13 2 C-8.46298506 0.54815522 -4.81938524 -0.23509196 0 0 Z " fill="#A1ABB5" transform="translate(34,172)"/>
<path d="M0 0 C0.33 0.99 0.66 1.98 1 3 C-4.445 4.485 -4.445 4.485 -10 6 C-10.33 4.68 -10.66 3.36 -11 2 C-3.375 0 -3.375 0 0 0 Z " fill="#AF282E" transform="translate(170,64)"/>
<path d="M0 0 C0.99 0.33 1.98 0.66 3 1 C2.01 3.64 1.02 6.28 0 9 C-1.32 8.67 -2.64 8.34 -4 8 C-3.40138258 5.64828869 -2.73075648 3.3140622 -2 1 C-1.34 0.67 -0.68 0.34 0 0 Z " fill="#C83535" transform="translate(100,80)"/>
<path d="M0 0 C-0.25 1.875 -0.25 1.875 -1 4 C-3.0625 5.25 -3.0625 5.25 -5 6 C-5.99 5.01 -6.98 4.02 -8 3 C-7 1 -7 1 -4.5625 -0.1875 C-2 -1 -2 -1 0 0 Z " fill="#C52A2A" transform="translate(104,92)"/>
<path d="M0 0 C0.66 0.33 1.32 0.66 2 1 C0.49776416 5.20626034 -2.28550034 6.73900021 -6 9 C-6.66 8.34 -7.32 7.68 -8 7 C-5.80075931 3.64326421 -3.61730402 1.76227632 0 0 Z " fill="#AF292F" transform="translate(69,113)"/>
<path d="M0 0 C0 0.99 0 1.98 0 3 C-2.31 3.33 -4.62 3.66 -7 4 C-7 3.01 -7 2.02 -7 1 C-8.32 0.67 -9.64 0.34 -11 0 C-3.57142857 -1.28571429 -3.57142857 -1.28571429 0 0 Z " fill="#B53B40" transform="translate(190,93)"/>
<path d="M0 0 C0 0.99 0 1.98 0 3 C-6.625 6.125 -6.625 6.125 -10 5 C-9.34 5 -8.68 5 -8 5 C-7.67 3.68 -7.34 2.36 -7 1 C-4.50935112 0.31292445 -2.62113708 0 0 0 Z " fill="#A9161D" transform="translate(160,67)"/>
<path d="M0 0 C0.33 0.99 0.66 1.98 1 3 C-1.97 5.475 -1.97 5.475 -5 8 C-5.66 7.01 -6.32 6.02 -7 5 C-2.25 0 -2.25 0 0 0 Z " fill="#AB1C22" transform="translate(95,74)"/>
<path d="M0 0 C1.67542976 0.28604898 3.34385343 0.61781233 5 1 C5.66 2.98 6.32 4.96 7 7 C3.5625 5.6875 3.5625 5.6875 0 4 C-0.33 3.01 -0.66 2.02 -1 1 C-0.67 0.67 -0.34 0.34 0 0 Z " fill="#DD312B" transform="translate(109,71)"/>
<path d="M0 0 C3.25543229 0.34879632 4.01873107 1.02133261 6.25 3.5625 C6.8275 4.366875 7.405 5.17125 8 6 C7.34 6.66 6.68 7.32 6 8 C4.99403703 7.0479279 3.99538437 6.08812654 3 5.125 C2.443125 4.59132813 1.88625 4.05765625 1.3125 3.5078125 C0 2 0 2 0 0 Z " fill="#A9151B" transform="translate(61,42)"/>
<path d="M0 0 C-0.33 1.65 -0.66 3.3 -1 5 C-2.98 5 -4.96 5 -7 5 C-5.22678182 1.07358831 -4.52021524 0 0 0 Z " fill="#A9181F" transform="translate(92,120)"/>
<path d="M0 0 C3.24208567 0.35049575 4.61527704 0.56221181 6.8125 3.0625 C7.204375 3.701875 7.59625 4.34125 8 5 C6.25 5.75 6.25 5.75 4 6 C1.75 4.1875 1.75 4.1875 0 2 C0 1.34 0 0.68 0 0 Z " fill="#AF2A2F" transform="translate(56,37)"/>
<path d="M0 0 C0.99 0.33 1.98 0.66 3 1 C0.3765992 3.91488977 -2.71816394 5.88503898 -6 8 C-6.66 7.67 -7.32 7.34 -8 7 C-6.74057614 5.80040625 -5.46704714 4.61560557 -4.1875 3.4375 C-3.12595703 2.44556641 -3.12595703 2.44556641 -2.04296875 1.43359375 C-1.36878906 0.96050781 -0.69460937 0.48742187 0 0 Z " fill="#AA1E22" transform="translate(37,146)"/>
<path d="M0 0 C0 0.99 0 1.98 0 3 C-0.66 3 -1.32 3 -2 3 C-2 3.66 -2 4.32 -2 5 C-3.32 5.33 -4.64 5.66 -6 6 C-6 4.33333333 -6 2.66666667 -6 1 C-3 0 -3 0 0 0 Z " fill="#B13237" transform="translate(152,69)"/>
<path d="M0 0 C0.66 0.33 1.32 0.66 2 1 C0.8141763 4.37503669 -0.27573689 6.64722731 -3 9 C-3.66 8.67 -4.32 8.34 -5 8 C-3.35 5.36 -1.7 2.72 0 0 Z " fill="#A9171D" transform="translate(70,107)"/>
<path d="M0 0 C-0.66 0.66 -1.32 1.32 -2 2 C-2.33 2.66 -2.66 3.32 -3 4 C-5.5625 4.625 -5.5625 4.625 -8 5 C-6.19780722 -0.02039417 -5.34443412 -1.60333024 0 0 Z " fill="#A9161C" transform="translate(148,72)"/>
<path d="M0 0 C0 0.66 0 1.32 0 2 C-2.90600261 3.25664978 -4.79604584 4 -8 4 C-8.33 3.01 -8.66 2.02 -9 1 C-5.92677456 0.08941469 -3.19902639 -0.08886184 0 0 Z " fill="#B9C0C7" transform="translate(53,196)"/>
<path d="M0 0 C0.33 2.31 0.66 4.62 1 7 C-1.4375 6.1875 -1.4375 6.1875 -4 5 C-4.33 4.01 -4.66 3.02 -5 2 C-1.125 0 -1.125 0 0 0 Z " fill="#A8A7B1" transform="translate(49,21)"/>
<path d="M0 0 C1.32 0 2.64 0 4 0 C4 0.66 4 1.32 4 2 C4.66 2.33 5.32 2.66 6 3 C6 3.66 6 4.32 6 5 C4.02 5 2.04 5 0 5 C0.66 4.67 1.32 4.34 2 4 C1.34 2.68 0.68 1.36 0 0 Z " fill="#C2C7CE" transform="translate(60,214)"/>
<path d="M0 0 C-0.33 0.66 -0.66 1.32 -1 2 C-3.5625 2.625 -3.5625 2.625 -6 3 C-6 2.34 -6 1.68 -6 1 C-6.99 0.67 -7.98 0.34 -9 0 C-5.67465243 -1.10844919 -3.37817425 -0.84454356 0 0 Z " fill="#D6D8DC" transform="translate(59,195)"/>
<path d="M0 0 C2.4294516 3.6441774 2.16179575 5.71241272 2 10 C1.34 10 0.68 10 0 10 C-0.74926071 6.33694766 -1.2380014 3.57644848 0 0 Z " fill="#A70F13" transform="translate(94,107)"/>
<path d="M0 0 C1.98 0 3.96 0 6 0 C6 0.99 6 1.98 6 3 C4.02 3.33 2.04 3.66 0 4 C0 2.68 0 1.36 0 0 Z " fill="#D8DBDE" transform="translate(38,169)"/>
<path d="M0 0 C0 1.65 0 3.3 0 5 C-1.32 5.33 -2.64 5.66 -4 6 C-3.625 3.5625 -3.625 3.5625 -3 1 C-1 0 -1 0 0 0 Z " fill="#D72F2B" transform="translate(117,83)"/>
<path d="M0 0 C0.93423645 3.01031744 1.04449911 3.86650268 0 7 C-0.99 7 -1.98 7 -3 7 C-3.33 7.66 -3.66 8.32 -4 9 C-3.46930939 5.17902761 -2.50298434 2.93828597 0 0 Z " fill="#C71C1A" transform="translate(103,73)"/>
<path d="M0 0 C3 3 3 3 3.1875 6.1875 C3.0946875 7.5796875 3.0946875 7.5796875 3 9 C2.34 9 1.68 9 1 9 C0.67 6.03 0.34 3.06 0 0 Z " fill="#AA171C" transform="translate(101,44)"/>
<path d="M0 0 C1.32 0 2.64 0 4 0 C3.67 0.66 3.34 1.32 3 2 C2.01 1.34 1.02 0.68 0 0 Z M0 2 C0.99 2 1.98 2 3 2 C3.33 2.99 3.66 3.98 4 5 C2.35 5.33 0.7 5.66 -1 6 C-0.67 4.68 -0.34 3.36 0 2 Z " fill="#B02F35" transform="translate(160,97)"/>
<path d="M0 0 C0.99 0.33 1.98 0.66 3 1 C2.34 2.65 1.68 4.3 1 6 C-0.32 5.34 -1.64 4.68 -3 4 C-2.01 2.68 -1.02 1.36 0 0 Z " fill="#AF2B32" transform="translate(177,66)"/>
<path d="M0 0 C0.66 0 1.32 0 2 0 C2.33 1.32 2.66 2.64 3 4 C1.35 4.66 -0.3 5.32 -2 6 C-1.34 4.02 -0.68 2.04 0 0 Z " fill="#AC2228" transform="translate(135,60)"/>
<path d="M0 0 C0.99 0 1.98 0 3 0 C3 0.99 3 1.98 3 3 C3.66 3.33 4.32 3.66 5 4 C2.69 4 0.38 4 -2 4 C-1.34 2.68 -0.68 1.36 0 0 Z " fill="#D2D5DA" transform="translate(66,216)"/>
<path d="M0 0 C0.66 0.66 1.32 1.32 2 2 C-0.97 4.475 -0.97 4.475 -4 7 C-4 4 -4 4 -2 1.8125 C-1.34 1.214375 -0.68 0.61625 0 0 Z " fill="#C2B8BE" transform="translate(28,153)"/>
<path d="M0 0 C2 1 2 1 3 3 C-1.455 4.485 -1.455 4.485 -6 6 C-4 4 -2 2 0 0 Z " fill="#F2DFE0" transform="translate(69,125)"/>
<path d="M0 0 C1.65 0 3.3 0 5 0 C5.33 0.66 5.66 1.32 6 2 C3.69 2.33 1.38 2.66 -1 3 C-0.67 2.01 -0.34 1.02 0 0 Z " fill="#A71017" transform="translate(190,92)"/>
<path d="M0 0 C0.66 0 1.32 0 2 0 C3 3 3 3 2.0625 5.1875 C1.5365625 6.0846875 1.5365625 6.0846875 1 7 C0.67 7 0.34 7 0 7 C-0.38133299 5.0085944 -0.71325582 3.00720923 -1 1 C-0.67 0.67 -0.34 0.34 0 0 Z M-3 2 C-1 3 -1 3 -1 3 Z " fill="#C1C7CD" transform="translate(51,17)"/>
</svg>
