<?xml version="1.0" encoding="UTF-8"?>
<svg version="1.1" xmlns="http://www.w3.org/2000/svg" width="256" height="256">
<path d="M0 0 C2.5365999 2.31627058 4.15337626 4.72811942 5.86328125 7.69921875 C6.41298584 8.64845215 6.96269043 9.59768555 7.52905273 10.57568359 C8.11759033 11.60258301 8.70612793 12.62948242 9.3125 13.6875 C10.58058412 15.88159425 11.84881733 18.07560234 13.1171875 20.26953125 C14.08736816 21.95296631 14.08736816 21.95296631 15.07714844 23.67041016 C17.44474581 27.77011724 19.83273029 31.85766061 22.22314453 35.9440918 C29.57048438 48.50530156 36.84526731 61.10802527 44.10888672 73.71777344 C47.23680146 79.14659938 50.36853731 84.57322007 53.5 90 C57.26363919 96.52233275 61.02644622 103.04513762 64.78515625 109.5703125 C70.83055204 120.06232172 76.89121011 130.54475319 83 141 C90.3828535 153.63821523 97.70674637 166.30988303 105 179 C105.51584656 179.89733856 105.51584656 179.89733856 106.04211426 180.81280518 C108.18550001 184.54191288 110.32631925 188.27247837 112.46417236 192.00476074 C113.4612942 193.74495015 114.459866 195.4843085 115.45849609 197.22363281 C118.67929869 202.85440658 121.86126707 208.50515785 124.96875 214.19921875 C125.55076172 215.26358154 126.13277344 216.32794434 126.73242188 217.42456055 C128 220 128 220 128 222 C43.52 222 -40.96 222 -128 222 C-126.53116644 217.59349933 -125.22580489 214.30927951 -123.015625 210.3515625 C-122.1184375 208.73882446 -122.1184375 208.73882446 -121.203125 207.09350586 C-120.55859375 205.94889893 -119.9140625 204.80429199 -119.25 203.625 C-118.57274688 202.41488993 -117.89566621 201.20468333 -117.21875 199.99438477 C-111.76860629 190.27311294 -106.17437438 180.63774598 -100.53125 171.02734375 C-96.81952044 164.70476871 -93.15754023 158.35403349 -89.5 152 C-84.12115948 142.6611961 -78.7074044 133.34359489 -73.26953125 124.0390625 C-68.98777878 116.70716277 -64.73789061 109.35732762 -60.5 102 C-55.12167602 92.662786 -49.70964866 83.34607223 -44.27172852 74.04345703 C-39.96514605 66.67025848 -35.69675723 59.27561636 -31.4375 51.875 C-3.65555361 3.65555361 -3.65555361 3.65555361 0 0 Z " fill="#FFFFFF" transform="translate(128,17)"/>
</svg>
